<svg width="110" height="240" viewBox="0 0 110 240" fill="none" xmlns="http://www.w3.org/2000/svg">
<g clip-path="url(#clip0_9_204)">
<path d="M10.7525 229.189H20.3036V232.82H6.28882V204.02H10.7525V229.189Z" fill="white"/>
<mask id="mask0_9_204" style="mask-type:luminance" maskUnits="userSpaceOnUse" x="-114" y="-43" width="338" height="351">
<path d="M-113.83 -42.202H223.829V307.199H-113.83V-42.202Z" fill="white"/>
</mask>
<g mask="url(#mask0_9_204)">
<path d="M43.3034 225.926C45.0771 224.131 45.9651 221.617 45.9651 218.378C45.9651 215.142 45.0771 212.625 43.3034 210.833C41.5274 209.037 38.9826 208.139 35.6689 208.139H31.2464V228.618H35.6689C38.9826 228.618 41.5274 227.721 43.3034 225.926ZM48.8023 225.987C47.6696 228.15 46.0106 229.828 43.8318 231.025C41.653 232.224 39.0476 232.82 36.022 232.82H26.7827V204.02H36.022C39.0476 204.02 41.653 204.609 43.8318 205.792C46.0106 206.976 47.6696 208.643 48.8023 210.79C49.9393 212.939 50.5068 215.469 50.5068 218.378C50.5068 221.29 49.9393 223.824 48.8023 225.987Z" fill="white"/>
</g>
<mask id="mask1_9_204" style="mask-type:luminance" maskUnits="userSpaceOnUse" x="-114" y="-43" width="338" height="351">
<path d="M-113.83 -42.202H223.829V307.199H-113.83V-42.202Z" fill="white"/>
</mask>
<g mask="url(#mask1_9_204)">
<path d="M62.4666 229.189H72.0178V232.82H60.6625H58.0029V230.12V204.02H62.4666V229.189Z" fill="white"/>
</g>
<mask id="mask2_9_204" style="mask-type:luminance" maskUnits="userSpaceOnUse" x="-114" y="-43" width="338" height="351">
<path d="M-113.83 -42.202H223.829V307.199H-113.83V-42.202Z" fill="white"/>
</mask>
<g mask="url(#mask2_9_204)">
<path d="M99.2844 206.426C101.528 208.221 103.042 210.655 103.826 213.727H99.0895C98.4354 211.988 97.398 210.608 95.9751 209.588C94.5543 208.566 92.8109 208.057 90.749 208.057C89.1052 208.057 87.6368 208.479 86.346 209.321C85.053 210.166 84.0351 211.37 83.2922 212.932C82.5494 214.496 82.1768 216.325 82.1768 218.42C82.1768 220.487 82.5494 222.302 83.2922 223.866C84.0351 225.43 85.053 226.634 86.346 227.477C87.6368 228.319 89.1052 228.741 90.749 228.741C92.8109 228.741 94.5543 228.232 95.9751 227.212C97.398 226.19 98.4354 224.825 99.0895 223.111H103.826C103.042 226.186 101.528 228.613 99.2844 230.392C97.0385 232.174 94.2208 233.066 90.8292 233.066C88.2172 233.066 85.9085 232.447 83.8986 231.21C81.8888 229.973 80.3359 228.245 79.24 226.029C78.1441 223.812 77.5962 221.275 77.5962 218.42C77.5962 215.565 78.1441 213.028 79.24 210.812C80.3359 208.595 81.8888 206.861 83.8986 205.61C85.9085 204.36 88.2172 203.732 90.8292 203.732C94.2208 203.732 97.0385 204.631 99.2844 206.426Z" fill="white"/>
</g>
<mask id="mask3_9_204" style="mask-type:luminance" maskUnits="userSpaceOnUse" x="-114" y="-43" width="338" height="351">
<path d="M-113.83 -42.202H223.829V307.199H-113.83V-42.202Z" fill="white"/>
</mask>
<g mask="url(#mask3_9_204)">
<path d="M47.4763 104.541H8.8689L0 85.9664L62.7083 -1.38244e-05L80.4482 14.0383L31.4689 81.4304H47.4763V104.541Z" fill="white"/>
</g>
<mask id="mask4_9_204" style="mask-type:luminance" maskUnits="userSpaceOnUse" x="-114" y="-43" width="338" height="351">
<path d="M-113.83 -42.2019H223.829V307.199H-113.83V-42.2019Z" fill="white"/>
</mask>
<g mask="url(#mask4_9_204)">
<path d="M45.1513 188.486L25.1069 181.476V120.11H47.4406V147.288L78.5521 104.541H62.5209V81.4307H101.122L109.999 99.996L45.1513 188.486Z" fill="white"/>
</g>
</g>
<defs>
<clipPath id="clip0_9_204">
<rect width="110" height="240" fill="white"/>
</clipPath>
</defs>
</svg>
