<?xml version="1.0" encoding="UTF-8" standalone="no"?>
<!-- Created with Inkscape (http://www.inkscape.org/) -->
<svg version="1.1" id="svg1" width="112.03711" height="140.04668" viewBox="0 0 112.03711 140.04667" xmlns="http://www.w3.org/2000/svg" xmlns:svg="http://www.w3.org/2000/svg">
  <defs id="defs1">
    <clipPath clipPathUnits="userSpaceOnUse" id="clipPath11677">
      <path d="M 0,155.906 H 155.906 V 0 H 0 Z" transform="translate(-77.952777,-127.3191)" id="path11677"/>
    </clipPath>
    <clipPath clipPathUnits="userSpaceOnUse" id="clipPath11679">
      <path d="M 0,155.906 H 155.906 V 0 H 0 Z" transform="translate(-107.31573,-113.6646)" id="path11679"/>
    </clipPath>
    <clipPath clipPathUnits="userSpaceOnUse" id="clipPath11681">
      <path d="M 0,155.906 H 155.906 V 0 H 0 Z" transform="translate(-103.28538,-74.388599)" id="path11681"/>
    </clipPath>
    <clipPath clipPathUnits="userSpaceOnUse" id="clipPath11683">
      <path d="M 0,155.906 H 155.906 V 0 H 0 Z" transform="translate(-119.9668,-126.2687)" id="path11683"/>
    </clipPath>
  </defs>
  <g id="layer-MC2" transform="translate(-2888.7208,-33.913736)">
    <path id="path11676" d="M 0,0 C 12.604,0 27.309,-1.072 38.863,-3.151 35.838,-33.33 31.945,-63.746 23.589,-77.648 17.837,-87.217 9.609,-95.779 0,-99.783 c -9.609,4.004 -17.837,12.566 -23.589,22.135 -8.356,13.902 -12.249,44.318 -15.274,74.497 C -27.309,-1.072 -12.604,0 0,0" style="fill:#ffffff;fill-rule:nonzero;stroke:none" transform="matrix(1.3333333,0,0,-1.3333333,2944.7397,38.115867)" clip-path="url(#clipPath11677)"/>
    <path id="path11678" d="m 0,0 h -2.626 l -1.296,-7.352 c -0.103,-0.58 0.373,-1.051 1.062,-1.051 h 1.378 z M -5.421,-8.403 -3.939,0 h -9.453 c -1.74,0 -3.4,-1.411 -3.707,-3.151 l -0.926,-5.252 h 2.626 l 0.37,2.101 h 5.778 c 0.833,0 1.613,0.588 1.741,1.313 0.003,0.018 0.02,0.033 0.039,0.033 0.018,0 0.03,-0.015 0.027,-0.033 l -0.602,-3.414 z m -1.514,6.302 -0.209,-1.181 c -0.089,-0.508 -0.573,-0.92 -1.081,-0.92 h -6.433 l 0.185,1.051 c 0.103,0.58 0.656,1.05 1.236,1.05 z M -18.443,-1.838 -18.118,0 h -8.929 c -0.543,0 -1.046,-0.353 -1.123,-0.788 -0.003,-0.018 -0.021,-0.032 -0.039,-0.032 -0.018,0 -0.03,0.014 -0.027,0.032 L -28.097,0 h -2.363 l -1.482,-8.403 h 2.364 l 0.185,1.051 c 0.003,0.017 0.02,0.032 0.038,0.032 0.018,0 0.03,-0.015 0.027,-0.032 -0.102,-0.58 0.373,-1.051 1.062,-1.051 h 6.04 c 1.74,0 3.4,1.411 3.707,3.151 l 0.324,1.838 h -1.838 c -0.019,0 -0.03,0.015 -0.027,0.033 0.003,0.018 0.02,0.033 0.038,0.033 0.725,0 1.432,0.676 1.579,1.51 m -2.672,-0.263 -0.023,-0.131 c -0.09,-0.508 -0.574,-0.919 -1.081,-0.919 h -6.171 l 0.116,0.657 c 0.038,0.217 0.246,0.393 0.463,0.393 z m 0.039,-2.757 -0.023,-0.131 c -0.102,-0.581 -0.655,-1.05 -1.235,-1.05 h -5.778 c -0.435,0 -0.725,0.352 -0.648,0.787 l 0.069,0.394 z M -33.255,-8.403 -31.773,0 h -2.626 l -0.926,-5.252 c -0.077,-0.435 -0.491,-0.787 -0.927,-0.787 h -4.726 c -0.581,0 -0.968,0.47 -0.865,1.05 L -40.964,0 h -2.626 l -0.925,-5.252 c -0.308,-1.74 0.855,-3.151 2.595,-3.151 h 4.989 c 0.689,0 1.33,0.471 1.433,1.051 0.002,0.017 0.02,0.032 0.038,0.032 0.018,0 0.03,-0.015 0.027,-0.032 l -0.185,-1.051 z M -45.566,-5.252 -44.64,0 h -9.191 c -0.544,0 -1.047,-0.353 -1.123,-0.788 -0.003,-0.018 -0.021,-0.032 -0.039,-0.032 -0.018,0 -0.03,0.014 -0.027,0.032 L -54.881,0 h -2.363 l -1.482,-8.403 h 2.363 l 0.186,1.051 c 0.003,0.017 0.02,0.032 0.038,0.032 0.018,0 0.031,-0.015 0.027,-0.032 -0.102,-0.58 0.374,-1.051 1.062,-1.051 h 5.777 c 1.74,0 3.4,1.411 3.707,3.151 m -2.07,3.151 -0.51,-2.888 c -0.102,-0.581 -0.655,-1.05 -1.235,-1.05 h -5.514 c -0.435,0 -0.726,0.352 -0.649,0.787 l 0.486,2.758 c 0.038,0.217 0.246,0.393 0.463,0.393 z m -0.389,-62.602 v 0 c 0.285,-0.289 0.576,-0.57 0.875,-0.845 0.008,-0.008 0.017,-0.015 0.025,-0.023 0.096,-0.089 0.193,-0.177 0.291,-0.264 1.106,-0.937 1.938,-1.351 3.121,-1.773 5.294,-1.889 11.503,0.52 14.167,3.698 0.458,0.545 1.002,1.485 -0.322,2.239 -1.105,0.63 -4.159,2.129 -5.569,2.793 -0.099,0.045 -0.167,0.067 -0.181,0.116 0.06,0.023 0.128,-0.014 0.209,-0.038 6.551,-1.987 14.099,-2.579 18.857,-1.713 -0.085,0.114 -0.423,0.07 -0.582,0.404 -0.08,0.169 -0.094,0.41 -0.005,0.735 1.417,5.146 1.745,10.636 1.657,13.524 -0.126,4.199 -3.121,6.187 -5.065,6.429 1.069,-0.579 0.987,-2.885 0.965,-5.407 -0.018,-1.907 -0.483,-7.359 -1.304,-11.664 -4.982,-0.118 -14.13,0.674 -20.233,2.671 -0.347,-1.592 -0.54,-4.661 2.136,-6.483 0.312,-0.211 3.921,-2.46 4.185,-2.657 0.296,-0.221 0.316,-0.517 0.042,-0.762 -2.934,-2.635 -9.168,-4.065 -13.269,-0.98 m 10.104,-4.514 c 0.413,-0.237 0.681,-0.362 1.633,-0.808 0.202,-0.045 0.934,0.017 1.551,0.08 0.248,0.029 0.281,0.246 0.122,0.346 -0.322,0.172 -0.623,0.356 -1.56,0.932 -0.822,-0.143 -1.158,-0.19 -1.641,-0.237 -0.221,-0.025 -0.257,-0.219 -0.105,-0.313 m 3.636,0.465 c 0.531,-0.313 0.846,-0.473 1.753,-0.931 0.018,-0.003 0.218,-0.005 1.992,0.513 0.283,0.091 0.342,0.308 0.145,0.433 -0.395,0.232 -0.651,0.398 -1.652,1.051 -0.873,-0.3 -1.121,-0.375 -2.091,-0.631 -0.286,-0.091 -0.347,-0.311 -0.147,-0.435 m 6.212,3.897 c 0.451,-0.491 0.943,-1.024 1.344,-1.453 0.689,0.432 1.537,0.995 2.291,1.508 v 0 c 0.438,0.294 0.498,0.676 0.2,1.049 -0.443,0.533 -0.926,1.116 -1.315,1.587 -0.682,-0.503 -1.553,-1.115 -2.338,-1.653 -0.424,-0.3 -0.475,-0.669 -0.182,-1.038 m 12.795,5.834 c -0.192,-0.735 0.066,-1.154 0.75,-1.013 2.372,0.489 4.794,1.775 6.449,3.028 -0.075,0.104 -0.736,-0.145 -0.487,0.884 0.644,2.664 1.366,5.699 1.985,7.619 0.428,1.33 1.492,4.901 1.682,7.375 0.175,2.28 0.111,4.251 -0.861,6.439 -0.249,0.51 -0.514,1.01 -0.794,1.501 0.655,-1.876 0.468,-4.722 0.267,-5.829 -1.14,-6.304 -4.695,-12.513 -5.55,-16.452 -1.035,-0.201 -1.89,-0.64 -2.275,-0.316 -0.279,0.235 -0.194,0.695 -0.309,0.736 -0.102,-0.809 -0.61,-3.019 -0.857,-3.972" style="fill:#101820;fill-rule:nonzero;stroke:none" transform="matrix(1.3333333,0,0,-1.3333333,2983.8903,56.321867)" clip-path="url(#clipPath11679)"/>
    <path id="path11680" d="m 0,0 c 0.246,-3.335 -1.326,-8.738 -1.822,-10.364 -0.386,-1.266 0.3,-1.208 0.566,-1.009 0.612,0.458 1.156,1.029 1.506,1.587 0.417,0.666 0.62,1.281 0.643,1.781 0.004,0.003 0.008,0.008 0.013,0.012 0.013,0.349 0.02,0.7 0.02,1.052 C 0.926,-4.538 0.604,-2.211 0,0 m -45.964,44.003 c 0.034,0.194 -0.096,0.351 -0.29,0.351 -0.195,0 -0.38,-0.157 -0.414,-0.351 -0.034,-0.195 0.096,-0.352 0.29,-0.352 0.194,0 0.379,0.157 0.414,0.352 m 45.014,0 0.464,2.625 h -14.537 c -0.051,0 -0.1,-0.041 -0.11,-0.093 l -0.446,-2.532 c -0.033,-0.188 -0.033,-0.188 -0.254,-0.376 l -0.662,-0.562 c -0.22,-0.188 -0.22,-0.188 -0.408,-0.188 h -10.762 c 0.035,0 0.064,-0.022 0.055,-0.071 -0.134,-0.596 -0.705,-1.055 -1.308,-1.055 -0.103,0 -0.199,0.015 -0.289,0.041 0.302,0.13 0.584,0.566 0.675,1.085 v 0 l 0.265,1.501 c 0.033,0.187 0.033,0.187 0.253,0.374 l 0.883,0.751 -0.265,-1.501 v 10e-4 c -0.018,-0.104 -0.117,-0.188 -0.221,-0.188 h 8.558 c 0.039,0 0.076,0.031 0.083,0.07 l 0.021,0.118 c 0.018,0.103 -0.051,0.187 -0.155,0.187 h -6.94 c 0.092,0.518 0.586,0.938 1.103,0.938 0.859,0 1.694,0.635 2.07,1.5 h -6.119 c -0.187,0 -0.187,0 -0.408,-0.187 -0.161,-0.137 -0.262,-0.223 -0.328,-0.279 L -29.77,46.13 c -0.015,-0.013 -0.027,-0.024 -0.037,-0.032 l -0.038,-0.032 -0.31,0.375 c -0.082,0.1 -0.1,0.151 -0.16,0.151 -0.061,0 -0.097,-0.051 -0.214,-0.151 l -0.442,-0.375 -0.309,0.375 c -0.154,0.187 -0.154,0.187 -0.342,0.187 h -1.219 c -0.052,0 -0.101,-0.041 -0.11,-0.093 l -0.447,-2.531 c -0.033,-0.189 -0.033,-0.189 -0.255,-0.378 l -0.881,-0.749 0.628,3.564 c 0.019,0.104 0.118,0.187 0.221,0.187 h -0.656 c -0.052,0 -0.102,-0.041 -0.111,-0.093 l -0.446,-2.532 c -0.033,-0.187 -0.033,-0.187 -0.254,-0.376 l -0.662,-0.562 c -0.221,-0.188 -0.221,-0.188 -0.408,-0.188 h -10.316 c -0.622,0 -1.037,0.504 -0.927,1.126 0.109,0.621 0.702,1.125 1.324,1.125 0.167,0 0.319,-0.038 0.451,-0.103 l 10e-4,0.009 c 0.033,0.188 0.033,0.188 0.253,0.375 l 0.773,0.657 -0.364,-2.063 c -0.018,-0.104 -0.117,-0.188 -0.22,-0.188 h 1.055 c 0.039,0 0.076,0.031 0.083,0.07 l 0.45,2.556 c 0.018,0.104 0.117,0.187 0.221,0.187 h -0.938 c -0.188,0 -0.188,0 -0.408,-0.187 -0.166,-0.141 -0.269,-0.229 -0.334,-0.284 -0.011,-0.009 -0.021,-0.017 -0.029,-0.024 -0.018,-0.015 -0.031,-0.027 -0.041,-0.036 l -0.038,-0.031 -0.309,0.375 c -0.082,0.1 -0.101,0.151 -0.16,0.151 -0.061,0 -0.097,-0.051 -0.215,-0.151 l -0.441,-0.375 -0.309,0.375 c -0.096,0.117 -0.133,0.161 -0.192,0.177 -1.366,-0.113 -2.621,-1.241 -2.864,-2.615 l -0.463,-2.626 h 35.06 c 0.188,0 0.188,0 0.409,0.187 l 0.441,0.375 0.309,-0.375 c 0.083,-0.1 0.101,-0.151 0.161,-0.151 0.06,0 0.096,0.051 0.214,0.151 l 0.442,0.375 0.079,-0.097 c 0.046,-0.055 0.117,-0.141 0.229,-0.278 0.155,-0.187 0.155,-0.187 0.342,-0.187 h 8.455 c 1.45,0 2.833,1.175 3.088,2.626 m -28.333,2.063 -0.364,-2.063 c -0.033,-0.188 -0.033,-0.188 -0.254,-0.376 l -0.663,-0.564 c -0.219,-0.186 -0.219,-0.186 -0.407,-0.186 h -0.187 c -0.622,0 -1.036,0.504 -0.927,1.126 0.11,0.621 0.703,1.125 1.324,1.125 0.167,0 0.32,-0.038 0.451,-0.103 l 10e-4,0.009 c 0.033,0.188 0.033,0.188 0.253,0.375 z m 18.234,-3.873 0.584,0.497 0.409,-0.497 c 0.03,-0.037 0.019,-0.096 -0.024,-0.132 l -0.584,-0.497 -0.408,0.497 c -0.03,0.036 -0.02,0.095 0.023,0.132 m 3.049,3.31 -0.264,-1.5 C -8.297,43.815 -8.297,43.815 -8.518,43.627 L -9.18,43.065 c -0.221,-0.188 -0.221,-0.188 -0.408,-0.188 h -1.514 c -0.187,0 -0.187,0 -0.342,0.188 l -1.181,1.434 c -0.045,0.055 -0.134,0.055 -0.199,0 -0.065,-0.055 -0.08,-0.145 -0.035,-0.2 l 0.273,-0.331 c 10e-4,-0.002 10e-4,-0.003 0.002,-0.003 0.344,-0.422 0.223,-1.102 -0.271,-1.522 -0.496,-0.422 -1.179,-0.422 -1.525,0 -0.305,0.37 -0.247,0.943 0.109,1.362 -0.069,-0.182 -0.034,-0.408 0.111,-0.583 0.204,-0.247 0.543,-0.299 0.759,-0.116 0.064,0.055 0.08,0.144 0.035,0.199 v 0 l -0.273,0.331 c -0.347,0.421 -0.226,1.104 0.269,1.525 0.495,0.422 1.178,0.422 1.525,0 l 0.955,-1.158 c 0.155,-0.188 0.155,-0.188 0.342,-0.188 h 1.243 -10e-4 c 0.039,0 0.076,0.031 0.083,0.07 l 0.087,0.493 c 0.033,0.187 0.033,0.187 0.253,0.374 z m 4.833,-1.313 v 0 L -3.2,44.003 c -0.033,-0.188 -0.033,-0.188 -0.254,-0.376 l -0.662,-0.562 c -0.22,-0.188 -0.22,-0.188 -0.408,-0.188 H -7.9 l 0.132,0.75 c 0.019,0.104 0.117,0.188 0.22,0.188 h 3.19 -0.071 c 0.039,0 0.076,0.031 0.083,0.07 l 0.021,0.118 c 0.018,0.103 -0.051,0.187 -0.155,0.187 h -3.188 l 1.765,1.5 c -0.055,-0.31 0.153,-0.562 0.463,-0.562 h 1.501 c 0.517,0 0.863,-0.42 0.772,-0.938 m -27.417,-0.187 c 0.034,0.194 -0.096,0.351 -0.29,0.351 -0.194,0 -0.379,-0.157 -0.413,-0.351 -0.035,-0.195 0.095,-0.352 0.289,-0.352 0.194,0 0.38,0.157 0.414,0.352 m 14.718,2.625 v 0 h -6.71 c 0.024,-0.51 -0.152,-1.1 -0.476,-1.5 h 4.483 c 0.517,0 0.864,-0.42 0.772,-0.938 l -0.033,-0.187 c -0.018,-0.104 -0.117,-0.188 -0.221,-0.188 h 1.431 c 0.038,0 0.075,0.031 0.082,0.07 l 0.451,2.556 c 0.018,0.104 0.117,0.187 0.221,0.187 m -19.319,0 v 0 h -7.409 c -0.052,0 -0.102,-0.041 -0.11,-0.093 l -0.447,-2.532 c -0.018,-0.104 -0.117,-0.188 -0.221,-0.188 h 1.415 l 0.78,0.663 0.392,-0.475 c 0.155,-0.188 0.155,-0.188 0.342,-0.188 h 0.304 l 0.001,0.002 c -0.101,0.006 -0.126,0.036 -0.249,0.186 l -0.555,0.674 0.78,0.663 1.101,-1.337 c 0.155,-0.188 0.155,-0.188 0.342,-0.188 h 0.318 v 0.001 c -0.111,0.005 -0.133,0.031 -0.262,0.187 l -1.266,1.536 0.78,0.663 1.812,-2.199 c 0.155,-0.188 0.155,-0.188 0.343,-0.188 h 1.054 c 0.039,0 0.077,0.031 0.083,0.07 l 0.451,2.556 c 0.018,0.104 0.117,0.187 0.221,0.187 M -51.063,-1.669 c -0.104,-0.593 0.09,-1.237 0.238,-1.597 2.361,-5.758 10.809,-8.953 16.891,-10.183 1.9,-0.385 3.354,0.546 1.873,3.801 -2.235,4.908 -8.04,10.986 -10.166,15.841 -1.351,3.084 -0.992,5.63 -0.305,6.723 -4.286,-3.721 -7.355,-8.808 -8.531,-14.585 m -0.512,-4.348 c -0.011,-0.307 -0.016,-0.615 -0.016,-0.924 0,-6.37 2.265,-12.212 6.033,-16.76 0.012,-0.014 0.024,-0.027 0.036,-0.04 3.139,-3.423 9.094,-2.114 11.05,-0.661 0.137,0.102 0.422,0.405 -0.047,0.742 -2.69,1.937 -15.817,8.509 -17.056,17.643 m 15.734,-23.931 c -1.357,0.126 -2.664,0.435 -3.414,0.721 3.746,-2.347 8.124,-3.776 12.822,-3.97 0.813,-0.018 1.077,0.162 1.226,0.274 1.317,0.988 2.609,2.952 3.301,5.042 l -1.311,-0.735 -1.787,1.752 c -0.557,-0.453 -1.113,-0.818 -1.741,-1.133 0,0 1.47,-0.949 1.946,-1.255 0.4,-0.257 0.48,-0.658 -0.262,-0.937 -2.737,-1.029 -7.218,-1.173 -7.64,-1.117 -1.725,0.851 -2.297,1.28 -3.14,1.358 m 15.42,16.206 c -0.051,-0.48 -0.221,-0.981 -0.526,-1.384 0.384,-0.012 1.988,-0.074 2.23,-0.074 2.837,16.044 -0.384,30.117 -6.83,34.037 -0.293,0.179 -0.808,0.477 -1.682,0.432 -4.689,-0.335 -9.038,-1.902 -12.725,-4.379 -0.371,-0.266 -0.548,-0.615 -0.582,-1.016 -0.14,-1.603 0.456,-3.213 3.01,-6.004 6.965,-7.609 17.678,-16.285 17.105,-21.612 m -0.318,-19.077 c 5.112,0.902 9.715,3.286 13.349,6.691 -0.265,-0.103 -0.642,-0.073 -0.896,0.056 -0.68,0.347 -1.257,1.201 -1.705,3.093 -0.09,0.38 -0.354,0.695 -0.867,0.542 -1.118,-0.332 -1.24,-1.068 -1.591,-1.827 -1.292,-2.796 -4.067,-7.158 -8.29,-8.555 m 10.725,19.68 c -0.069,-0.641 0.312,-1.363 0.806,-1.497 2.762,7.476 7.838,14.972 5.659,21.626 -0.364,1.114 -0.849,1.992 -1.598,2.876 -0.002,0.003 -0.004,0.005 -0.006,0.007 -4.178,5.017 -10.189,8.451 -17.003,9.274 9.81,-4.015 13.577,-18.749 12.142,-32.286 m 6.588,-6.264 c -0.213,-1.115 -0.397,-2.207 -0.223,-2.337 0.006,-0.001 0.012,0 0.018,0 1.497,2.193 2.67,4.626 3.451,7.228 -1.139,-2.223 -3.336,-4.167 -3.527,-4.319 0.04,-0.052 0.384,-0.047 0.281,-0.572" style="fill:#8b6f4c;fill-rule:nonzero;stroke:none" transform="matrix(1.3333333,0,0,-1.3333333,2978.5165,108.68987)" clip-path="url(#clipPath11681)"/>
    <path id="path11682" d="M 0,0 C -9.453,2.101 -24.158,4.202 -42.014,4.202 -59.87,4.202 -74.575,2.101 -84.028,0 c 3.566,-34.094 7.778,-62.983 16.777,-77.777 6.195,-10.184 14.888,-18.796 25.237,-23.056 10.349,4.26 19.042,12.872 25.237,23.056 C -7.778,-62.983 -3.566,-34.094 0,0 m -42.014,1.05 c 12.604,0 27.309,-1.071 38.863,-3.151 -3.025,-30.179 -6.918,-60.594 -15.274,-74.496 -5.753,-9.569 -13.98,-18.132 -23.589,-22.136 -9.609,4.004 -17.837,12.567 -23.589,22.136 -8.356,13.902 -12.249,44.317 -15.274,74.496 11.554,2.08 26.259,3.151 38.863,3.151 m 21.349,-26.645 h -2.261 l 0.438,2.487 h -0.909 l -0.555,-3.151 h 3.17 z m -3.596,0 h -2.261 l 0.439,2.487 h -0.909 l -0.555,-3.151 h 3.169 z m -4.561,-0.664 h 0.982 l -1.111,3.151 h -1.503 l -2.224,-3.151 h 0.983 l 0.38,0.558 h 2.31 z m -0.364,1.136 h -1.744 l 0.956,1.393 h 0.323 z m -3.401,1.261 c 0.114,0.645 -0.13,0.754 -0.721,0.754 h -3.049 l -0.556,-3.151 h 3.133 c 0.353,0 0.557,0.041 0.705,0.139 0.162,0.109 0.265,0.309 0.321,0.629 0.11,0.623 -0.041,0.808 -0.471,0.839 0.437,0.083 0.55,0.289 0.638,0.79 m -3.294,-1.082 h 1.975 c 0.213,0 0.416,-0.026 0.362,-0.335 -0.055,-0.309 -0.267,-0.335 -0.48,-0.335 h -1.975 z m 2.428,0.881 c -0.052,-0.299 -0.257,-0.324 -0.463,-0.324 h -1.867 l 0.114,0.648 h 1.867 c 0.206,0 0.402,-0.025 0.349,-0.324 m -3.445,0.291 0.117,0.664 h -3.821 l -0.117,-0.664 h 1.456 l -0.438,-2.487 h 0.908 l 0.439,2.487 z m -4.243,0 0.117,0.664 h -3.629 l -0.556,-3.151 h 3.63 l 0.113,0.647 h -2.785 l 0.118,0.667 h 2.68 l 0.103,0.583 h -2.68 l 0.104,0.59 z m -6.053,-0.891 2.088,1.555 h -1.305 l -1.51,-1.207 h -0.574 l 0.213,1.207 h -0.853 l -0.556,-3.151 h 0.853 l 0.221,1.252 h 0.572 l 0.006,-0.005 1.242,-1.247 h 1.284 z m -2.766,0.637 c 0.139,0.791 -0.152,0.918 -0.9,0.918 h -1.663 c -0.75,0 -1.086,-0.127 -1.224,-0.918 -0.131,-0.736 0.123,-0.88 0.903,-0.918 0.409,-0.019 1.523,-0.05 1.585,-0.052 0.217,-0.009 0.424,-0.041 0.373,-0.328 -0.057,-0.328 -0.381,-0.311 -0.488,-0.311 h -1.478 c -0.219,0 -0.358,0.039 -0.31,0.311 l 0.02,0.117 h -0.833 c -0.007,-0.037 -0.019,-0.105 -0.021,-0.117 -0.14,-0.794 0.1,-0.935 0.847,-0.935 h 1.824 c 0.926,0 1.133,0.289 1.247,0.935 0.136,0.77 -0.123,0.914 -0.919,0.935 -0.474,0.012 -1.412,0.044 -1.566,0.051 -0.158,0.006 -0.424,0.008 -0.372,0.303 0.057,0.323 0.379,0.323 0.486,0.323 h 1.35 c 0.216,0 0.352,-0.045 0.304,-0.314 l -0.014,-0.085 h 0.834 c 0.005,0.031 0.014,0.082 0.015,0.085 m -5.312,-2.233 h 0.983 l -1.112,3.151 h -1.503 l -2.224,-3.151 h 0.983 l 0.38,0.558 h 2.31 z m -0.364,1.136 h -1.744 l 0.956,1.393 h 0.324 z m -3.401,1.261 c 0.114,0.645 -0.13,0.754 -0.72,0.754 h -3.05 l -0.556,-3.151 h 3.133 c 0.353,0 0.557,0.041 0.705,0.139 0.163,0.109 0.265,0.309 0.321,0.629 0.11,0.623 -0.041,0.808 -0.47,0.839 0.436,0.083 0.549,0.289 0.637,0.79 m -3.294,-1.082 h 1.976 c 0.212,0 0.415,-0.026 0.361,-0.335 -0.054,-0.309 -0.267,-0.335 -0.48,-0.335 h -1.975 z m 2.429,0.881 c -0.053,-0.299 -0.258,-0.324 -0.463,-0.324 h -1.868 l 0.114,0.648 h 1.868 c 0.205,0 0.401,-0.025 0.349,-0.324 m 4.212,-7.597 c -6.779,-1.13 -12.658,-2.827 -16.784,-4.052 0.435,-5.152 1.021,-9.837 1.744,-14.108 2.329,7.906 7.834,14.453 15.04,18.16 m -12.39,-23.964 c 0.143,-3.905 2.683,-7.292 5.626,-9.919 2.624,-2.341 5.975,-4.286 7.549,-5.297 -0.653,1.023 -1.221,2.956 -1.205,5.233 -2.041,0.753 -4.173,1.773 -6.063,3.039 -3.505,2.349 -5.385,5.253 -5.907,6.944 m 27.035,23.063 c 3.823,-2.294 7.322,-8.109 8.412,-17.077 2.508,-1.057 3.732,-2.869 4.255,-4.198 -1.306,14.497 -8.421,20.207 -12.667,21.275 m 0.434,-52.501 c 4.432,0.707 8.085,5.192 9.486,9.097 0.365,1.02 1.131,0.971 1.204,1.185 -0.987,-0.202 -2.614,-0.381 -3.865,-0.479 -1.187,-0.094 -1.378,-0.562 -1.666,-1.44 -1.239,-3.777 -2.952,-7.052 -5.159,-8.363 m -16.665,42.911 c -0.863,1.478 -1.096,3.109 -0.646,4.243 -0.963,-1.007 -1.372,-3.1 -0.601,-5.49 1.705,-5.289 9.3,-11.728 12.744,-19.38 0.788,-1.751 0.189,-3.183 -0.845,-3.28 1.456,-0.242 4.896,-0.641 5.644,-0.661 0.906,-0.024 1.781,1.058 1.312,2.615 -1.895,6.297 -14.474,16.583 -17.608,21.953 m 15.262,-46.078 c -5.171,0 -10.036,1.311 -14.281,3.619 4.26,-4.762 9.104,-8.092 14.281,-10.972 5.177,2.88 10.021,6.21 14.281,10.972 -4.244,-2.308 -9.11,-3.619 -14.281,-3.619 m 20.025,16.469 c -1.104,-0.62 -2.179,-1.284 -3.705,-1.875 0.044,-0.105 0.539,0.175 0.602,-0.487 0.111,-1.186 0.411,-2.488 0.927,-2.907 0.269,-0.218 0.688,-0.334 1.029,-0.058 0.707,0.732 1.372,1.504 1.991,2.314 v 10e-4 c -0.451,-0.132 -0.389,1.369 -0.294,2.736 0.026,0.37 -0.198,0.474 -0.55,0.276 m -6.349,40.1 c 7.206,-3.707 12.711,-10.254 15.04,-18.16 0.723,4.271 1.309,8.956 1.744,14.108 -4.126,1.225 -10.005,2.922 -16.784,4.052 m 8.443,-36.294 c -0.043,-0.445 0.297,-0.601 0.719,-0.272 0.902,0.707 2.746,2.645 3.224,6.163 -0.483,-1.266 -1.636,-2.336 -2.337,-2.942 -0.304,-0.262 -0.554,-0.185 -0.669,-0.064 -0.157,0.165 -0.103,0.44 -0.158,0.463 -0.29,-0.916 -0.744,-2.985 -0.779,-3.348" style="fill:#656b71;fill-rule:nonzero;stroke:none" transform="matrix(1.3333333,0,0,-1.3333333,3000.7584,39.5164)" clip-path="url(#clipPath11683)"/>
  </g>
</svg>