<?xml version="1.0" encoding="UTF-8" standalone="no"?>
<!-- Created with Inkscape (http://www.inkscape.org/) -->
<svg version="1.1" id="svg1" width="300" height="300" viewBox="0 0 136.00537 136.00532" xmlns="http://www.w3.org/2000/svg" xmlns:svg="http://www.w3.org/2000/svg">
  <defs id="defs1">
    <clipPath clipPathUnits="userSpaceOnUse" id="clipPath12429">
      <path d="M 0,155.906 H 155.906 V 0 H 0 Z" transform="translate(-128.95468,-77.952802)" id="path12429"/>
    </clipPath>
    <clipPath clipPathUnits="userSpaceOnUse" id="clipPath12431">
      <path d="M 0,155.906 H 155.906 V 0 H 0 Z" transform="translate(-79.340602,-92.495503)" id="path12431"/>
    </clipPath>
    <clipPath clipPathUnits="userSpaceOnUse" id="clipPath12433">
      <path d="M 0,155.906 H 155.906 V 0 H 0 Z" transform="translate(-58.068426,-61.901504)" id="path12433"/>
    </clipPath>
    <clipPath clipPathUnits="userSpaceOnUse" id="clipPath12435">
      <path d="M 0,155.906 H 155.906 V 0 H 0 Z" transform="translate(-69.154777,-62.604502)" id="path12435"/>
    </clipPath>
    <clipPath clipPathUnits="userSpaceOnUse" id="clipPath12437">
      <path d="M 0,155.906 H 155.906 V 0 H 0 Z" transform="translate(-79.166002,-67.730302)" id="path12437"/>
    </clipPath>
    <clipPath clipPathUnits="userSpaceOnUse" id="clipPath12439">
      <path d="M 0,155.906 H 155.906 V 0 H 0 Z" transform="translate(-92.594977,-56.787599)" id="path12439"/>
    </clipPath>
    <clipPath clipPathUnits="userSpaceOnUse" id="clipPath12441">
      <path d="M 0,155.906 H 155.906 V 0 H 0 Z" transform="translate(-103.32073,-55.165799)" id="path12441"/>
    </clipPath>
    <clipPath clipPathUnits="userSpaceOnUse" id="clipPath12443">
      <path d="M 0,155.906 H 155.906 V 0 H 0 Z" transform="translate(-97.854802,-55.164704)" id="path12443"/>
    </clipPath>
    <clipPath clipPathUnits="userSpaceOnUse" id="clipPath12445">
      <path d="M 0,155.906 H 155.906 V 0 H 0 Z" transform="translate(-51.326526,-43.030401)" id="path12445"/>
    </clipPath>
    <clipPath clipPathUnits="userSpaceOnUse" id="clipPath12447">
      <path d="M 0,155.906 H 155.906 V 0 H 0 Z" transform="translate(-62.602027,-46.714401)" id="path12447"/>
    </clipPath>
    <clipPath clipPathUnits="userSpaceOnUse" id="clipPath12449">
      <path d="M 0,155.906 H 155.906 V 0 H 0 Z" transform="translate(-63.461602,-42.939704)" id="path12449"/>
    </clipPath>
    <clipPath clipPathUnits="userSpaceOnUse" id="clipPath12451">
      <path d="M 0,155.906 H 155.906 V 0 H 0 Z" transform="translate(-78.608527,-42.892499)" id="path12451"/>
    </clipPath>
    <clipPath clipPathUnits="userSpaceOnUse" id="clipPath12453">
      <path d="M 0,155.906 H 155.906 V 0 H 0 Z" transform="translate(-81.811327,-46.272599)" id="path12453"/>
    </clipPath>
    <clipPath clipPathUnits="userSpaceOnUse" id="clipPath12455">
      <path d="M 0,155.906 H 155.906 V 0 H 0 Z" transform="translate(-93.818077,-50.020101)" id="path12455"/>
    </clipPath>
    <clipPath clipPathUnits="userSpaceOnUse" id="clipPath12457">
      <path d="M 0,155.906 H 155.906 V 0 H 0 Z" transform="translate(-101.21548,-42.857999)" id="path12457"/>
    </clipPath>
  </defs>
  <g id="layer-MC2" transform="translate(-5155.4832,-35.934938)">
    <path id="path12428" d="m 0,0 c 0,-28.167 -22.834,-51.002 -51.002,-51.002 -28.167,0 -51.002,22.835 -51.002,51.002 0,28.168 22.835,51.002 51.002,51.002 C -22.834,51.002 0,28.168 0,0" style="fill:#d10a11;fill-rule:nonzero;stroke:none" transform="matrix(1.3333333,0,0,-1.3333333,5291.4889,103.9376)" clip-path="url(#clipPath12429)"/>
    <path id="path12430" d="m 0,0 1.664,0.049 4.812,-21.533 c 0.204,0.075 0.42,0.158 0.619,0.241 8.416,3.397 14.328,11.638 14.323,21.263 -0.008,12.659 -10.269,22.925 -22.927,22.925 -6.995,0 -13.274,-3.146 -17.48,-8.086 l 15.33,-2.496 c -0.009,1.58 -2.057,-0.181 -1.714,4.336 -1.563,0.556 -1.122,2.475 0.4,2.611 1.624,0.144 4.219,0.013 4.982,-1.773 0.209,-0.883 0.198,-1.845 0,-2.768 -0.231,-0.931 -0.885,-2.564 0.154,-3.084 L 8.185,10.65 5.573,13.185 c -0.054,0.018 -0.292,0.04 -0.343,0.043 -2.989,0.149 -2.659,4.429 0.76,1.873 L 14.861,7.953 4.085,7.111 1.781,0.816 Z m -18.989,14.859 -3.705,0.463 c -4.857,0.877 -2.277,-3.786 0.221,-1.88 l 0.223,-0.002 14.472,-3.766 3.026,-9.746 -6.423,-19.158 -11.298,10.963 c -2.808,-0.205 -3.717,-1.617 -3.654,-4.097 l 22.815,-17.609 -3.945,-4.668 3.505,-3.147 6.603,7.772 0.401,7.373 c 12.396,0.986 21.903,11.55 21.903,24.201 0,13.301 -10.789,24.09 -24.09,24.09 -8.378,0.001 -15.737,-4.298 -20.054,-10.789 m 22.117,-37.399 -5.062,-5.839 -7.803,7.709 8.256,13.653 5.938,-15.094 C 3.965,-22.274 3.626,-22.409 3.128,-22.54" style="fill:#ffffff;fill-rule:evenodd;stroke:none" transform="matrix(1.3333333,0,0,-1.3333333,5225.3368,84.547333)" clip-path="url(#clipPath12431)"/>
    <path id="path12432" d="m 0,0 c -0.003,-0.253 -0.073,-0.691 -0.22,-1.315 -0.537,-2.211 -1.826,-4.077 -3.884,-5.598 l -1.11,1.566 c 1.489,1.091 2.497,2.444 3.024,4.062 0.059,0.177 0.089,0.35 0.089,0.525 0,0.332 -0.103,0.498 -0.308,0.497 l -3.244,0.001 c -0.108,0 -0.211,0.036 -0.313,0.108 -0.103,0.074 -0.153,0.159 -0.153,0.257 -0.021,1.227 -0.04,1.956 -0.06,2.191 -0.048,0.887 -0.164,1.603 -0.352,2.147 l 1.829,0.542 C -4.37,4.078 -4.204,2.98 -4.208,1.695 h 2.996 C -0.835,1.693 -0.535,1.547 -0.322,1.25 -0.108,0.952 0,0.609 -0.001,0.22 Z" style="fill:#ffffff;fill-rule:nonzero;stroke:none" transform="matrix(1.3333333,0,0,-1.3333333,5196.9739,125.33933)" clip-path="url(#clipPath12433)"/>
    <path id="path12434" d="m 0,0 c -0.514,-2.106 -1.473,-3.845 -2.874,-5.218 -1.297,-1.267 -3.021,-2.273 -5.173,-3.024 l -0.643,1.797 c 0.944,0.35 1.85,0.78 2.717,1.285 l -1.241,3.858 -1.492,0.951 1.01,1.751 2.061,-1.254 1.269,-4.107 c 0.994,0.993 1.655,1.953 1.987,2.877 l -1.549,0.761 0.905,1.782 z" style="fill:#ffffff;fill-rule:nonzero;stroke:none" transform="matrix(1.3333333,0,0,-1.3333333,5211.7557,124.402)" clip-path="url(#clipPath12435)"/>
    <path id="path12436" d="M 0,0 H -1.958 L -1.957,6.444 -3.841,7.293 -2.6,9.015 0,7.583 Z" style="fill:#ffffff;fill-rule:nonzero;stroke:none" transform="matrix(1.3333333,0,0,-1.3333333,5225.104,117.5676)" clip-path="url(#clipPath12437)"/>
    <path id="path12438" d="m 0,0 c 0.001,-0.826 -0.287,-1.321 -0.863,-1.476 -0.048,-0.019 -0.198,-0.038 -0.453,-0.058 l -5.551,-0.529 -0.116,1.903 4.66,0.454 c 0.243,0.02 0.366,0.122 0.365,0.307 v 3.288 c 10e-4,0.293 -0.089,0.473 -0.263,0.541 l -1.092,0.395 c -0.176,0.067 -0.301,0.102 -0.382,0.102 -0.165,0 -0.293,-0.084 -0.377,-0.248 L -4.469,3.947 C -4.538,3.831 -4.566,3.738 -4.557,3.67 -4.555,3.63 -4.532,3.573 -4.483,3.492 L -3.431,2.793 -4.455,1.186 -6.427,2.487 c -0.247,0.155 -0.369,0.443 -0.367,0.863 -0.001,0.243 0.063,0.477 0.189,0.7 l 1.594,2.803 c 0.188,0.321 0.416,0.483 0.688,0.481 0.078,0 0.162,-0.014 0.248,-0.043 L -0.746,6.123 C -0.531,6.048 -0.353,5.872 -0.211,5.599 -0.069,5.326 0,5.063 -0.001,4.81 Z" style="fill:#ffffff;fill-rule:nonzero;stroke:none" transform="matrix(1.3333333,0,0,-1.3333333,5243.0093,132.15787)" clip-path="url(#clipPath12439)"/>
    <path id="path12440" d="m 0,0 -1.96,-0.001 v 5.964 c 0.003,0.115 -0.041,0.23 -0.121,0.344 -0.084,0.111 -0.179,0.166 -0.287,0.167 L -6.577,6.472 c -0.65,0 -1.167,0.275 -1.548,0.82 l 1.14,1.563 c 0.282,-0.282 0.574,-0.426 0.877,-0.426 l 4.836,10e-4 c 0.321,0 0.612,-0.138 0.877,-0.423 C -0.132,7.725 0,7.408 0.001,7.056 Z" style="fill:#ffffff;fill-rule:nonzero;stroke:none" transform="matrix(1.3333333,0,0,-1.3333333,5257.3103,134.32027)" clip-path="url(#clipPath12441)"/>
    <path id="path12442" d="M 0,0 0.002,4.707 H -1.956 L -1.958,0.002 Z" style="fill:#ffffff;fill-rule:nonzero;stroke:none" transform="matrix(1.3333333,0,0,-1.3333333,5250.0224,134.32173)" clip-path="url(#clipPath12443)"/>
    <path id="path12444" d="m 0,0 0.015,1.993 4.24,0.403 0.04,4.641 -4.164,0.036 0.476,1.83 4.824,-0.041 C 5.963,8.862 6.377,8.42 6.37,7.865 L 6.327,2.582 7.39,2.631 7.372,0.681 Z" style="fill:#ffffff;fill-rule:nonzero;stroke:none" transform="matrix(1.3333333,0,0,-1.3333333,5187.9847,150.5008)" clip-path="url(#clipPath12445)"/>
    <path id="path12446" d="M 0,0 -2.225,0.022 -2.197,3.299 -3.8,3.309 -3.3,5.17 -0.851,5.148 C -0.362,5.146 0.041,4.721 0.035,4.207 Z" style="fill:#ffffff;fill-rule:nonzero;stroke:none" transform="matrix(1.3333333,0,0,-1.3333333,5203.0187,145.5888)" clip-path="url(#clipPath12447)"/>
    <path id="path12448" d="M 0,0 0.019,1.99 4.256,2.393 4.297,7.036 0.128,7.074 0.609,8.903 5.432,8.861 C 5.964,8.856 6.376,8.415 6.377,7.864 L 6.328,2.577 7.391,2.626 7.375,0.678 Z" style="fill:#ffffff;fill-rule:nonzero;stroke:none" transform="matrix(1.3333333,0,0,-1.3333333,5204.1648,150.62173)" clip-path="url(#clipPath12449)"/>
    <path id="path12450" d="m 0,0 -4.328,5.121 -0.335,-4.914 -2.057,0.012 0.279,4.631 1.672,0.8 -1.845,2.198 1.638,1.443 4.288,-5.132 0.389,2.851 -1.457,0.013 0.437,1.83 1.414,-0.014 C 0.904,8.833 1.476,8.509 1.654,7.921 1.664,7.834 1.679,7.661 1.662,7.356 L 1.181,3.705 -0.326,3.719 1.651,1.458 Z" style="fill:#ffffff;fill-rule:nonzero;stroke:none" transform="matrix(1.3333333,0,0,-1.3333333,5224.3607,150.68467)" clip-path="url(#clipPath12451)"/>
    <path id="path12452" d="M 0,0 0.012,1.79 4.445,1.754 4.428,-0.038 Z" style="fill:#ffffff;fill-rule:nonzero;stroke:none" transform="matrix(1.3333333,0,0,-1.3333333,5228.6311,146.17787)" clip-path="url(#clipPath12453)"/>
    <path id="path12454" d="m 0,0 c -1.752,-6.019 -1.752,-6.017 -2.09,-7.117 l -2.177,0.021 1.988,6.794 -4.738,0.045 0.029,3.784 2.09,0.462 -0.223,-2.43 3.927,-0.033 C -0.418,1.521 0.052,1.017 0.046,0.42 0.046,0.42 0.043,0.134 0,0" style="fill:#ffffff;fill-rule:nonzero;stroke:none" transform="matrix(1.3333333,0,0,-1.3333333,5244.6401,141.1812)" clip-path="url(#clipPath12455)"/>
    <path id="path12456" d="M 0,0 0.06,6.812 -2.976,6.842 -3.036,0.029 -6.92,0.06 -6.906,1.893 -5.073,1.881 -5.03,6.859 -6.514,6.868 -6.047,8.7 1.082,8.638 C 1.656,8.634 2.126,8.18 2.121,7.584 L 2.052,-0.019 Z" style="fill:#ffffff;fill-rule:nonzero;stroke:none" transform="matrix(1.3333333,0,0,-1.3333333,5254.5033,150.73067)" clip-path="url(#clipPath12457)"/>
  </g>
</svg>