<?xml version="1.0" encoding="UTF-8" standalone="no"?>
<svg xmlns:rdf="http://www.w3.org/1999/02/22-rdf-syntax-ns#" xmlns="http://www.w3.org/2000/svg" height="268.66667" width="198.90239" version="1.1" xmlns:cc="http://creativecommons.org/ns#" xmlns:dc="http://purl.org/dc/elements/1.1/" viewBox="0 0 198.90239 268.66667"><title>Anadolu Efes SK logo</title><g id="Page-1"><g id="ANADOLU-EFES-Logo-Pantone-Keyline"><path id="Fill-1" d="M198.90239,169.16052V20.26332A254.182,254.182,0,0,0,0,20.26332v148.8972a99.45121,99.45121,0,1,0,198.90239,0" fill="#00a4d2"/><path id="Fill-3" d="M188.512,169.98769V27.40775a241.56,241.56,0,0,0-178.12155,0V169.98769c0,49.5802,39.87387,89.7729,89.06078,89.7729s89.06077-40.1927,89.06077-89.7729" fill="#213557"/><path id="Fill-5" d="M169.21547,175.30688V147.614a3.14161,3.14161,0,0,0-4.35533,3.17332c-.014,7.93462.01319,15.86748,0,23.80209-2.1904-.34731-4.35532-.677-6.55364-.9883.03341-9.73979-.0334-19.47956,0-29.21934-1.45558-.39216-2.9261-.772-4.38784-1.136-.04219,9.91827.04219,19.83742,0,29.75394a5.21663,5.21663,0,0,0,4.32105,5.27567q3.30142.40227,6.59231.84763a3.7564,3.7564,0,0,0,4.38345-3.81607m-19.75057-8.91062c-2.57276-.364-5.09279-.69991-7.67434-1.00677.0334-6.61658-.0334-13.23141,0-19.848a5.85489,5.85489,0,0,0-4.41773-5.76192c-.04219,8.369.04219,16.7406,0,25.10959-.01494,2.78028,1.89771,5.21148,4.34213,5.4612,2.58068.27082,5.17541.56626,7.74994.88543.0079-1.61348-.00792-3.22608,0-4.83955m-1.148,10.77733q-7.4559-.74782-14.94346-1.267c-2.45058-.17584-4.46783,1.99773-4.48014,4.82989-.01143,2.55783.01143,5.11653,0,7.67523-.0123,2.83128,1.94694,5.171,4.39312,5.237,3.878.11254,7.73587.24443,11.60951.39566-.01231,2.45584.0123,4.91166,0,7.3666-5.35032-.08176-10.72175-.15035-16.07734-.20575q-.01054,2.56-.022,5.1183H144.852a4.69815,4.69815,0,0,0,4.47047-4.83955c.01143-2.41979-.01231-4.83957,0-7.25934a4.94468,4.94468,0,0,0-4.38257-5.09279c-3.87189-.21191-7.72971-.39567-11.60951-.55219.01143-2.53408-.01318-5.06993,0-7.60488,3.50975.204,7.03708.43788,10.53891.7043a4.27449,4.27449,0,0,0,4.44762-4.50543m-17.634-12.928c.03076-6.80123-.03165-13.60245,0-20.40192.01318-2.81106-1.90738-5.38119-4.37115-5.67927q-2.78723-.335-5.58061-.59967c-2.469-.23653-4.51,1.95552-4.51793,4.83868-.01934,6.95686.01933,13.9146,0,20.87146-.00791,2.88579,1.95045,5.3003,4.40894,5.42515q2.78064.14641,5.56216.328c2.455.15651,4.4854-1.97135,4.49859-4.7824m-4.42036-20.93828c-.029,6.85838.029,13.71764,0,20.5769-1.85464-.13805-3.7295-.26379-5.58589-.37369.0246-6.91818-.02286-13.83722,0-20.75628,1.86166.16267,3.72861.34732,5.58589.55307M109.5058,163.0251c.0123-6.9973-.01143-13.99461,0-20.99192.00615-2.89634-1.9733-5.34162-4.4485-5.40317q-5.04444-.12663-10.09151-.0255.01449,15.78482.02637,31.57053,5.01542-.05407,10.03437.01319c2.46026.03165,4.47311-2.265,4.47927-5.16313M105.045,141.889c-.0079,7.014.007,14.02626,0,21.04028-1.8599-.029-3.73389-.044-5.59379-.044V141.82567c1.86782,0,3.72774.02023,5.59379.06331M83.81334,168.4485c1.48548-.05539,2.97973-.10552,4.46432-.146-.0167-8.73915.0167-17.48007,0-26.22011-.00439-2.8981-2.041-5.15258-4.51354-4.97672q-2.79777.19387-5.59292.459c-2.469.23741-4.40454,2.7794-4.39312,5.623.03516,8.58879-.03428,17.17935,0,25.76816,2.45674-.15123,4.45729-2.57365,4.44762-5.4445-.00879-2.59387.00879-5.18862,0-7.78426,1.85815-.12926,3.72773-.2418,5.58764-.33676.01143,4.35331-.01142,8.70486,0,13.05818m0-18.28374c-1.86166.10551-3.72773.22949-5.58764.37282-.00879-2.59388.00879-5.18863,0-7.78251q2.79118-.24664,5.58764-.42646c.007,2.61323-.00615,5.22469,0,7.83615m-27.548,56.15871H72.32162q-.01187-2.57058-.02285-5.13852c-5.35472.04924-10.75866.11431-16.10986.19256-.01319-2.47165.01231-4.94593,0-7.41758,4.612-.1706,9.24067-.31481,13.86056-.43q-.01319-2.56-.02373-5.11829c-4.62077.16266-9.22485.36314-13.83683.60318-.01231-2.47341.01231-4.94594,0-7.41935,3.87277-.28665,7.7007-.53372,11.584-.74387,2.45058-.12838,4.42827-2.52,4.41685-5.36273q-8.05318.44975-16.07646,1.16153a5.20287,5.20287,0,0,0-4.39927,5.29062q.04878,9.7521.09756,19.50594a4.70509,4.70509,0,0,0,4.45377,4.87649M67.0926,169.43153c-.04746-10.17678.04747-20.35268,0-30.52947-2.45762.36139-4.47135,2.95174-4.4564,5.72675.02285,4.68393-.02286,9.36609,0,14.04913-2.2493-6.10044-4.46344-12.07074-6.70483-17.88279a5.91937,5.91937,0,0,0-4.33071,5.79006c.04043,8.12718-.04043,16.25524,0,24.38242a5.392,5.392,0,0,0,4.42124-5.4445c-.02461-4.59774.02374-9.19726,0-13.795,2.24227,5.88413,4.45641,11.92127,6.70483,18.0815,1.293-.11694,4.18128-.36314,4.36587-.37809m-26.48177,8.84292c1.467-.17674,2.92523-.34908,4.39488-.51439-.04219-9.91739.04131-19.83566,0-29.75393-.01231-2.637-2.04889-4.28561-4.45992-3.62439q-3.27639.88632-6.529,1.872a6.486,6.486,0,0,0-4.32984,5.79006v27.69379a5.26623,5.26623,0,0,0,4.35445-5.14819c-.007-4.15635.007-8.31271,0-12.46729,2.18161-.4845,4.37817-.9426,6.56946-1.37784.0211,5.84281-.02109,11.68651,0,17.5302m0-22.20533c-2.18953.4792-4.39136.98479-6.56946,1.5194-.00352-2.26678.00439-4.53445,0-6.80123,2.17282-.60758,4.38345-1.18439,6.56946-1.73042.00791,2.338-.00791,4.676,0,7.01225m37.69925,24.30769c.029,8.64947-.03164,17.29718,0,25.94666h4.48981c-.01231-4.34892.0123-8.69607,0-13.045q6.38-.091,12.76623-.11167-.00263-2.63124-.00263-5.26337c-4.26039.0211-8.50672.07209-12.7636.15827-.00791-2.61058.007-5.21941,0-7.82735,3.52029-.10111,7.00983-.16882,10.53188-.20575,2.45762-.02462,4.44938-2.38548,4.44938-5.29326q-7.51788.02373-15.02961.2796c-2.45849.08794-4.45288,2.4998-4.44146,5.36186m23.91868-.37194q-.00528,10.52629,0,21.05435c-.00176,2.90865,1.97506,5.26513,4.42037,5.26425q8.02812.00132,16.05712,0,.00921-2.58508.01845-5.17193-8.03208-.0633-16.06942-.08353.00526-3.94356.01143-7.88625,6.93644.04353,13.879.16881c.00615-1.72955-.007-3.46084,0-5.19038q-6.93908-.17409-13.87287-.23389.00528-3.94226.00967-7.88363,5.84079.06993,11.67719.2594c2.45409.07474,4.452-2.1604,4.46431-5.01366q-8.06109-.3838-16.13447-.50294c-2.46025-.03693-4.45992,2.31074-4.4608,5.2194" fill="#fffffe"/><path id="Fill-7" d="M77.60276,63.9375a.0981.0981,0,0,0-.09589-.11061H41.66018a.09721.09721,0,0,0-.05772.17608L77.30975,89.9529a.0986.0986,0,0,1,.03551.10884l-13.58091,41.917a.09784.09784,0,0,0,.151.10883l31.04209-22.56715a.09644.09644,0,0,0,.00355-.15484c-1.58052-1.24411-21.13366-17.32621-17.35818-45.42808" fill="#00a4d2"/><path id="Fill-9" d="M130.1322,114.83819c-4.35338-3.33566-19.35776-14.84159-25.482-19.707-8.78856-6.98359-18.131-17.33276-19.65735-37.14967a.09661.09661,0,0,0-.18847-.02463c-.92366,3.10431-5.40151,20.642,5.61041,37.2957A58.349,58.349,0,0,0,104.948,110.26837c14.48876,10.24712,29.422,20.43355,31.45781,21.82077a.0981.0981,0,0,0,.14935-.10995l-4.757-14.78089a4.83257,4.83257,0,0,0-1.666-2.36011" fill="#fffffe"/><path id="Fill-11" d="M157.24618,63.82689H120.3259a.09924.09924,0,0,0-.08974.12961l6.58072,23.547a.093.093,0,0,0,.14671.05369l30.33782-23.54608a.10314.10314,0,0,0-.05523-.18423" fill="#00a4d2"/><path id="Fill-13" d="M104.43894,86.79576a92.92041,92.92041,0,0,1-2.76673-25.68142.09386.09386,0,0,1,.18445-.01569c4.19812,15.247,8.03839,26.747,9.29978,30.228a4.69223,4.69223,0,0,0,1.57844,2.14688l11.803,8.92759a.09327.09327,0,0,0,.14281-.10551L112.86662,63.73559c-7.15949-25.221-5.75871-39.13209-5.46036-41.36268a.0947.0947,0,0,0-.1649-.075c-6.80249,7.97535-9.10513,21.9719-9.45192,24.32283a.09135.09135,0,0,1-.1768.01482,45.73059,45.73059,0,0,1-1.77989-9.86673.09009.09009,0,0,0-.1734-.01832c-2.11648,4.51437-5.22831,14.74648-5.111,22.26926a36.59173,36.59173,0,0,0,13.74525,27.87538.09169.09169,0,0,0,.14535-.0994" fill="#d73430"/><path id="Fill-15" d="M79.97093,221.72037a4.21113,4.21113,0,0,1,.16907,1.02024c0,.40845-2.02627,13.81772-2.02627,13.81772-.30925,1.98147-.61848,2.41987-.92773,2.82652h2.33465c.53438,0,.59132-.20332.67542-.75792l2.67279-17.45934Zm5.79849,17.57735c.0841.72887.3653,1.13733,2.50371,1.13733,7.82127,0,9.08714-11.74818,9.08714-13.75962,0-2.2438-.70347-5.50784-4.53-5.50784-3.91063,0-5.59788,3.93482-5.59788,6.87935,0,3.205,1.71616,5.27548,4.21987,5.27548a3.41451,3.41451,0,0,0,2.47568-1.13734c-.87253,3.49823-2.67279,6.23853-5.8239,6.23853a5.92946,5.92946,0,0,1-2.53174-.55459Zm7.14583-16.1196c1.463,0,2.19448,1.45683,2.19448,3.32395,0,2.09764-.9286,4.98319-3.20717,4.98319-.9286,0-2.33552-.63993-2.33552-3.205C89.567,226.88056,90.21443,223.17812,92.91525,223.17812Zm8.01136.64173a3.99687,3.99687,0,0,1,2.44765-.40846h4.58605c-1.60314,2.3028-3.62853,5.50965-4.417,6.96648a19.50122,19.50122,0,0,0-2.58782,8.191c0,.96214.36531,1.07833,1.06789,1.3116l1.689.58365c-.05606-.728-.085-1.10737-.085-1.60389,0-4.54751,2.13928-8.39518,7.7941-17.46025h-8.975c-.56242,0-.75953.05809-.9286.58274Zm20.614-2.566a3.2805,3.2805,0,0,0-.67542-.08622,9.5105,9.5105,0,0,0-3.65833,1.80628A14.64547,14.64547,0,0,0,111.553,233.818c0,2.3618.87166,5.82916,4.66927,5.82916,3.99648,0,5.76783-3.87672,5.76783-7.02367,0-3.70246-2.10949-5.044-4.07883-5.044a4.94326,4.94326,0,0,0-2.27857.64174c2.50372-3.84859,4.24791-5.13116,7.56809-6.617Zm-4.38894,8.13288c1.96933,0,2.41962,1.72006,2.41962,3.323,0,2.15757-1.15375,4.92691-3.26325,4.92691-1.23783,0-2.41962-.99118-2.41962-3.44012C113.88845,231.63139,115.01242,229.38669,117.1517,229.38669Z" fill="#fffffe"/></g></g></svg>