<?xml version="1.0" encoding="UTF-8" standalone="no"?>
<svg xmlns:rdf="http://www.w3.org/1999/02/22-rdf-syntax-ns#" xmlns="http://www.w3.org/2000/svg" height="120.3288" width="120.32879" version="1.1" xmlns:cc="http://creativecommons.org/ns#" xmlns:dc="http://purl.org/dc/elements/1.1/" viewBox="0 0 120.32879 120.3288"><circle cx="60.1644" cy="60.1644" r="59.10236" fill="#e2231a" stroke="#fff" stroke-miterlimit="10" stroke-width="2.12407"/><circle cx="60.00526" cy="60.23253" r="38.96121" fill="#fff" stroke="#e2231a" stroke-miterlimit="10" stroke-width="1.65205"/><polygon points="61.246 21.68 59.901 64.312 58.724 21.68 61.246 21.68" fill="#e2231a" stroke="#e2231a" stroke-miterlimit="10" stroke-width="0.23601"/><path d="M89.28879,86.82646c1.828-2.67054,1.74537-6.334.96536-9.53225-1.80033-7.38182-6.69108-13.37965-11.22735-19.2827s-9.02589-12.42213-9.74212-20.01046a11.77667,11.77667,0,0,1,1.01167-6.64837c1.79145-3.3359,5.73245-4.722,9.34159-4.65671l4.86411,3.61425c-3.58794-.42006-7.62438.46231-9.67936,3.35337a10.08413,10.08413,0,0,0-1.54815,6.017c.09569,7.05435,4.03514,13.50118,8.07118,19.38573S89.763,70.95808,90.9548,77.93054c.51637,3.02088.30053,6.40029-1.73666,8.67544" fill="#e2231a" stroke="#e2231a" stroke-miterlimit="10" stroke-width="0.23601"/><path d="M30.65385,86.48378c-1.828-2.63435-1.74537-6.24817-.96536-9.40307,1.80033-7.28179,6.69108-13.19834,11.22735-19.02139S49.94173,45.80552,50.658,38.32a11.47687,11.47687,0,0,0-1.01167-6.55827c-1.79145-3.29069-5.73246-4.658-9.3416-4.5936l-4.86411,3.56528c3.588-.41439,7.6244.456,9.67937,3.30792a9.84378,9.84378,0,0,1,1.54814,5.93548c-.09568,6.95875-4.03512,13.31822-8.07117,19.123S30.17965,70.83043,28.98785,77.7084c-.51637,2.97995-.30053,6.31356,1.73666,8.55788" fill="#e2231a" stroke="#e2231a" stroke-miterlimit="10" stroke-width="0.23601"/><path d="M21.55268,56.65965V54.33229a55.31025,55.31025,0,0,1,77.20433,0v2.32736A55.31023,55.31023,0,0,0,21.55268,56.65965Z" fill="#e2231a" stroke="#e2231a" stroke-miterlimit="10" stroke-width="0.94403"/><rect x="32.9347" y="80.27193" width="1.00938" height="8.96708" fill="#e2231a"/><rect x="85.95011" y="80.37856" width="1.00938" height="8.86044" fill="#e2231a"/><rect x="88.45868" y="82.40125" width="1.0094" height="4.3024" fill="#e2231a"/><rect x="30.46417" y="82.40125" width="1.00938" height="4.21508" fill="#e2231a"/><rect x="35.58411" y="71.74774" width="1.13237" height="19.69665" fill="#e2231a"/><rect x="38.23342" y="78.21985" width="1.13237" height="15.10794" fill="#e2231a"/><rect x="40.88273" y="76.70769" width="1.13237" height="18.23929" fill="#e2231a"/><rect x="43.50801" y="67.09023" width="0.98968" height="29.0814" fill="#e2231a"/><rect x="46.18136" y="72.92953" width="1.13237" height="24.40909" fill="#e2231a"/><rect x="48.83066" y="71.60989" width="1.13237" height="26.48505" fill="#e2231a"/><rect x="54.03283" y="60.98103" width="1.13452" height="38.24601" fill="#e2231a"/><rect x="51.26646" y="60.98103" width="1.13453" height="37.75952" fill="#e2231a"/><rect x="56.7786" y="67.33974" width="1.13237" height="32.29257" fill="#e2231a"/><rect x="59.42791" y="46.37241" width="1.03895" height="53.2599" fill="#e2231a"/><rect x="62.07722" y="67.33974" width="1.13237" height="32.29257" fill="#e2231a"/><rect x="64.72654" y="60.98103" width="1.13236" height="38.38317" fill="#e2231a"/><rect x="67.37585" y="60.98103" width="1.13237" height="37.85069" fill="#e2231a"/><rect x="70.02516" y="71.82089" width="1.13236" height="26.43264" fill="#e2231a"/><rect x="72.67447" y="73.22234" width="1.13237" height="24.13463" fill="#e2231a"/><rect x="75.32379" y="67.09023" width="1.13237" height="29.16242" fill="#e2231a"/><rect x="77.97309" y="76.70011" width="1.13237" height="18.2762" fill="#e2231a"/><rect x="80.62241" y="77.92938" width="1.13237" height="15.54717" fill="#e2231a"/><rect x="83.27171" y="71.74774" width="1.13237" height="19.80006" fill="#e2231a"/><path d="M26.299,21.58956a4.06818,4.06818,0,0,1-.599-1.18772,2.91152,2.91152,0,0,1-.11254-1.24641,3.01908,3.01908,0,0,1,.45074-1.21444,4.62445,4.62445,0,0,1,2.49946-1.805,3.02532,3.02532,0,0,1,1.29452-.046,2.91913,2.91913,0,0,1,1.14783.49884,4.07861,4.07861,0,0,1,.93909.942l3.97332,5.50182a4.07514,4.07514,0,0,1,.59891,1.18772,2.91257,2.91257,0,0,1,.11254,1.24641,3.01566,3.01566,0,0,1-.45064,1.21435,4.624,4.624,0,0,1-2.49946,1.80514,3.01287,3.01287,0,0,1-1.29452.04593,2.90488,2.90488,0,0,1-1.14783-.49874,4.06748,4.06748,0,0,1-.93909-.94206Zm5.77519,4.133a1.90551,1.90551,0,0,0,.85328.7452,1.44259,1.44259,0,0,0,1.5381-1.11082,1.90784,1.90784,0,0,0-.43916-1.0443l-3.90919-5.413a1.90834,1.90834,0,0,0-.85328-.74529,1.44286,1.44286,0,0,0-1.5382,1.11082,1.907,1.907,0,0,0,.43916,1.0444Z" fill="#fff"/><path d="M40.63008,24.09763,35.38323,12.016l2.07495-.90108,4.46207,10.27438,3.263-1.41715.78489,1.80722Z" fill="#fff"/><path d="M48.85733,21.00421,45.7646,8.20068l2.199-.53121L51.05629,20.473Z" fill="#fff"/><path d="M63.40137,6.279l.29317,13.16846-1.96964.04385-.229-10.28675-.03662.00079L59.6456,19.53768l-1.09429.02435L56.2794,9.3208l-.03642.00079.229,10.28665-1.96984.04395L54.209,6.48363l2.97306-.06612,1.77624,7.661.03662-.00079L60.4285,6.34516Z" fill="#fff"/><path d="M66.81448,19.92091,69.89959,7.1156l3.157.76064a4.52746,4.52746,0,0,1,2.79689,1.59333,3.86238,3.86238,0,0,1,.26585,3.14162,5.72611,5.72611,0,0,1-.66037,1.68924,2.82264,2.82264,0,0,1-1.00917.99541,2.98892,2.98892,0,0,1-1.39953.35711,6.98816,6.98816,0,0,1-1.814-.22121l-.9577-.23071-1.26473,5.24983Zm3.89988-6.529.8514.20508a3.94326,3.94326,0,0,0,.91692.12719,1.21065,1.21065,0,0,0,.66235-.17826,1.31681,1.31681,0,0,0,.45767-.53715,4.39663,4.39663,0,0,0,.31732-.92751,4.4158,4.4158,0,0,0,.14-.97017,1.25975,1.25975,0,0,0-.16509-.67779,1.31527,1.31527,0,0,0-.50834-.46024,3.61555,3.61555,0,0,0-.87218-.31336l-.8514-.20518Z" fill="#fff"/><path d="M76.9988,22.98019l5.50647-11.9655,2.055.94572-5.50628,11.9655Z" fill="#fff"/><path d="M83.46416,26.41359l-1.7895-1.26106,9.57046-9.36944,2.29666,1.61827L87.9381,29.5661,86.1486,28.305l1.35321-2.61724-2.02823-1.42913Zm3.41292-3.57633,1.49118,1.05084,2.52688-5.13788-.02969-.02108Z" fill="#fff"/><path d="M43.73855,99.47012l-6.13577,10.82133-1.61876-.91771,4.793-8.45341-.03-.017-6.47169,7.50165-.8993-.50993,3.1143-9.40517-.02989-.017-4.793,8.45341-1.61876-.91791L36.18444,95.1868l2.443,1.38528L36.36023,103.645l.03.017,4.90519-5.57714Z" fill="#fff"/><path d="M43.77863,112.52713l3.561-11.91938,2.047.61168-3.56089,11.91938Z" fill="#fff"/><path d="M51.91195,114.48885l1.32985-12.36873,2.12444.22844L54.23513,112.867l3.34066.35929-.19914,1.85007Z" fill="#fff"/><path d="M64.11024,114.92851l-2.05654.21359.99432-12.61,2.63931-.27417,3.56415,12.13673-2.05654.21359-.66176-2.70286-2.3307.2421Zm.20845-4.664,1.71388-.178L64.64115,104.861l-.03425.00356Z" fill="#fff"/><path d="M74.73619,113.12139l-4.1396-11.73092,1.86848-.65938,4.82136,5.84458.03246-.01148L74.951,99.85375l1.81979-.64216,4.1396,11.73112-1.75486.6192-5.15293-6.422-.03246.01148,2.58587,7.32784Z" fill="#fff"/><path d="M81.55113,100.17048a3.84828,3.84828,0,0,1-.52-1.14358,2.74719,2.74719,0,0,1-.05879-1.18059,2.85345,2.85345,0,0,1,.47133-1.12893A4.36888,4.36888,0,0,1,83.87095,95.109a2.85568,2.85568,0,0,1,1.22335.00574,2.75712,2.75712,0,0,1,1.0642.51428,3.84982,3.84982,0,0,1,.85041.92464l3.5406,5.34277a3.84847,3.84847,0,0,1,.52022,1.14358,2.754,2.754,0,0,1,.05879,1.18059,2.85206,2.85206,0,0,1-.47153,1.12893,4.36749,4.36749,0,0,1-2.42711,1.60837,2.84316,2.84316,0,0,1-1.22335-.00574,2.74538,2.74538,0,0,1-1.0644-.51428,3.84272,3.84272,0,0,1-.85041-.92464Zm5.29308,4.11941a1.80027,1.80027,0,0,0,.77677.73579,1.36226,1.36226,0,0,0,1.49376-.99,1.80108,1.80108,0,0,0-.37473-1.002L85.25662,97.777a1.803,1.803,0,0,0-.777-.73579,1.3631,1.3631,0,0,0-1.49376.99,1.80008,1.80008,0,0,0,.37473,1.002Z" fill="#fff"/><path d="M51.3229,48.20909h-.87v-.5947q.37281-.18631.70131-.39047a5.25622,5.25622,0,0,0,.60356-.435h.55925V53.2864H51.3229Z" fill="#e2231a"/><path d="M55.19282,51.56447v.32843q0,.61229.4705.61243.51468,0,.51481-.61243V50.39279q-.10655.10635-.19973.18637a1.04554,1.04554,0,0,1-.19524.13307.89593.89593,0,0,1-.222.07989,1.34263,1.34263,0,0,1-.28849.02672,1.42113,1.42113,0,0,1-.45264-.071.942.942,0,0,1-.37288-.23082,1.12568,1.12568,0,0,1-.25291-.40833,1.72359,1.72359,0,0,1-.09325-.60356v-.76335a2.424,2.424,0,0,1,.36388-1.48688,1.42906,1.42906,0,0,1,1.1984-.466,1.50784,1.50784,0,0,1,1.19826.42169,2.01938,2.01938,0,0,1,.36388,1.33583v3.07125a2.0193,2.0193,0,0,1-.36388,1.336,1.50735,1.50735,0,0,1-1.19826.42155,1.44963,1.44963,0,0,1-.59034-.09762,1.30426,1.30426,0,0,1-.44827-.29735,1.33028,1.33028,0,0,1-.28849-.45264,1.56119,1.56119,0,0,1-.10211-.57261v-.39047Zm.9853-3.29321q0-.61249-.51481-.61243t-.51494.61243v1.0652a.69737.69737,0,0,0,.12883.4615.41618.41618,0,0,0,.3328.15092.56129.56129,0,0,0,.31071-.10648q.15972-.10655.2574-.18637Z" fill="#e2231a"/><path d="M63.37061,51.43127v.43491a.80122.80122,0,0,0,.11984.4705.43083.43083,0,0,0,.37724.16865.46323.46323,0,0,0,.38161-.17751.92874.92874,0,0,0,.14206-.577v-.48822a.92843.92843,0,0,0-.21746-.71454,1.09249,1.09249,0,0,0-.7234-.19087v-.86983a1.66929,1.66929,0,0,0,.41269-.04444.57369.57369,0,0,0,.27963-.15529.66285.66285,0,0,0,.15529-.30185,1.95084,1.95084,0,0,0,.04894-.47486,1.589,1.589,0,0,0-.09775-.65237.35213.35213,0,0,0-.34616-.19973.48275.48275,0,0,0-.36388.13756.75638.75638,0,0,0-.1332.5193V48.582H62.4119v-.30185a1.75612,1.75612,0,0,1,.09762-.59907,1.28777,1.28777,0,0,1,.293-.4705,1.35945,1.35945,0,0,1,.4705-.31071,1.7,1.7,0,0,1,.639-.111,1.33683,1.33683,0,0,1,.62142.13756,1.38484,1.38484,0,0,1,.44827.364,1.52225,1.52225,0,0,1,.27063.52367,2.14755,2.14755,0,0,1,.08876.61692,2.52771,2.52771,0,0,1-.13307.90091,1.14452,1.14452,0,0,1-.55925.57261,1.84171,1.84171,0,0,1,.395.26627,1.05864,1.05864,0,0,1,.24418.32843,1.41644,1.41644,0,0,1,.11984.42605,4.50554,4.50554,0,0,1,.03108.56811,2.17939,2.17939,0,0,1-.38611,1.42458,1.79417,1.79417,0,0,1-2.28568.08876,1.578,1.578,0,0,1-.3906-1.19377v-.38174Z" fill="#e2231a"/><path d="M68.35,48.5997v-.32843q0-.61249-.47036-.61243-.51487,0-.51494.61243v1.50011q.10655-.10655.19973-.18637a1.03861,1.03861,0,0,1,.19537-.1332.90177.90177,0,0,1,.22182-.07989,1.35107,1.35107,0,0,1,.28849-.02659,1.42254,1.42254,0,0,1,.45277.071.94093.94093,0,0,1,.37275.23082,1.12758,1.12758,0,0,1,.253.4082,1.72559,1.72559,0,0,1,.09312.6037v.76335a2.42424,2.42424,0,0,1-.36388,1.48675,1.4289,1.4289,0,0,1-1.19826.466,1.5071,1.5071,0,0,1-1.1984-.42155,2.01856,2.01856,0,0,1-.36388-1.336V48.54639a2.01864,2.01864,0,0,1,.36388-1.33583,1.50759,1.50759,0,0,1,1.1984-.42169,1.45238,1.45238,0,0,1,.5902.09762,1.30645,1.30645,0,0,1,.44827.29748,1.32205,1.32205,0,0,1,.28849.45714,1.57473,1.57473,0,0,1,.10211.568v.3906Zm-.9853,3.29321q0,.61229.51494.61243.51468,0,.51481-.61243v-1.0652a.69951.69951,0,0,0-.1287-.46163.41761.41761,0,0,0-.33293-.15092.56047.56047,0,0,0-.31058.10661q-.15992.10655-.25754.18637Z" fill="#e2231a"/></svg>