<?xml version="1.0" encoding="UTF-8" standalone="no"?>
<svg xmlns:rdf="http://www.w3.org/1999/02/22-rdf-syntax-ns#" xmlns="http://www.w3.org/2000/svg" height="153.28202" width="133.65293" version="1.1" xmlns:cc="http://creativecommons.org/ns#" xmlns:dc="http://purl.org/dc/elements/1.1/" viewBox="0 0 133.65293 153.28202"><path d="M127.81522,17.80239a10.10686,10.10686,0,0,0-5.68094-6.946C103.26109,2.3809,83.90376-.18571,66.82682.0103c-17.07763-.19609-36.43469,2.37067-55.308,10.846a10.10739,10.10739,0,0,0-5.68114,6.946s-31.474,87.1178,51.74117,133.26628a20.4262,20.4262,0,0,0,18.49556,0C159.28933,104.9202,127.81517,17.80239,127.81522,17.80239Z" fill="#fff" fill-rule="evenodd"/><path d="M75.69177,147.98221a19.57387,19.57387,0,0,1-17.72883,0C-21.80043,103.74783,8.36765,20.24365,8.36765,20.24365a9.68616,9.68616,0,0,1,5.4463-6.658C31.90357,5.461,50.45776,3.00072,66.82682,3.189c16.36914-.18837,34.92306,2.272,53.01345,10.39665a9.68418,9.68418,0,0,1,5.44531,6.658S155.45457,103.74783,75.69177,147.98221Z" fill="#d0061f" fill-rule="evenodd"/><path d="M74.28236,137.68359c6.41736-4.32717,42.14669-30.05163,35.8112-92.964a87.581,87.581,0,0,1,9.8467-3.98486c4.11655,74.38724-37.58258,93.62307-45.6579,96.94883ZM13.18121,40.73468a87.58893,87.58893,0,0,1,9.847,3.98494C16.69247,107.632,52.4221,133.3565,58.8398,137.68359c-8.0754-3.32577-49.7746-22.5616-45.65859-96.94891ZM122.78295,22.658a9.26943,9.26943,0,0,0-5.2117-6.37288C100.255,8.50936,82.49554,6.154,66.82682,6.33492c-15.66814-.18109-33.42769,2.17444-50.74338,9.95015A9.26994,9.26994,0,0,0,10.87065,22.658s-28.87674,79.92887,47.47189,122.26972a18.73569,18.73569,0,0,0,16.96975,0C151.66053,102.58682,122.78295,22.658,122.78295,22.658Z" fill="#fff" fill-rule="evenodd"/><path d="M79.20863,103.45527c-.6264-.05351-.64969-.18787-.64969-.98083l.00007-2.34c0-.7922.0467-.86053.70674-.97734l.18738-.03366c.0839-.05648.07-.25615-.026-.27642-.27816.02027-.78131.03193-1.30549.03193-.48682,0-1.05206-.01166-1.27235-.03193-.10214.02027-.11132.21453-.03514.27642l.19953.03787c.66422.11261.70015.18094.70015.97314v2.34c0,.793-.02232.89968-.70015.98083l-.317.03636c-.075.056-.06979.25024.04133.27452.21109-.02428.89686-.03341,1.38368-.03341.52426,0,1.14415.00913,1.41543.03341.10026-.02428.105-.21854.03938-.27444Z" fill="#d0061f" fill-rule="evenodd"/><path d="M82.62547,98.72a2.20252,2.20252,0,0,0-2.24475,2.23037,1.57727,1.57727,0,0,0,1.50673,1.70155,1.73573,1.73573,0,0,0,1.11965-.39772.18236.18236,0,0,0-.06608-.21509,1.26835,1.26835,0,0,1-.55661.10692c-.76349,0-1.18793-.9598-1.18793-1.66639a1.22763,1.22763,0,0,1,1.16739-1.37526c1.11567,0,1.356,1.18892,1.36269,1.96632a4.78179,4.78179,0,0,1-1.82874,3.80023,5.21293,5.21293,0,0,1-1.63862.87139.18307.18307,0,0,0,.06091.26454,5.67134,5.67134,0,0,0,2.666-1.31863,4.82685,4.82685,0,0,0,1.68267-3.56182C84.66881,99.7231,84.01117,98.72,82.62547,98.72Z" fill="#d0061f" fill-rule="evenodd"/><path d="M90.00473,102.50067c-.26806.549-.52028.565-1.14695.565H87.50033c-.19953,0-.23838-.06952-.22007-.16683l.89151-.97138c.686-.74792,1.033-1.18449,1.033-1.873A1.33381,1.33381,0,0,0,87.72553,98.72a2.1563,2.1563,0,0,0-1.83686,1.289.17467.17467,0,0,0,.22175.17547,1.4216,1.4216,0,0,1,1.18-.79668.98736.98736,0,0,1,1.01071,1.11448,3.33284,3.33284,0,0,1-1.1842,2.03238,8.72685,8.72685,0,0,1-1.15925,1.03325.1621.1621,0,0,0,.071.19827c.2317-.02428.64571-.03341,1.02137-.03341l1.12965,0c.6563,0,1.13762.00918,1.57251.03346.13617-.31879.32595-.74049.53577-1.16893A.20635.20635,0,0,0,90.00473,102.50067Z" fill="#d0061f" fill-rule="evenodd"/><path d="M93.88584,98.69947a1.22561,1.22561,0,0,1-.63187.1678l-.80336.12251a7.27456,7.27456,0,0,0-.75086.13365c-.14228.04678-.3547.38661-.50835.74841a3.00758,3.00758,0,0,0-.25.91916c0,.39524.40908.63259.90978.98358a1.99788,1.99788,0,0,1,.92661,1.59954,2.69158,2.69158,0,0,1-1.82228,2.31056c-.093.08165-.04257.26336.09184.32221.83224-.26454,2.53055-1.31863,2.53055-2.89615a2.5106,2.5106,0,0,0-1.27134-2.0789c-.142-.10669-.35443-.24083-.53852-.37517-.322-.21509-.38935-.34208-.322-.542.04532-.18416.11506-.27766.45068-.32025L93.355,99.586c.36894-.04287.57218-.48162.64964-.739C94.02671,98.7784,93.98407,98.70888,93.88584,98.69947Z" fill="#d0061f" fill-rule="evenodd"/><path d="M87.99212,79.94553c2.587-3.22157,12.37725.98007,12.36658,2.41111a12.4664,12.4664,0,0,1-4.342.89067c-3.186.29479-7.58861-2.71842-8.02462-3.30178ZM96.6447,92.77376c-4.16159-.14973-6.72464-4.05287-6.72942-8.29144a6.08265,6.08265,0,0,1,3.27778,1.722,14.3393,14.3393,0,0,1,3.45164,6.56939Zm-9.14437-.92928c.72062-4.54,1.311-6.60659-1.14668-10.01947a10.42479,10.42479,0,0,0-1.51388-1.78117c-1.52356,2.65479-2.32986,6.2501-.38086,9.13615a7.45849,7.45849,0,0,0,3.04142,2.66449ZM75.82962,73.9602c2.21431-1.13378,3.379-3.36239,5.328-4.69514,3.278-2.23388,6.11351-1.74756,6.71791-1.13967a21.25138,21.25138,0,0,1-4.175,4.94656c-2.5429,1.48344-7.1502,1.62206-7.8709.88825Zm3.4552,16.20772c-.392-.817-1.08327-1.76778-1.45579-2.59344-.81021-1.87-.36376-5.6136.4438-7.344.57344-1.24518,1.88163-1.78075,2.64393-2.81673,2.692,2.58626-.66372,12.3174-1.63193,12.7542ZM69.8973,83.84377c4.22136-.28209,7.616-6.062,6.81361-8.34957A12.97085,12.97085,0,0,0,72.391,76.96177c-1.59437,1.06847-2.19131,4.58926-2.49367,6.882Zm-1.6748-11.9063c.84516.18958,2.6024-.64177,3.10352-.841a8.57845,8.57845,0,0,0,4.5036-4.50093c-2.77619-1.10255-7.53369.8977-10.54762,4.06928a9.02767,9.02767,0,0,0,2.9405,1.2726ZM66.93325,84.7412c-.43061-2.03661-3.43493-6.93048-2.56374-9.73065.23314-.75114.48555-1.55392.82165-2.35951,1.283.57933,2.90956,3.27006,3.22561,4.31073.97311,3.18106-.82986,7.51117-1.48351,7.77943ZM59.94483,69.09753c.28862-3.78521,4.51026-7.327,10.3328-7.96626-.12545,3.55569-3.457,7.14384-6.39493,7.96626a18.83176,18.83176,0,0,1-3.93786,0Zm.172,14.74624c-.51892-2.16456-1.93467-3.70544-2.46249-5.99073a5.36234,5.36234,0,0,1-.09184-2.86669,12.44919,12.44919,0,0,1,1.95142-3.53027c2.8368,1.24434,3.88091,9.61678.60291,12.38769ZM55.03489,67.66131a5.77276,5.77276,0,0,0,2.1586,2.12647c4.23582-5.33052-.32617-12.27615-2.53654-12.57136-1.83265,4.01854-1.78068,6.92578.37794,10.44488ZM50.85751,79.17286c-1.33477.67538-3.19046.59279-5.21079,1.12737,1.84958-8.50257,8.28258-8.97409,9.80341-8.98518a8.62156,8.62156,0,0,1-4.59263,7.85781Zm-6.67415-7.29452a6.69664,6.69664,0,0,0,4.69514-.69369,8.05563,8.05563,0,0,0-2.30241-3.74578c-2.09106-1.64114-3.3196-1.70633-5.4782-1.99783a18.48463,18.48463,0,0,0-4.45465-.742c.56953,2.39151,5.09909,6.3583,7.54013,7.17926Zm-4.56471,7.2445a8.93374,8.93374,0,0,1-2.42252.45692,10.90938,10.90938,0,0,1-3.92791-.67617A37.33944,37.33944,0,0,1,41.111,74.07533a9.51031,9.51031,0,0,1,3.9366-.04905c-.40591,1.36024-4.13086,4.48012-5.42895,5.09657Zm-8.8845-8.73692c.91525-1.14465,6.7464-1.07062,7.75985-.439a21.30558,21.30558,0,0,0,3.502,2.04082c-.43083.77759-2.9496,1.602-4.67709,1.56662-2.4071-.047-5.4728-1.38816-6.58476-3.16841ZM44.83671,57.77725A19.36668,19.36668,0,0,1,50.87377,60.859a7.71189,7.71189,0,0,1,1.39117,3.47233c.42591,1.70413.43138,3.72621-.15391,4.687-2.09229-.21707-6.07817-4.10814-6.75159-6.581a11.62733,11.62733,0,0,1-.52273-4.66ZM79.2708,62.65976a8.09573,8.09573,0,0,0-3.71052,2.92166,12.0243,12.0243,0,0,1,2.18837.51255c-.28806,4.60554-7.40487,7.79571-7.40495,7.83486,8.14943-1.2778,10.441-6.85212,8.92709-11.26908ZM95.74153,71.932c-2.32417-1.41117-8.95447-.83553-11.79644,3.93544,4.7135.59118,6.08257,1.57194,10.39761-2.28412A3.81634,3.81634,0,0,0,95.74153,71.932ZM43.97472,99.837a68.20817,68.20817,0,0,1,.29256-7.89429c.08929-.72609.1452-1.478.23262-2.12667a2.49269,2.49269,0,0,1,.25692-1.01689c2.17916.03878,4.02592.666,6.0875.89193A21.41194,21.41194,0,0,1,54.015,87.40891c.735-.53975,1.6629-1.17088,2.28806-1.6522a.4261.4261,0,0,0,.127-.25742,3.318,3.318,0,0,0-.2564-1.14247A17.858,17.858,0,0,0,52.8762,85.375c-1.70069.58062-3.4829.9422-5.08224,1.39412a36.29975,36.29975,0,0,1-3.67423,1.01769,3.15718,3.15718,0,0,1-2.28039-1.65525c-.48132-1.0954,1.22682-5.31087.8853-7.09457,1.64238-1.64711,2.42792-2.73332,3.16938-3.04368a11.34321,11.34321,0,0,0-1.8,6.02766,28.36371,28.36371,0,0,0,6.332-1.11148,11.11889,11.11889,0,0,0,5.61957-4.16278c.77915,4.32736,2.33063,5.73188,3.44659,9.173,2.38456.10546,4.14378-6.62928,4.18362-6.62928,1.01494,3.95041,2.3608,4.72291,2.89929,7.22876.93678-.1431,1.81542-2.188,2.367-2.29526a7.10619,7.10619,0,0,0,.29107,1.01845c4.06106-.32874,7.0983-3.53539,7.14882-3.53539-1.804,4.3783,2.19473,10.131,2.61945,10.51267,1.54039-.63954,3.471-3.44835,3.80766-3.79553A9.76735,9.76735,0,0,0,85.981,92.6067c.67694.467,1.25921.77346,1.97221,1.21523.72349-.6368,1.23226-2.87293,1.60845-3.31567,1.77476,1.96238,5.504,4.06507,8.19474,3.08892,0,0-.45343-6.51984-4.70011-9.03344.60682.08811,1.4753.32231,2.05237.43539.9549.18458,5.39514-.57373,6.97139-2.41579-1.25156-1.9188-3.76487-4.57411-9.27744-4.90152,1.3664-.44437,4.52927-4.34548,4.76317-6.47119-1.25775-1.14121-3.33341-1.30648-4.86912-1.63966.49649-3.323-2.20812-5.42034-2.54844-5.71012-.12053-.33612-.32741-5.13367-6.484-6.67289-.17448-.05128-1.64879-3.51482-5.32773-5.202a13.991,13.991,0,0,0-11.01491-.397c-8.7614-1.35252-10.87874,2.72293-11.465,3.30753-.26779.27447-3.51237-.33934-6.59768,3.09686-.82957-.09113-4.33773-1.99409-5.5621-1.68863-.4908,1.36907.14454,6.64586.42942,7.63385-2.94911.65778-7.84523-1.25674-8.94632-.28011-.35342,2.1412,1.59281,4.67806,1.59281,4.72038-2.25309-.23165-6.56.03163-7.915,1.05506-.27825.286.49689,2.0324,1.63733,3.15128A9.41738,9.41738,0,0,0,36.30691,75.02c0,.03886-4.69246,2.86823-6.26156,4.92558.46506.28484,3.7832,1.24941,4.121,1.358,1.82854.583,6.95377-1.12755,7.03621-1.12755-.2858,1.39875-1.2357,5.12525-1.26567,5.83508.04014,1.0783,2.15988,2.57119,2.92364,3.05036.00394,2.38948-.24729,9.37052-.24729,9.37052a12.71527,12.71527,0,0,0,.12924,3.4186c1.03184.2019,4.93919-.82194,5.08518-.71946.375.53607.41012,2.3286.62219,3.02581a13.24513,13.24513,0,0,0,1.92227.57715c.19629.61549-.33535,1.65946.01143,2.21676.27444.77193,1.52846.98232,2.26326,1.27859,0,1.40023.05866,2.79539.04952,4.18657.37393.738,3.1379,1.74779,3.90316,2.20168.00007-.03641,6.04379-5.84827,6.05787-5.85837a16.46072,16.46072,0,0,1,2.71129,3.32183c-.90584,2.6048-4.29524,7.3183-4.519,7.60294-.14528.25885.77759.91025.8853,1.08424a22.37329,22.37329,0,0,0,2.74859-3.94524,33.60825,33.60825,0,0,0,2.592-5.10723c-1.01424-1.30725-2.19354-2.55834-3.16029-3.75447.50743-1.46218,1.17237-1.90962,1.96857-3.323a1.325,1.325,0,0,0-1.01865-.35569,89.83587,89.83587,0,0,1-8.367,8.52687c-.40977-.29058-1.75442-.75606-2.2046-.99318-.15716-.8806.18064-3.73442-.122-4.2227-.35609-.88038-1.5441-.78259-2.2519-1.287a2.49493,2.49493,0,0,1-.22645-.14256c.10593-3.11193-.01938-2.29323-1.98169-3.2728a.877.877,0,0,1-.1629-.61378A14.45166,14.45166,0,0,0,49.224,98.846a27.81876,27.81876,0,0,0-5.0563,1.43048c-.08558.02995-.13209.01017-.14746-.02371l-.04554-.126Z" fill="#d0061f" fill-rule="evenodd"/><path d="M22.41,23.45044a1.14354,1.14354,0,0,0-1.6083-.57522c-.69441.25544-1.137.82791-.89141,1.49515l1.8248,4.95891a1.19417,1.19417,0,0,0,1.62129.55c.69426-.25573,1.12361-.80294.87812-1.4699L22.41,23.45044Zm1.78221,8.63938c-2.202.81029-4.37879.40316-5.1752-1.76063l-1.82453-4.95876c-.77626-2.11011.61759-3.89227,2.7797-4.688,2.202-.81,4.41871-.35639,5.19482,1.75323l1.8248,4.95919C27.76821,29.50453,26.35459,31.29392,24.19225,32.08983Z" fill="#d0061f" fill-rule="evenodd"/><path d="M37.15361,25.59a.4255.4255,0,0,1,.55879.28813l.39779,1.4849c.06952.25964-.03866.42794-.34483.50988l-7.14654,1.91531c-.30664.08187-.48407-.00963-.55389-.26927L27.20521,18.84636c-.06982-.25992.03858-.42816.34473-.51038l1.9193-.51424a.40119.40119,0,0,1,.55389.26927l2.22322,8.29681c.08467.31563.33337.428.72119.324Z" fill="#d0061f" fill-rule="evenodd"/><path d="M41.19363,15.56155c.08986-.31134.18859-.46771.66578-.56094l2.0326-.39829c.56012-.10964.59645.29451.52567.48437l-2.12934,6.17343a.9329.9329,0,0,0-.05522.59821l.89391,4.563c.05178.26407-.06776.42472-.37891.48563l-1.95.38185c-.31107.06081-.48239-.04259-.53409-.30637l-.90458-4.61973a.94443.94443,0,0,0-.21685-.44717L34.79276,16.972c-.13709-.14921-.23536-.541.32473-.65083l2.03267-.39826c.3945-.07724.564-.09078.80014.23487l2.045,2.63432c.11258.13464.25192.18564.31525-.0423Z" fill="#d0061f" fill-rule="evenodd"/><path d="M54.61928,13.76756c.12753-.40017.3087-.49669.70815-.53928l1.63961-.17475a.51908.51908,0,0,1,.595.40044l1.16445,10.92994c.02846.26779-.12553.41952-.44078.45321l-1.87076.199c-.31508.03368-.47672-.08439-.50518-.35188L55.395,19.84964c-.0146-.13365-.16557-.15637-.23145.02477a28.75937,28.75937,0,0,1-1.256,3.57378.63128.63128,0,0,1-.57913.35146l-.71476.0762c-.31533.03361-.50862.01557-.69033-.29375L50.039,20.459c-.12748-.199-.2668-.10692-.25222.027l.51087,4.79606c.02841.26759-.10447.41707-.4198.45076l-1.91286.20366c-.31528.03368-.47662-.08432-.50511-.35191L46.2977,14.67333a.53339.53339,0,0,1,.49543-.53577l1.61862-.17253c.48357-.05148.56973-.04131.80558.37794l3.16913,5.402c.12944.21826.23437.2069.3131-.05269Z" fill="#d0061f" fill-rule="evenodd"/><path d="M65.75128,17.49575a1.16888,1.16888,0,0,0,1.26119-1.16024,1.18372,1.18372,0,0,0-1.27508-1.16465l-1.33148.00787c-.42274.00245-.50617.21438-.50468.46407l.00819,1.38345c.00225.3653.19329.47944.51033.47749l1.33153-.008Zm-1.799,6.79367c.00146.269-.14553.40415-.46254.40613L61.503,24.7074c-.31723.00176-.466-.13189-.46751-.40094l-.06531-11.04824c-.00146-.269.1455-.40415.46254-.40611l4.29081-.02554c2.5155-.0146,4.17241,1.41664,4.18533,3.56865.01185,1.99822-1.69188,3.43043-4.14407,3.44481l-1.83854.01089Z" fill="#d0061f" fill-rule="evenodd"/><path d="M71.56238,24.73666c-.317-.01341-.4591-.15421-.44774-.423l.46709-11.03941c.01109-.26883.16473-.3972.48127-.38359l1.98545.08417c.25311.01059.45952.13483.44717.423l-.46674,11.03933c-.01143.26875-.16485.39722-.48189.38361Z" fill="#d0061f" fill-rule="evenodd"/><path d="M81.68329,17.74844c-.04631-.15961-.13268-.14971-.21019-.02272l-.88317,2.6684c-.0837.18438.01109.29135.24224.31634l.94562.10192c.1681.01831.30664-.08264.27051-.33778l-.365-2.72617ZM78.872,24.88609a.46012.46012,0,0,1-.4955.25571l-1.93363-.20893c-.52518-.05668-.49206-.36255-.40641-.56572l4.50613-10.62659a.42537.42537,0,0,1,.4932-.23658l2.0594.22217a.45164.45164,0,0,1,.4316.33642l2.17676,11.3487c.049.1403.04967.52721-.51783.46583l-2.01758-.21784a.43473.43473,0,0,1-.42935-.3556l-.23658-1.74561c-.05121-.31508-.11687-.49592-.516-.539l-1.78644-.19285c-.4412-.048-.54173.09583-.65687.37329Z" fill="#d0061f" fill-rule="evenodd"/><path d="M90.89171,27.00385c-2.45264-.45214-3.84382-2.11553-3.47057-4.13754l.95851-5.19658c.37275-2.022,2.30734-3.07211,4.71843-2.62759A4.61354,4.61354,0,0,1,95.623,16.15261a3.67652,3.67652,0,0,1,1.07934,1.72309.46291.46291,0,0,1-.33337.5249l-1.71215.4264c-.4541.13139-.4955-.11058-.59918-.36426a1.64612,1.64612,0,0,0-1.38474-1.11525,1.1998,1.1998,0,0,0-1.4456.84749l-.95853,5.19651a1.198,1.198,0,0,0,1.05184,1.28819,1.89522,1.89522,0,0,0,1.75372-.53626c.184-.18121.2812-.35842.56827-.16879l1.52383,1.06243a.3817.3817,0,0,1,.03712.61279,5.7851,5.7851,0,0,1-1.13406,1.022A4.35762,4.35762,0,0,1,90.89171,27.00385Z" fill="#d0061f" fill-rule="evenodd"/><path d="M103.6026,21.00223c.18438-.68654-.26707-1.20575-.98153-1.39756a1.181,1.181,0,0,0-1.59092.70659l-1.37083,5.10345a1.19388,1.19388,0,0,0,1.007,1.38449c.71453.1921,1.38078-.00693,1.56536-.69347l1.3709-5.1035Zm-3.52893,8.085c-2.26608-.60853-3.80941-2.197-3.21128-4.42384l1.3709-5.1033c.58334-2.17109,2.75008-2.82269,4.97532-2.225,2.26608.60853,3.81481,2.25809,3.23147,4.4296l-1.37083,5.103C104.48622,29.03905,102.29877,29.685,100.07367,29.08726Z" fill="#d0061f" fill-rule="evenodd"/><path d="M106.481,30.07406c-.12011-.28882-.95938-1.88094-.06019-1.9433l1.65965-.17532c.46947-.05465.58952.1728.64345.45818a1.62806,1.62806,0,0,0,1.1892,1.37133,1.17825,1.17825,0,0,0,1.53893-.58678c.25566-.70483-.12325-1.14858-1.22511-2.14078-1.83188-1.70623-2.789-2.97289-2.13434-4.77961.70065-1.93311,2.7818-2.65039,5.087-1.81505a4.62322,4.62322,0,0,1,2.26774,1.49636,3.381,3.381,0,0,1,.78106,1.9388c.01388.14775-.045.31058-.41527.40121l-1.55323.316c-.271.06539-.43019-.05388-.53711-.31723a2.47392,2.47392,0,0,0-1.34212-1.631,1.17969,1.17969,0,0,0-1.54581.6046c-.20935.57816.2024.99318.66,1.40429a11.41279,11.41279,0,0,1,2.50392,2.70632,3.24639,3.24639,0,0,1,.17567,2.80262c-.70057,1.93313-2.72216,2.67214-5.06689,1.82228A4.41128,4.41128,0,0,1,106.481,30.07406Z" fill="#d0061f" fill-rule="evenodd"/><path d="M36.32206,40.27165a.83467.83467,0,0,0,.58532-1.09386.87478.87478,0,0,0-1.15482-.58831l-1.2085.40957c-.28118.09526-.30342.2146-.23517.41559l.37849,1.11737c.06779.20069.11751.254.44024.14458l1.19444-.40495Zm-1.188-3.138a.78639.78639,0,0,0,.574-1.03395.81718.81718,0,0,0-1.08005-.45957l-1.16618.39517c-.225.076-.23314.19082-.18191.34159l.31008.91636c.07254.21334.20913.29291.40591.22626l1.13819-.38586Zm3.67852,1.28624c.52295,1.54432-.22477,2.80507-1.96736,3.39563l-3.17556,1.07632c-.21089.0715-.33906.01685-.39868-.15889l-2.445-7.21784c-.05942-.17574.00938-.297.22-.36824l3.06318-1.0385c1.68646-.57121,3.04348-.07969,3.53274,1.364a1.43307,1.43307,0,0,1-.39252,1.61637c-.05767.06153-.02673.10692.07049.116A1.72733,1.72733,0,0,1,38.81257,38.41992Z" fill="#d0061f" fill-rule="evenodd"/><path d="M42.42592,34.70084c-.06826-.09251-.12278-.06551-.144.03522l.04378,1.93959c-.01208.13934.07576.18611.2344.14746l.64892-.15736c.11513-.02826.1829-.12649.099-.28343l-.88206-1.68148ZM42.247,39.99545a.32267.32267,0,0,1-.26737.28293l-1.32648.32243c-.3604.08764-.41042-.11855-.4017-.27073l.47818-7.95809c.01213-.13961.09724-.22843.27024-.27053L42.4128,31.758a.31745.31745,0,0,1,.36431.11632L46.884,38.71785c.06531.08.15666.3305-.23242.425l-1.38444.33659a.30534.30534,0,0,1-.36725-.12894l-.567-1.07609c-.10768-.192-.19356-.294-.46759-.22717L42.64,38.3449c-.3032.07383-.33562.19062-.34629.39779Z" fill="#d0061f" fill-rule="evenodd"/><path d="M48.21771,38.34716c-.17253-.13216-1.233-.80061-.70416-1.14485l.95559-.67125a.34929.34929,0,0,1,.55092.05522,1.14723,1.14723,0,0,0,1.1989.41707.82192.82192,0,0,0,.74-.87716c-.08566-.50988-.46974-.6467-1.48468-.866-1.70695-.39868-2.72793-.832-2.94792-2.139-.23482-1.3984.792-2.53877,2.48952-2.82388a3.29239,3.29239,0,0,1,1.90177.12424,2.34551,2.34551,0,0,1,1.14388.89636c.05913.08412.0792.20176-.11659.38242l-.84194.71916a.29942.29942,0,0,1-.43734-.00688,1.7422,1.7422,0,0,0-1.3815-.52077.82318.82318,0,0,0-.73824.89028c.07029.41826.46479.52666.88627.617a8.06488,8.06488,0,0,1,2.46153.76918,2.22261,2.22261,0,0,1,1.07043,1.62107c.23489,1.39853-.74841,2.53134-2.47492,2.82143A3.13564,3.13564,0,0,1,48.21771,38.34716Z" fill="#d0061f" fill-rule="evenodd"/><path d="M57.78551,29.528c.11781-.17126.22942-.24843.62811-.28709l1.22729-.10444c.1624-.01559.35963.01859.37841.21656a.24807.24807,0,0,1-.07078.19307l-1.95291,2.784c-.11934.158-.12375.26464.13092.28021A2.25508,2.25508,0,0,1,60.3621,34.6187l.22695,2.36107c.01782.18465-.09155.28833-.3128.30988l-1.38845.13342c-.22148.02119-.33387-.06118-.35169-.24576l-.22049-2.29553c-.05227-.54047-.5947-.75458-1.12633-.70359-.50219.04821-1.034.40564-.98576.907l.22049,2.295c.01782.18465-.07645.28687-.29823.3084l-1.35868.13063c-.22155.02133-.33387-.06111-.35149-.246l-.72983-7.58467c-.01782-.18458.0767-.287.29845-.30832l1.38823-.13337c.1772-.0171.3326.04772.35161.24576l.19287,2.0051c.01534.15812.13981.21292.2291.05774Z" fill="#d0061f" fill-rule="evenodd"/><path d="M67.33223,35.45866a.29661.29661,0,0,1,.33211.28518l.02084,1.06c.00344.18554-.09858.28041-.321.28489l-5.1919.10167c-.22274.00421-.3282-.08637-.33191-.27192l-.14991-7.61955c-.00344-.18572.09848-.28041.32095-.28462l5.1919-.102c.16332-.003.32817.07331.33191.27207l.02076,1.05991c.004.18569-.0983.28048-.321.28489l-3.07033.06019c-.34132.00668-.399.10046-.395.29942l.01851.94072c.00547.27838.08145.3698.42276.36285l2.418-.0473c.22225-.00441.32817.08645.33161.272l.02084,1.06006c.00371.18557-.09828.28041-.32075.28462l-2.46259.04819c-.341.00668-.36851.11318-.36453.32553l.02106,1.06c.0054.27816.13981.32867.48112.322Z" fill="#d0061f" fill-rule="evenodd"/><path d="M68.77854,30.53875c-.22247-.00891-.33758-.10662-.32966-.292l.04336-1.05907c.00792-.18535.13013-.2734.35238-.26427l5.15978.21158c.1779.00742.32293.09311.31449.29157l-.04329,1.05919c-.00792.18542-.11511.27382-.33785.26464l-1.186-.04856c-.31134-.01284-.3749.09063-.38235.26266l-.246,5.99791c-.00772.18542-.13.273-.35245.26412l-1.379-.05648c-.22225-.00938-.32251-.10612-.31456-.29147l.24581-5.98467c.00814-.19874-.003-.29177-.344-.30587Z" fill="#d0061f" fill-rule="evenodd"/><path d="M78.70325,32.80062a.78678.78678,0,0,0,.95754-.69389.81745.81745,0,0,0-.78405-.87372l-1.22414-.13533c-.23608-.026-.29177.07449-.30931.23264l-.10664.96148c-.02448.22371.06554.35364.27222.37673l1.19439.13209Zm-.251,3.34557a.83442.83442,0,0,0,.99291-.74344.8745.8745,0,0,0-.79747-1.0216l-1.26832-.14038c-.295-.03242-.36557.06608-.38888.277l-.12986,1.17237c-.02329.21089-.001.27991.3383.31731l1.25332.13877Zm3.03969-.6239c-.17941,1.6203-1.39021,2.44626-3.21892,2.24428l-3.33294-.36874c-.221-.02455-.31407-.12825-.2938-.31261l.83806-7.574c.02049-.1847.13387-.26531.35535-.24056l3.21472.35535c1.76951.19579,2.79118,1.21551,2.62358,2.73035a1.4319,1.4319,0,0,1-1.03941,1.29837c-.07794.03116-.069.08558.01507.13483A1.72709,1.72709,0,0,1,81.492,35.52229Z" fill="#d0061f" fill-rule="evenodd"/><path d="M85.97551,33.55424c-.02448-.11231-.08538-.10986-.146-.02673l-.75361,1.78783c-.06776.12236-.00693.20106.15344.23074l.65684.12125c.11654.02173.21849-.04029.20641-.21777l-.11709-1.89531Zm-2.32986,4.75854a.32337.32337,0,0,1-.35961.149l-1.34262-.24856c-.36483-.06729-.326-.27593-.25573-.41126l3.69312-7.06692a.299.299,0,0,1,.35708-.1361l1.43.26454a.31784.31784,0,0,1,.28511.25494l.9469,7.92564c.027.09927.00765.36535-.38636.29253l-1.4007-.25915a.305.305,0,0,1-.28224-.268l-.07717-1.21395c-.01958-.21923-.05648-.3474-.33387-.39871l-1.24013-.2294c-.30644-.05668-.384.0369-.47875.22148Z" fill="#d0061f" fill-rule="evenodd"/><path d="M95.09756,39.48488a.29647.29647,0,0,1,.24128.36507l-.27066,1.025c-.0468.17946-.17112.24259-.38614.18569l-5.02136-1.3241c-.21559-.05695-.29206-.173-.24477-.35238l1.9433-7.36782c.04727-.17918.17146-.24254.38656-.18584l1.34885.35582c.172.04524.29523.15988.2445.35245l-1.51094,5.7274c-.0571.21784.05571.371.3284.44281Z" fill="#d0061f" fill-rule="evenodd"/><path d="M101.87657,41.83359a.29671.29671,0,0,1,.20992.38408l-.35485.9991c-.06215.17475-.19116.22749-.40079.15278l-4.89333-1.73942c-.2094-.07449-.27647-.19671-.21438-.37146l2.55166-7.181c.06217-.175.19077-.22715.40066-.15292l1.31393.46729c.1678.05965.2811.18416.21453.37148l-1.98327,5.58267c-.07556.21208.0244.37421.28994.46848Z" fill="#d0061f" fill-rule="evenodd"/></svg>