<svg width="101" height="137" viewBox="0 0 101 137" fill="none" xmlns="http://www.w3.org/2000/svg">
<g clip-path="url(#clip0_9_58)">
<path fill-rule="evenodd" clip-rule="evenodd" d="M32.0968 3.44049C26.7686 6.02236 22.2554 10.0233 19.0533 15.0035C14.2442 21.919 12.5958 27.1621 12.481 35.5938C14.36 33.1419 16.4955 30.8977 18.8512 28.8994C21.0406 26.9537 23.4107 25.2215 25.9293 23.7261C25.4797 20.9991 25.5483 18.2119 26.1314 15.5103C26.8061 10.9614 28.8928 6.73935 32.0968 3.44049Z" fill="#5C6670" stroke="#5C6670" stroke-width="0.76227" stroke-miterlimit="3.86371"/>
<path fill-rule="evenodd" clip-rule="evenodd" d="M47.7949 1.72171L48.0981 3.14211L47.2891 4.35891C46.6623 6.60086 46.4228 8.93337 46.581 11.2559C46.6024 13.6851 47.0625 16.0904 47.939 18.356C48.0779 18.8876 48.3919 19.3568 48.8304 19.688C49.2688 20.0192 49.806 20.1929 50.3553 20.1812C50.9046 20.1696 51.434 19.9731 51.8579 19.6236C52.2819 19.2741 52.5756 18.7919 52.6919 18.2549C53.7741 15.9061 54.2792 13.3327 54.165 10.7491C54.2007 8.40722 53.7172 6.08648 52.7495 3.95361L52.1426 2.93901L52.5474 1.72171L51.1313 2.33061H48.8061L47.7949 1.72171Z" fill="#5C6670" stroke="#5C6670" stroke-width="0.76227" stroke-miterlimit="3.86371"/>
<path fill-rule="evenodd" clip-rule="evenodd" d="M60.107 1.7168L55.8604 4.5567C56.35 6.61633 56.5877 8.72784 56.568 10.8448C56.6136 12.8855 56.4442 14.9254 56.0626 16.9307C57.3263 17.1607 58.047 17.251 59.2979 17.5391C60.6876 17.8584 61.4767 18.0274 62.838 18.4517C63.2972 15.3482 63.1945 12.1874 62.5348 9.1202C62.0992 6.54514 61.2809 4.04972 60.107 1.7168Z" fill="#5C6670" stroke="#5C6670" stroke-width="0.76227" stroke-miterlimit="3.86371"/>
<path fill-rule="evenodd" clip-rule="evenodd" d="M63.6455 2.62891C66.937 5.25427 69.4174 8.7584 70.7993 12.7354C72.1279 15.8862 72.7246 19.2972 72.5444 22.7119C71.5103 22.0572 70.4287 21.4807 69.3086 20.9873C68.1341 20.4194 66.9168 19.9447 65.668 19.5674C65.8644 17.2789 65.8504 14.9773 65.626 12.6914C65.3975 9.26653 64.7319 5.88494 63.6455 2.62891Z" fill="#5C6670" stroke="#5C6670" stroke-width="0.76227" stroke-miterlimit="3.86371"/>
<path fill-rule="evenodd" clip-rule="evenodd" d="M39.9848 1.41211L44.0297 4.65771C43.5027 6.6763 43.2642 8.75934 43.3212 10.8448C43.2724 13.0366 43.5452 15.2238 44.1307 17.3365C43.1747 17.3656 42.225 17.5015 41.2992 17.7417C40.5034 17.9049 39.7248 18.1426 38.9735 18.4517C38.0728 15.4284 37.7977 12.2533 38.1649 9.12021C38.3195 6.46468 38.9353 3.85634 39.9848 1.41211Z" fill="#5C6670" stroke="#5C6670" stroke-width="0.76227" stroke-miterlimit="3.86371"/>
<path fill-rule="evenodd" clip-rule="evenodd" d="M36.9512 1.91901C33.688 4.63581 31.3257 8.2786 30.1763 12.3662C29.0986 15.3863 28.7184 18.611 29.064 21.7989C30.1818 21.105 31.3676 20.5273 32.603 20.0747C33.7499 19.6053 34.9338 19.2321 36.1426 18.959C35.5613 16.6728 35.2892 14.319 35.3335 11.9605C35.2529 8.54249 35.8012 5.13877 36.9512 1.91901Z" fill="#5C6670" stroke="#5C6670" stroke-width="0.76227" stroke-miterlimit="3.86371"/>
<path fill-rule="evenodd" clip-rule="evenodd" d="M68.2969 3.44049C73.5467 6.05951 77.9859 10.0563 81.1396 15.0035C85.9214 21.938 87.5776 27.1626 87.7124 35.5938C85.7833 33.185 83.652 30.9454 81.3418 28.8994C79.5917 27.2866 77.7331 25.7955 75.7793 24.4366C75.5786 21.4015 75.0015 18.4031 74.0615 15.5103C72.8674 11.1783 70.9157 7.09199 68.2969 3.44049Z" fill="#5C6670" stroke="#5C6670" stroke-width="0.76227" stroke-miterlimit="3.86371"/>
<path fill-rule="evenodd" clip-rule="evenodd" d="M49.677 82.917L49.769 102.927L46.999 105.883L37.876 82.826L49.635 82.833" fill="#FFF200"/>
<path d="M49.677 82.917L49.769 102.927L46.999 105.883L37.876 82.826L49.635 82.833" stroke="#FFF200" stroke-width="0.27756" stroke-miterlimit="3.8636"/>
<path fill-rule="evenodd" clip-rule="evenodd" d="M26.127 82.793L36.378 103.173L34.192 107.607L18.03 82.793H26.127Z" fill="#FFF200" stroke="#FFF200" stroke-width="0.27756" stroke-miterlimit="3.8636"/>
<path fill-rule="evenodd" clip-rule="evenodd" d="M58.6119 111.078L55.3799 107.152L62.0749 82.908H72.3499L58.6119 111.078Z" fill="#FFF200" stroke="#FFF200" stroke-width="0.27756" stroke-miterlimit="3.8636"/>
<path fill-rule="evenodd" clip-rule="evenodd" d="M6.59912 82.386L17.4751 81.828L34.3551 107.764L31.9881 112.815L6.59912 82.386Z" fill="#ED1C24" stroke="#ED1C24" stroke-width="0.87735" stroke-miterlimit="3.86369"/>
<path fill-rule="evenodd" clip-rule="evenodd" d="M27.5181 82.043L37.3461 81.828L47.1751 106.478L42.2611 111.407L27.5181 82.043Z" fill="#ED1C24" stroke="#ED1C24" stroke-width="0.87735" stroke-miterlimit="3.86369"/>
<path fill-rule="evenodd" clip-rule="evenodd" d="M50.8069 81.828L61.9189 82.686L54.8669 108.192L50.3799 103.477L50.8069 81.828Z" fill="#ED1C24" stroke="#ED1C24" stroke-width="0.87735" stroke-miterlimit="3.86369"/>
<path fill-rule="evenodd" clip-rule="evenodd" d="M74.0979 81.828L84.1409 82.686L66.192 107.764L62.7729 103.691L74.0979 81.828Z" fill="#ED1C24" stroke="#ED1C24" stroke-width="0.87735" stroke-miterlimit="3.86369"/>
<path d="M92.835 82.821H84.31L66.24 107.945L68.424 112.071L92.835 82.821Z" fill="#FFF200" stroke="#FFF200" stroke-width="0.27756" stroke-miterlimit="3.8636"/>
<path fill-rule="evenodd" clip-rule="evenodd" d="M26.1616 83.0352L36.2202 103.036L32.0537 111.905L7.8877 83.0352H26.1616ZM28.3638 83.0352L42.2915 110.834L49.6133 102.738V83.0352H28.3638ZM51.5776 83.0352V102.738L58.4819 110.893L72.2305 83.0342L51.5776 83.0352ZM74.4302 83.0342H92.3491L68.3032 111.964L63.9585 104.047L74.4302 83.0342ZM63.1064 106.296L59.9214 112.666L63.8545 119.322L67.1352 113.781L63.1064 106.296ZM51.7056 105.835L51.6577 112.953L54.7632 118.542L57.5815 112.809L51.7056 105.835ZM49.6836 105.739V112.539L46.3076 118.669L43.2983 112.762L49.6836 105.739ZM37.4385 105.373L33.5693 113.685L36.8813 119.465L40.9892 112.443L37.4385 105.373ZM33.5215 117.523V125.055L35.7349 121.265L33.5215 117.523ZM42.0561 114.513L45.2407 120.755L41.5464 127.316L37.9482 121.344L42.0561 114.513ZM67.1352 117.65V124.768L65.001 121.217L67.1352 117.65ZM58.8711 114.752L55.957 120.564L59.3808 126.807L62.6924 121.17L58.8711 114.752ZM50.6074 114.879L47.3266 120.803L50.6074 127.125L53.7915 120.66L50.6074 114.879ZM50.9697 69.334L59.582 69.336C59.4282 67.9239 59.3359 66.5655 59.2676 65.2452H50.9599L50.9697 69.334ZM89.5083 65.2452H61.1592C61.2412 66.9395 61.373 68.3374 61.4907 69.3365L89.144 69.3433C89.3422 67.9852 89.4638 66.617 89.5083 65.2452ZM89.5522 63.2535C89.5045 57.1883 88.052 51.2166 85.3085 45.807C82.5651 40.3975 78.6054 35.6973 73.7402 32.0752C62.5669 39.4766 60.9233 54.1714 61.0869 63.2408L89.5522 63.2535ZM72.1186 30.8955C72.1186 30.8955 58.6538 38.8765 59.1948 63.2452L50.9575 63.2408L50.9585 24.2124C58.5066 24.3661 65.8515 26.6859 72.1186 30.8955ZM39.2593 69.3433L11.3086 69.3247C11.1038 67.9662 10.9719 66.5977 10.9136 65.2251L39.7544 65.2452C39.6509 66.5645 39.488 67.9274 39.2656 69.334L39.2593 69.3433ZM41.2099 69.3487C41.3725 68.3448 41.5561 66.9434 41.6714 65.2452H49.1133L49.1084 69.3492L41.2099 69.3487ZM49.1191 63.2393L41.7749 63.2408C41.9941 54.7935 39.7173 41.1543 27.6162 31.2842C33.9277 26.8514 41.4128 24.3914 49.1235 24.2159L49.1191 63.2393ZM26.1352 32.3662C26.4131 32.5503 40.6343 42.0616 39.8682 63.2408L10.8799 63.2305C10.9153 57.2677 12.3071 51.3911 14.9498 46.0458C17.5925 40.7005 21.4169 36.0266 26.1333 32.378L26.1352 32.3662ZM2.0122 76.1128C2.0122 73.3946 4.5762 71.1905 7.7388 71.1905H92.624C95.7866 71.1905 98.3506 73.3946 98.3506 76.1128C98.3506 78.8316 95.7866 81.0347 92.624 81.0347H7.7388C4.5762 81.0347 2.0122 78.8316 2.0122 76.1128ZM4.8921 82.4273L31.4839 114.242V136.552H33.4263V128.924L36.8335 123.16L40.623 129.577V136.456H42.6133V129.338L46.2602 122.777L49.6836 129.625V136.552H51.6577V129.243L54.8901 122.698L58.4097 128.877V136.456H60.352V128.877L63.8071 123.017L67.1831 128.414V136.504H69.0776V114.242L95.4658 82.4366C96.8512 82.0336 98.0728 81.2009 98.9544 80.0588C99.836 78.9166 100.332 77.5239 100.371 76.0816C100.371 72.3604 97.0747 69.3433 93.0078 69.3433H90.9907C91.8173 63.5026 91.38 57.5525 89.7082 51.8954C88.0365 46.2383 85.1693 41.0062 81.3007 36.553C77.4321 32.0998 72.6522 28.5293 67.2844 26.0831C61.9167 23.6368 56.0861 22.3719 50.1872 22.3738C44.2883 22.3757 38.4586 23.6444 33.0923 26.0941C27.7261 28.5439 22.9486 32.1174 19.0829 36.5731C15.2171 41.0289 12.3534 46.2628 10.6853 51.921C9.01722 57.5791 8.58371 63.5295 9.4141 69.3697L7.3623 69.3433C3.2959 69.3433 0 72.3604 0 76.0821C0.0376981 77.5098 0.523943 78.8893 1.38977 80.0251C2.25559 81.1608 3.45704 81.9952 4.8237 82.4097L4.8921 82.4273Z" fill="#5C6670"/>
<path fill-rule="evenodd" clip-rule="evenodd" d="M50.9698 69.334L59.5821 69.336C59.4283 67.9239 59.336 66.5655 59.2677 65.2452H50.96L50.9698 69.334Z" fill="#F47920"/>
<path fill-rule="evenodd" clip-rule="evenodd" d="M89.5083 65.2452H61.1592C61.2412 66.9395 61.373 68.3374 61.4907 69.3365L89.144 69.3433C89.3422 67.9852 89.4638 66.617 89.5083 65.2452Z" fill="#F47920"/>
<path fill-rule="evenodd" clip-rule="evenodd" d="M89.5522 63.2535C89.5045 57.1882 88.052 51.2165 85.3085 45.807C82.5651 40.3975 78.6054 35.6972 73.7402 32.0752C62.5669 39.4766 60.9233 54.1714 61.0869 63.2408L89.5522 63.2535Z" fill="#F47920"/>
<path fill-rule="evenodd" clip-rule="evenodd" d="M72.1186 30.8955C72.1186 30.8955 58.6538 38.8765 59.1948 63.2452L50.9575 63.2408L50.9585 24.2124C58.5066 24.3661 65.8515 26.6859 72.1186 30.8955Z" fill="#F47920"/>
<path fill-rule="evenodd" clip-rule="evenodd" d="M39.2593 69.3433L11.3086 69.3247C11.1037 67.9662 10.9719 66.5977 10.9136 65.2251L39.7544 65.2452C39.6509 66.5645 39.4879 67.9274 39.2656 69.334L39.2593 69.3433Z" fill="#F47920"/>
<path fill-rule="evenodd" clip-rule="evenodd" d="M41.21 69.3487C41.3726 68.3448 41.5562 66.9434 41.6715 65.2452H49.1134L49.1085 69.3492L41.21 69.3487Z" fill="#F47920"/>
<path fill-rule="evenodd" clip-rule="evenodd" d="M49.1191 63.2393L41.7749 63.2408C41.9941 54.7935 39.7173 41.1543 27.6162 31.2842C33.9277 26.8514 41.4128 24.3914 49.1235 24.2159L49.1191 63.2393Z" fill="#F47920"/>
<path fill-rule="evenodd" clip-rule="evenodd" d="M26.1352 32.3662C26.4131 32.5503 40.6343 42.0616 39.8682 63.2408L10.8799 63.2305C10.9153 57.2677 12.3071 51.3911 14.9498 46.0458C17.5925 40.7005 21.4169 36.0266 26.1333 32.378L26.1352 32.3662Z" fill="#F47920"/>
<path fill-rule="evenodd" clip-rule="evenodd" d="M2.01221 76.1128C2.01221 73.3946 4.57621 71.1905 7.73881 71.1905H92.624C95.7866 71.1905 98.3506 73.3946 98.3506 76.1128C98.3506 78.8316 95.7866 81.0347 92.624 81.0347H7.73881C4.57621 81.0347 2.01221 78.8316 2.01221 76.1128Z" fill="#0082CA"/>
<path d="M49.1201 63.2408H49.0537" stroke="#ED1C24" stroke-width="0.1245" stroke-miterlimit="3.86369"/>
<path fill-rule="evenodd" clip-rule="evenodd" d="M92.3042 74.3565H93.7305V72.8941H89.1514V74.3565H90.5786V79.5342H92.3042V74.3565ZM88.3076 74.3565V72.8941H84.5298V79.5342H88.3076V78.0723H86.2558V76.9278H88.2021V75.4659H86.2558V74.3565H88.3076ZM79.3081 75.6328L79.29 72.8941H77.5644V79.5342H79.29V76.6543L81.5361 79.5342H83.7724L80.8935 76.0381L83.5347 72.8941H81.395L79.3081 75.6328ZM76.1821 73.2642C75.5432 72.9188 74.8307 72.7316 74.1045 72.7183C73.804 72.6988 73.5027 72.7426 73.2202 72.8468C72.9377 72.951 72.6802 73.1134 72.4643 73.3234C72.2485 73.5334 72.0791 73.7863 71.9672 74.0659C71.8552 74.3454 71.8032 74.6454 71.8144 74.9463C71.8144 76.2315 72.5273 76.5132 73.6108 76.8223C73.9809 76.9278 74.6587 77.0948 74.6587 77.5791C74.6587 78.0454 74.2275 78.2481 73.8223 78.2481C73.2448 78.2142 72.6997 77.97 72.29 77.5616L71.5503 78.9527C72.2325 79.4377 73.0468 79.7022 73.8838 79.7105C74.5658 79.729 75.2326 79.5077 75.7681 79.085C76.0068 78.8557 76.1921 78.5767 76.3108 78.2677C76.4295 77.9588 76.4788 77.6275 76.4551 77.2974C76.4551 76.2232 75.7417 75.7564 74.8169 75.4829L74.3769 75.3511C74.0776 75.2544 73.6108 75.1045 73.6108 74.7173C73.6108 74.3472 74.0332 74.1626 74.3506 74.1626C74.7716 74.172 75.1762 74.3275 75.4951 74.6026L76.1821 73.2642ZM68.751 78.3804L69.1826 79.5342H71.0229L68.522 72.8941H66.6372L64.084 79.5342H65.9155L66.3735 78.3804H68.751ZM68.2847 77.0596H66.8491L67.5625 74.9463L68.2847 77.0596ZM61.0918 79.5342C62.3071 79.5342 63.4956 79.0757 63.4956 77.6851C63.5233 77.4841 63.5098 77.2796 63.4558 77.0841C63.4018 76.8885 63.3085 76.706 63.1816 76.5478C63.0547 76.3895 62.8968 76.2588 62.7176 76.1636C62.5385 76.0684 62.3418 76.0108 62.1396 75.9942C62.3819 75.8611 62.5802 75.6603 62.71 75.4162C62.8399 75.1721 62.8957 74.8955 62.8706 74.6202C62.8706 73.3521 62.0781 72.8941 60.8979 72.8941H58.4321V79.5342H61.0918ZM60.1582 76.7867H60.3345C60.8979 76.7867 61.7519 76.7071 61.7519 77.5088C61.7519 78.2398 60.8891 78.2134 60.3784 78.2134H60.1582V76.7867ZM60.1582 74.2154H60.2817C60.748 74.2154 61.2851 74.25 61.2851 74.8579C61.2851 75.4219 60.81 75.501 60.352 75.501H60.1582V74.2154ZM52.0244 78.3804L52.456 79.5342H54.2959L51.7954 72.8941H49.9106L47.3569 79.5342H49.189L49.6465 78.3804H52.0244ZM51.5576 77.0596H50.1221L50.8359 74.9463L51.5576 77.0596ZM46.5371 72.8941H44.8115V79.5342H46.5371V72.8941ZM43.4546 73.0528C42.9569 72.8368 42.4209 72.7231 41.8784 72.7183C40.9271 72.7282 40.0184 73.1144 39.3511 73.7925C38.7206 74.4441 38.3697 75.3164 38.3735 76.2232C38.3585 76.6937 38.446 77.1619 38.6301 77.5952C38.8142 78.0286 39.0903 78.4166 39.4394 78.7325C40.1185 79.3585 41.0075 79.7074 41.9311 79.7105C42.4522 79.6896 42.9665 79.5854 43.4546 79.4019V77.333C43.2712 77.5499 43.0435 77.7249 42.7868 77.8464C42.5301 77.9678 42.2503 78.0329 41.9663 78.0371C41.7268 78.0477 41.4877 78.0082 41.2643 77.9211C41.0409 77.834 40.8382 77.7012 40.6691 77.5313C40.5 77.3613 40.3683 77.1579 40.2823 76.9341C40.1963 76.7103 40.1581 76.471 40.1699 76.2315C40.1574 75.9925 40.1941 75.7535 40.2777 75.5292C40.3613 75.305 40.4901 75.1003 40.656 74.9278C40.8219 74.7553 41.0215 74.6187 41.2423 74.5265C41.4632 74.4343 41.7006 74.3884 41.9399 74.3916C42.2319 74.3868 42.521 74.4504 42.784 74.5774C43.047 74.7043 43.2767 74.891 43.4546 75.1226V73.0528ZM30.6592 79.5342H32.3852V75.4659L35.564 79.5342H37.29V72.8941H35.564V76.9536L32.3852 72.8941H30.6592V79.5342ZM29.3047 74.3565V72.8941H25.5268V79.5342H29.3047V78.0723H27.2524V76.9278H29.1992V75.4659H27.2524V74.3565H29.3047ZM22.604 72.8941H20.8784V79.5342H24.6738V78.0723H22.604V72.8941ZM17.7798 78.3804L18.2114 79.5342H20.0513L17.5508 72.8941H15.6665L13.1128 79.5342H14.9438L15.4018 78.3804H17.7798ZM17.313 77.0596H15.8779L16.5913 74.9463L17.313 77.0596ZM8.69142 72.8941H6.81592L9.60742 79.5342H10.9458L13.7817 72.8941H11.9057L10.2939 76.9278L8.69142 72.8941Z" fill="#022169"/>
</g>
<defs>
<clipPath id="clip0_9_58">
<rect width="101" height="137" fill="white"/>
</clipPath>
</defs>
</svg>
