<svg width="222" height="220" viewBox="0 0 222 220" fill="none" xmlns="http://www.w3.org/2000/svg">
<g clip-path="url(#clip0_9_2)">
<path d="M221.855 64.4387L211.805 65.9166L205.154 58.3791L203.085 68.4291L193.774 72.7152L202.789 77.4446L203.676 87.4947L211.066 80.4005L221.116 82.4697L216.682 73.3064L221.855 64.4387Z" fill="#FFF200"/>
<path d="M190.818 41.3826L192.591 31.3326L183.724 36.062L174.708 31.3326L176.334 41.3826L169.092 48.6246L178.994 50.1025L183.428 59.118L188.01 49.9547L198.06 48.4768L190.818 41.3826Z" fill="#FFF200"/>
<path d="M154.312 8.27653L147.514 15.8141L137.464 14.4839L142.489 23.3516L138.055 32.5149L147.957 30.4458L155.051 37.54L156.234 27.4899L165.101 22.6127L155.938 18.3266L154.312 8.27653Z" fill="#FFF200"/>
<path d="M0.309692 64.4387L10.3598 65.9166L17.1583 58.3791L19.0797 68.4291L28.3908 72.7152L19.5231 77.4446L18.4885 87.4947L11.0987 80.4005L1.19647 82.4697L5.48252 73.3064L0.309692 64.4387Z" fill="#FFF200"/>
<path d="M31.3467 41.3826L29.5732 31.3326L38.5887 36.062L47.4564 31.3326L45.8307 41.3826L53.0726 48.6246L43.1703 50.1025L38.7365 59.118L34.1548 49.9547L24.2526 48.4768L31.3467 41.3826Z" fill="#FFF200"/>
<path d="M67.9998 8.27653L74.7984 15.8141L84.7007 14.4839L79.8234 23.3516L84.2573 32.5149L74.355 30.4458L67.1131 37.54L65.9307 27.4899L57.063 22.6127L66.2263 18.3266L67.9998 8.27653Z" fill="#FFF200"/>
<path d="M111.747 0L116.329 9.1633L126.379 10.3457L119.137 17.5876L121.058 27.7855L112.043 23.2038L103.175 28.0811L104.801 17.8832L97.4111 10.9368L107.461 9.31109L111.747 0Z" fill="#FFF200"/>
<path d="M200.72 129.616C200.72 179.571 160.963 220.067 111.895 220.067C62.827 220.067 23.0701 179.571 23.0701 129.616C23.0701 79.6616 62.827 39.1657 111.895 39.1657C160.963 39.1657 200.72 79.6616 200.72 129.616Z" fill="#F7921E"/>
<path d="M109.53 34.8797H113.077V97.2492H109.235L109.53 34.8797Z" fill="#030303"/>
<path d="M145.888 51.5805C145.888 51.5805 176.481 58.3791 189.635 95.3279C189.635 95.3279 176.186 64.8821 145.888 51.5805Z" fill="#030303"/>
<path d="M78.4932 51.2849C78.4932 51.2849 47.8996 58.0835 34.7458 95.0323C34.7458 95.0323 48.1952 64.5865 78.4932 51.2849Z" fill="#030303"/>
<path d="M69.6255 41.826C69.6255 41.826 100.071 32.6627 92.2382 58.2313C92.2382 58.2313 91.647 63.5519 78.0498 83.2086C78.0498 83.2086 64.3049 102.865 54.6982 124.443C54.6982 124.443 29.1296 172.181 74.3549 200.262C74.3549 200.262 24.6958 180.31 51.2989 122.374C51.2989 122.374 62.2357 97.397 78.641 74.9321C78.641 74.9321 93.4205 54.6842 88.2477 47.4422C88.2477 47.4422 83.666 41.5304 69.4777 42.1216L69.6255 41.826Z" fill="#030303"/>
<path d="M153.13 41.826C153.13 41.826 123.275 32.6627 131.108 58.2313C131.108 58.2313 131.699 63.5519 145.297 83.2086C145.297 83.2086 159.042 102.865 168.648 124.443C168.648 124.443 194.217 172.181 148.992 200.262C148.992 200.262 198.651 180.31 172.048 122.374C172.048 122.374 161.111 97.397 144.705 74.9321C144.705 74.9321 129.926 54.6842 135.099 47.4422C135.099 47.4422 139.089 41.5304 153.13 42.1216V41.826Z" fill="#030303"/>
<path d="M111.747 96.0668C111.747 96.0668 126.674 86.7557 132.143 104.491C132.143 104.491 135.247 113.359 124.014 123.852C124.014 123.852 117.511 130.207 120.024 132.129C120.024 132.129 121.649 133.163 125.935 126.513C125.935 126.513 139.976 104.343 151.356 116.315C151.356 116.315 155.495 121.044 153.13 131.242C153.13 131.242 151.652 137.597 153.425 139.962C153.425 139.962 158.598 147.5 155.495 154.003C155.199 154.446 151.061 166.122 138.794 161.54C138.794 161.54 131.699 158.88 127.118 154.446C127.118 154.446 120.763 147.204 117.807 147.795C114.851 148.386 114.555 157.402 114.26 162.427C114.26 162.427 114.851 179.571 116.477 182.379C116.477 182.379 116.477 184.153 112.338 182.084C112.338 182.084 105.835 179.423 105.392 175.285C105.392 175.285 108.643 159.028 108.496 155.037C108.496 155.037 109.974 144.1 104.801 146.908C104.801 146.908 100.515 150.899 95.3419 156.958C95.3419 156.958 86.3264 167.156 76.1285 163.018C76.1285 163.018 64.1571 159.323 69.6255 143.213C69.6255 143.213 71.1035 139.519 70.2167 134.494C70.2167 134.494 65.4873 122.374 73.3204 117.793C73.3204 117.793 82.1881 112.62 88.0999 119.123C88.0999 119.123 93.4205 125.182 96.2287 128.73C96.2287 128.73 101.993 135.528 103.323 131.833C103.323 131.833 104.653 129.469 95.3419 122.079C95.3419 122.079 83.0749 111.881 88.6911 101.979C88.6911 101.979 94.1595 90.894 106.722 95.4756C106.722 95.4756 109.974 96.8058 111.747 95.919V96.0668Z" fill="#006940"/>
<path d="M90.0213 147.056H86.622V134.494H81.4492V147.056H78.0499V131.538H90.1691V147.056H90.0213Z" fill="white"/>
<path d="M108.643 116.906L107.609 120.896H104.062L108.791 105.378H113.373L118.102 120.896H114.407L113.225 116.906H108.791H108.643ZM112.486 114.246L111.599 110.994C111.304 110.107 111.008 108.925 110.86 108.038C110.713 108.925 110.417 110.107 110.121 110.994L109.235 114.246H112.634H112.486Z" fill="white"/>
<path d="M139.089 147.352C134.655 147.352 131.847 143.805 131.847 139.371C131.847 134.937 134.803 131.242 139.237 131.242C143.671 131.242 146.479 134.789 146.479 139.075C146.479 143.361 143.523 147.204 138.941 147.204L139.089 147.352ZM139.385 144.544C141.75 144.544 143.08 142.327 143.08 139.223C143.08 136.119 141.75 134.05 139.385 134.05C137.02 134.05 135.69 136.415 135.69 139.371C135.69 142.327 137.02 144.544 139.385 144.544Z" fill="white"/>
<path d="M96.672 200.41L94.0117 201.001V198.637L97.7066 197.75L100.071 198.193L97.5588 211.051L94.7507 210.46L96.8198 200.262L96.672 200.41Z" fill="#006940"/>
<path d="M102.732 209.869H104.062C104.949 209.869 105.983 209.721 106.722 209.278C107.609 208.835 108.2 207.948 108.496 207.061C107.904 207.652 107.018 207.8 105.835 207.8C103.618 207.652 101.993 205.879 102.14 203.366C102.288 200.854 104.505 198.784 107.461 199.08C110.713 199.376 112.043 202.036 111.895 205.14C111.599 207.948 110.565 209.721 109.087 210.904C107.757 211.938 105.983 212.382 104.062 212.234C103.618 212.234 103.027 212.234 102.732 212.234V209.869ZM107.165 201.297C106.131 201.297 105.392 202.036 105.244 203.366C105.244 204.548 105.688 205.583 106.87 205.583C107.757 205.583 108.348 205.287 108.643 204.844C108.643 204.696 108.791 204.401 108.791 204.105C108.791 202.775 108.496 201.297 107.165 201.149V201.297Z" fill="#006940"/>
<path d="M117.363 212.973C113.964 212.973 112.486 210.165 112.338 206.322C112.338 202.479 113.669 199.523 116.92 199.376C120.319 199.376 121.797 202.332 121.945 205.879C121.945 209.869 120.615 212.825 117.363 212.973ZM117.216 210.608C118.398 210.608 118.989 208.982 118.841 206.026C118.841 203.07 118.102 201.593 116.92 201.593C115.738 201.593 115.146 203.07 115.294 206.174C115.294 209.13 116.181 210.608 117.363 210.608H117.216Z" fill="#006940"/>
<path d="M126.083 198.341C129.039 197.75 130.517 199.376 130.813 200.854C130.961 202.036 130.665 203.218 129.483 204.105C130.813 204.401 132.143 205.287 132.439 206.913C132.882 209.278 131.256 211.199 128.3 211.79C125.049 212.382 123.275 210.756 122.98 208.982C122.684 207.504 123.423 206.174 124.605 205.287C123.275 204.844 122.536 203.809 122.241 202.775C121.797 200.558 123.571 198.784 126.083 198.341ZM126.231 200.41C125.197 200.558 124.901 201.445 124.901 202.184C125.049 203.071 125.936 203.514 126.97 203.662C127.561 203.366 128.152 202.627 128.005 201.74C128.005 200.854 127.266 200.262 126.231 200.41ZM128.005 209.573C129.039 209.426 129.63 208.539 129.483 207.652C129.335 206.47 128.3 206.026 127.118 205.879C126.231 206.322 125.788 207.209 125.936 208.096C125.936 208.982 126.97 209.721 128.005 209.573Z" fill="#006940"/>
<path d="M17.306 130.799C17.306 130.799 40.5099 65.9166 111.599 65.9166C111.599 65.9166 182.541 62.5173 206.779 131.833C206.779 131.833 180.324 67.5424 111.747 69.7593C111.747 69.7593 52.7769 63.5519 17.306 130.799Z" fill="#030303"/>
</g>
<defs>
<clipPath id="clip0_9_2">
<rect width="222" height="220" fill="white"/>
</clipPath>
</defs>
</svg>
