<?xml version="1.0" encoding="UTF-8"?>
<svg xmlns="http://www.w3.org/2000/svg" xmlns:xlink="http://www.w3.org/1999/xlink" width="141.732pt" height="201.081pt" viewBox="0 0 141.732 201.081" version="1.1">
<g id="surface1">
<path style=" stroke:none;fill-rule:nonzero;fill:rgb(69.412231%,71.372986%,72.941589%);fill-opacity:1;" d="M 45.628906 39.820312 L 38.65625 35.570312 L 31.722656 39.878906 L 33.613281 31.9375 L 27.367188 26.675781 L 35.507812 26.015625 L 38.582031 18.457031 L 41.722656 25.992188 L 49.867188 26.578125 L 43.667969 31.894531 Z M 45.628906 39.820312 "/>
<path style=" stroke:none;fill-rule:nonzero;fill:rgb(69.412231%,71.372986%,72.941589%);fill-opacity:1;" d="M 109.71875 39.820312 L 102.75 35.570312 L 95.816406 39.878906 L 97.703125 31.9375 L 91.460938 26.675781 L 99.597656 26.015625 L 102.675781 18.457031 L 105.816406 25.992188 L 113.957031 26.578125 L 107.761719 31.894531 Z M 109.71875 39.820312 "/>
<path style=" stroke:none;fill-rule:nonzero;fill:rgb(76.470947%,57.255554%,18.03894%);fill-opacity:1;" d="M 79.691406 30.585938 L 70.714844 25.113281 L 61.789062 30.664062 L 64.21875 20.4375 L 56.183594 13.664062 L 66.660156 12.816406 L 70.617188 3.078125 L 74.664062 12.78125 L 85.144531 13.535156 L 77.167969 20.382812 Z M 79.691406 30.585938 "/>
<path style=" stroke:none;fill-rule:nonzero;fill:rgb(0.784302%,0%,0%);fill-opacity:1;" d="M 71.480469 49.074219 C 109.625 49.234375 140.445312 80.136719 140.289062 118.128906 C 140.152344 149.511719 118.875 175.914062 89.914062 184.019531 L 71.835938 199.296875 L 54.335938 184.5 C 24.203125 176.976562 1.953125 149.804688 2.089844 117.542969 C 2.246094 79.554688 33.3125 48.914062 71.480469 49.074219 "/>
<path style=" stroke:none;fill-rule:nonzero;fill:rgb(100%,100%,100%);fill-opacity:1;" d="M 71.46875 51.171875 C 108.261719 51.328125 138.007812 81.304688 137.855469 118.140625 C 137.726562 148.597656 117.144531 174.210938 89.179688 182.050781 L 71.847656 196.835938 L 54.730469 182.46875 C 25.742188 175.109375 4.371094 148.78125 4.5 117.578125 C 4.660156 80.742188 34.628906 51.015625 71.46875 51.171875 "/>
<path style=" stroke:none;fill-rule:nonzero;fill:rgb(0.784302%,0%,0%);fill-opacity:1;" d="M 71.484375 53.199219 C 107.171875 53.347656 136.019531 82.421875 135.871094 118.128906 C 135.71875 153.84375 106.625 182.667969 70.9375 182.515625 C 35.203125 182.363281 6.378906 153.296875 6.53125 117.585938 C 6.679688 81.875 35.75 53.046875 71.484375 53.199219 "/>
<path style=" stroke:none;fill-rule:nonzero;fill:rgb(100%,100%,100%);fill-opacity:1;" d="M 71.613281 55.230469 C 106.261719 55.375 134.257812 83.605469 134.109375 118.28125 C 133.980469 148.695312 112.230469 173.964844 83.484375 179.613281 L 83.460938 185.792969 L 71.761719 195.28125 L 59.945312 185.695312 L 59.96875 179.769531 C 30.636719 174.390625 8.429688 148.617188 8.558594 117.75 C 8.703125 83.078125 36.9375 55.082031 71.613281 55.230469 "/>
<path style=" stroke:none;fill-rule:nonzero;fill:rgb(0.784302%,0%,0%);fill-opacity:1;" d="M 51.257812 160.160156 L 47.054688 158.066406 L 45.917969 160.046875 C 42.054688 156.425781 37.792969 156.496094 35.886719 159.53125 C 31.867188 166.816406 41.09375 170.214844 45.773438 172.558594 Z M 44.554688 162.429688 L 42.078125 166.863281 C 39.738281 165.882812 38.4375 164.210938 39.277344 162.410156 C 40.210938 160.789062 42.171875 160.796875 44.554688 162.429688 "/>
<path style=" stroke:none;fill-rule:nonzero;fill:rgb(0.784302%,0%,0%);fill-opacity:1;" d="M 11.1875 119.925781 L 14.300781 119.601562 L 14.691406 123.011719 L 24.703125 122.125 L 25.164062 125.894531 L 15.257812 127.8125 L 15.644531 131.511719 L 12.511719 131.90625 Z M 11.1875 119.925781 "/>
<path style=" stroke:none;fill-rule:nonzero;fill:rgb(0.784302%,0%,0%);fill-opacity:1;" d="M 11.226562 111.089844 L 11.066406 116.367188 L 24.550781 116.464844 L 24.636719 112.136719 Z M 11.226562 111.089844 "/>
<path style=" stroke:none;fill-rule:nonzero;fill:rgb(0.784302%,0%,0%);fill-opacity:1;" d="M 11.578125 106.988281 L 15.6875 95.210938 L 23.746094 102.9375 L 25.433594 98.953125 L 27.863281 100.113281 L 24.753906 110.582031 L 16.515625 102.613281 L 14.570312 108.625 Z M 11.578125 106.988281 "/>
<path style=" stroke:none;fill-rule:nonzero;fill:rgb(0.784302%,0%,0%);fill-opacity:1;" d="M 89.535156 161.855469 L 93.691406 159.820312 L 95.144531 162.351562 L 97.699219 161.03125 L 96.445312 158.542969 L 99.863281 156.328125 L 107.125 166.191406 L 102.785156 168.851562 L 98.886719 162.820312 L 96.082031 164.40625 L 99.125 170.980469 L 94.558594 173.257812 Z M 89.535156 161.855469 "/>
<path style=" stroke:none;fill-rule:nonzero;fill:rgb(0.784302%,0%,0%);fill-opacity:1;" d="M 83.722656 160.972656 L 83.621094 184.148438 L 81.132812 186.300781 L 81.238281 161.617188 C 80.582031 161.769531 79.910156 161.90625 79.234375 162.035156 L 79.121094 188.007812 L 76.632812 190.160156 L 76.75 162.410156 C 76.230469 162.476562 75.710938 162.539062 75.171875 162.582031 L 75.046875 191.503906 L 72.558594 193.660156 L 72.691406 162.730469 C 72.125 162.75 71.539062 162.769531 70.929688 162.765625 L 70.816406 162.765625 L 70.6875 193.609375 L 68.214844 191.5 L 68.339844 162.691406 C 67.730469 162.640625 67.121094 162.59375 66.511719 162.527344 L 66.398438 189.960938 L 63.925781 187.875 L 64.035156 162.199219 C 63.492188 162.125 62.953125 162.035156 62.414062 161.921875 L 62.308594 186.492188 L 59.835938 184.40625 L 59.9375 161.371094 C 40.433594 156.367188 26.054688 138.632812 26.144531 117.601562 C 26.226562 98.121094 38.671875 81.582031 56.035156 75.386719 C 49.003906 64.605469 49.003906 53.851562 52.992188 43.09375 L 58.300781 46.496094 L 62.746094 39.75 L 66.117188 43.144531 L 69.277344 36.800781 L 71.34375 37.847656 L 73.15625 36.546875 L 76.757812 42.941406 L 80.289062 39.957031 L 84.429688 46.742188 L 90.035156 43 C 93.996094 55.574219 93.835938 66.550781 86.902344 75.628906 L 86.855469 75.628906 C 104.007812 82.035156 116.179688 98.613281 116.097656 117.980469 C 116.011719 138.359375 102.367188 155.527344 83.722656 160.972656 "/>
<path style=" stroke:none;fill-rule:nonzero;fill:rgb(100%,100%,100%);fill-opacity:1;" d="M 71.414062 74.730469 C 95.246094 74.832031 114.484375 94.253906 114.382812 118.085938 C 114.28125 141.894531 94.882812 161.15625 71.050781 161.054688 C 47.21875 160.953125 27.960938 141.53125 28.058594 117.722656 C 28.164062 93.894531 47.585938 74.628906 71.414062 74.730469 "/>
<path style=" stroke:none;fill-rule:nonzero;fill:rgb(0.784302%,0%,0%);fill-opacity:1;" d="M 71.40625 76.648438 C 94.152344 76.742188 112.5625 95.308594 112.464844 118.078125 C 112.371094 140.824219 93.804688 159.210938 71.058594 159.113281 C 48.289062 159.019531 29.902344 140.476562 30 117.730469 C 30.097656 94.960938 48.636719 76.550781 71.40625 76.648438 "/>
<path style=" stroke:none;fill-rule:nonzero;fill:rgb(100%,100%,100%);fill-opacity:1;" d="M 71.445312 94.230469 C 84.546875 94.289062 95.164062 104.972656 95.109375 118.121094 C 95.050781 131.21875 84.34375 141.835938 71.242188 141.78125 C 58.101562 141.722656 47.503906 131.015625 47.558594 117.917969 C 47.617188 104.773438 58.300781 94.175781 71.445312 94.230469 "/>
<path style=" stroke:none;fill-rule:nonzero;fill:rgb(0.784302%,0%,0%);fill-opacity:1;" d="M 114.304688 99.261719 L 116.183594 103.550781 L 118.796875 102.617188 C 119.523438 107.738281 122.554688 110.320312 125.828125 109.363281 C 132.558594 106.957031 127.902344 98.664062 125.804688 93.964844 Z M 120.722656 102.015625 L 125.28125 100.4375 C 126.421875 102.648438 126.390625 104.679688 124.671875 105.4375 C 122.957031 106.015625 121.496094 104.75 120.722656 102.015625 "/>
<path style=" stroke:none;fill-rule:nonzero;fill:rgb(0.784302%,0%,0%);fill-opacity:1;" d="M 40.535156 153.28125 L 28.269531 158.957031 L 25.125 155.765625 L 31.515625 142.761719 L 34.292969 146.671875 L 33.679688 148.136719 L 36.910156 151.578125 L 38.203125 150.972656 Z M 32.585938 150.769531 L 31.082031 154.304688 L 34.472656 152.714844 Z M 32.585938 150.769531 "/>
<path style=" stroke:none;fill-rule:nonzero;fill:rgb(0.784302%,0%,0%);fill-opacity:1;" d="M 31.296875 141.453125 L 29.398438 137.570312 L 26.277344 138.953125 C 26.257812 138.863281 26.257812 138.792969 26.238281 138.726562 L 28.167969 135.328125 L 26.050781 129.9375 L 23.707031 133.347656 C 22.363281 131.902344 20.652344 131.375 18.867188 132.089844 C 11.597656 135.417969 17.171875 143.695312 19.589844 148.324219 Z M 23.953125 140.273438 L 20.066406 142.148438 C 17.289062 138.078125 21.226562 133.972656 23.953125 140.273438 "/>
<path style=" stroke:none;fill-rule:nonzero;fill:rgb(0.784302%,0%,0%);fill-opacity:1;" d="M 30.207031 95.726562 L 28.613281 98.492188 L 19.644531 87.296875 L 22.140625 82.976562 L 36.308594 86.554688 L 33.5625 90.191406 L 31.558594 89.894531 L 28.929688 93.984375 Z M 28.605469 89.292969 L 24.621094 88.464844 L 26.976562 91.496094 Z M 28.605469 89.292969 "/>
<path style=" stroke:none;fill-rule:nonzero;fill:rgb(0.784302%,0%,0%);fill-opacity:1;" d="M 107.789062 147.480469 L 109.667969 145.277344 L 116.085938 157.503906 L 112.757812 160.78125 L 100.160156 154.933594 L 103.214844 152.191406 L 105.511719 153.082031 L 108.796875 149.332031 Z M 107.738281 154.039062 L 111.96875 155.457031 L 109.847656 151.457031 Z M 107.738281 154.039062 "/>
<path style=" stroke:none;fill-rule:nonzero;fill:rgb(0.784302%,0%,0%);fill-opacity:1;" d="M 39.730469 82.242188 L 36.832031 84.890625 L 28.4375 76.464844 L 31.671875 73.414062 L 40.824219 74.9375 L 36.898438 69.152344 L 40.859375 66.394531 L 47.351562 76.589844 L 44.027344 79.011719 L 36.929688 78.28125 Z M 39.730469 82.242188 "/>
<path style=" stroke:none;fill-rule:nonzero;fill:rgb(0.784302%,0%,0%);fill-opacity:1;" d="M 98.335938 79.441406 L 94.402344 76.765625 L 101.054688 65.679688 L 112.984375 75.199219 L 104.292969 84.363281 L 101.214844 81.550781 L 107.222656 73.890625 L 104.234375 71.488281 Z M 98.335938 79.441406 "/>
<path style=" stroke:none;fill-rule:nonzero;fill:rgb(0.784302%,0%,0%);fill-opacity:1;" d="M 105.007812 85.335938 L 118.734375 81.332031 L 121.625 85.222656 L 113.726562 97.75 L 110.992188 93.117188 L 112.199219 91.382812 L 109.394531 87.582031 L 107.136719 88 Z M 111.765625 86.871094 L 113.445312 89.292969 L 115.738281 85.558594 Z M 111.765625 86.871094 "/>
<path style=" stroke:none;fill-rule:nonzero;fill:rgb(0.784302%,0%,0%);fill-opacity:1;" d="M 117.714844 114.199219 L 127.996094 114.152344 L 128.011719 110.230469 L 130.648438 110.242188 L 130.601562 122.214844 L 128.007812 122.199219 L 127.976562 118.121094 L 117.789062 118.078125 Z M 117.714844 114.199219 "/>
<path style=" stroke:none;fill-rule:nonzero;fill:rgb(0.784302%,0%,0%);fill-opacity:1;" d="M 130.457031 123.679688 L 129.941406 128.703125 L 121.488281 127.742188 L 124.625 132.109375 L 128.589844 133.542969 L 127.308594 137.730469 L 115.625 133.671875 L 116.746094 130.023438 L 120.75 131.347656 L 117.527344 127.046875 L 117.8125 122.632812 Z M 130.457031 123.679688 "/>
<path style=" stroke:none;fill-rule:nonzero;fill:rgb(0.784302%,0%,0%);fill-opacity:1;" d="M 126.875 139.691406 L 121.160156 151.957031 L 118.945312 147.503906 C 112.921875 148.515625 109.328125 146.246094 112.082031 139.945312 C 113.738281 136.886719 116.15625 135.835938 119.128906 136.1875 L 119.035156 137.742188 C 113.355469 137.628906 113.210938 144.617188 118.085938 143.398438 L 118.207031 141.707031 L 120.484375 141.625 L 121.980469 144.925781 L 124.871094 138.621094 Z M 126.875 139.691406 "/>
<path style=" stroke:none;fill-rule:nonzero;fill:rgb(92.941284%,11.372375%,14.117432%);fill-opacity:1;" d="M 71.308594 95.089844 L 76.066406 110.710938 L 93.203125 110.78125 L 79.742188 121.050781 L 84.949219 137.125 L 71.171875 127.371094 L 57.941406 137.007812 L 62.832031 121.183594 L 49.257812 111.046875 L 66.1875 110.894531 Z M 71.308594 95.089844 "/>
<path style=" stroke:none;fill-rule:nonzero;fill:rgb(100%,100%,100%);fill-opacity:1;" d="M 57.660156 74.851562 C 53.007812 66.355469 50.589844 57.214844 54.152344 46.363281 L 58.558594 49.226562 L 63.003906 42.882812 L 66.507812 46.414062 L 69.78125 39.78125 L 71.464844 41.09375 L 72.78125 39.925781 L 76.496094 46.054688 L 79.890625 43.472656 L 83.898438 49.734375 L 88.980469 46.757812 C 92.523438 57.324219 90.410156 66.535156 85.078125 75.011719 C 80.730469 73.601562 76.113281 72.8125 71.3125 72.789062 C 66.554688 72.773438 61.976562 73.496094 57.660156 74.851562 "/>
<path style=" stroke:none;fill-rule:nonzero;fill:rgb(92.941284%,11.372375%,14.117432%);fill-opacity:1;" d="M 55.355469 50.203125 L 59.335938 52.652344 C 58.898438 59.664062 59.957031 66.226562 62.792969 72.238281 L 60.242188 72.832031 C 54.808594 66.5 53.832031 58.742188 55.355469 50.203125 M 72.410156 42.382812 L 72.058594 71.535156 L 73.796875 71.539062 C 77.992188 60.28125 75.867188 45.347656 72.410156 42.382812 M 80.644531 45.847656 C 83.1875 53.003906 83.214844 62.585938 79.09375 71.921875 L 75.417969 71.546875 C 77.90625 64.230469 78.570312 56.835938 76.574219 49.300781 Z M 87.84375 50.339844 L 83.839844 52.757812 C 84.21875 59.769531 83.128906 66.324219 80.242188 72.3125 L 82.761719 72.929688 C 88.246094 66.640625 89.292969 58.890625 87.84375 50.339844 M 70.875 42.375 L 71 71.527344 L 69.21875 71.519531 C 65.117188 60.230469 67.371094 45.316406 70.875 42.375 M 62.203125 45.765625 C 59.605469 52.902344 59.898438 62.488281 63.945312 71.855469 L 67.617188 71.515625 C 65.191406 64.175781 64.570312 56.78125 66.628906 49.257812 Z M 62.203125 45.765625 "/>
<path style=" stroke:none;fill-rule:nonzero;fill:rgb(100%,100%,100%);fill-opacity:1;" d="M 43.585938 108.699219 L 43.035156 110.820312 L 40.398438 111.304688 L 41.160156 112.164062 L 42.601562 112.53125 L 42.140625 114.355469 L 35.902344 112.769531 L 36.363281 110.945312 L 38.929688 111.613281 L 36.800781 109.234375 L 37.234375 107.5 L 39.117188 109.671875 Z M 44.929688 105.914062 C 45.292969 105.101562 45.335938 104.289062 45.03125 103.523438 C 44.71875 102.730469 44.085938 102.121094 43.164062 101.6875 C 42.265625 101.277344 41.433594 101.1875 40.640625 101.453125 C 39.871094 101.714844 39.28125 102.234375 38.921875 103.070312 C 38.488281 103.945312 38.464844 104.757812 38.800781 105.523438 C 39.132812 106.292969 39.738281 106.859375 40.59375 107.269531 C 41.519531 107.699219 42.371094 107.796875 43.164062 107.527344 C 43.953125 107.285156 44.542969 106.71875 44.929688 105.914062 M 43.578125 105.296875 C 43.324219 105.859375 42.652344 105.878906 41.570312 105.378906 C 40.398438 104.832031 39.953125 104.265625 40.25 103.679688 C 40.5 103.117188 41.132812 103.097656 42.144531 103.578125 C 42.839844 103.894531 43.289062 104.191406 43.488281 104.460938 C 43.691406 104.710938 43.738281 104.980469 43.578125 105.296875 M 44.675781 101.785156 L 45.492188 100.117188 C 46.011719 100.300781 46.441406 100.125 46.824219 99.605469 C 47.121094 99.207031 47.167969 98.929688 46.941406 98.773438 C 46.832031 98.703125 46.71875 98.679688 46.582031 98.730469 C 46.445312 98.773438 46.289062 98.90625 46.0625 99.105469 C 45.199219 99.894531 44.546875 100.296875 44.074219 100.363281 C 43.601562 100.40625 43.191406 100.292969 42.8125 100.015625 C 42.316406 99.65625 42.050781 99.179688 41.984375 98.546875 C 41.941406 97.941406 42.171875 97.289062 42.667969 96.589844 C 43.464844 95.53125 44.386719 95.15625 45.492188 95.429688 L 44.921875 97.054688 C 44.472656 96.9375 44.085938 97.070312 43.792969 97.496094 C 43.542969 97.855469 43.519531 98.105469 43.722656 98.261719 C 43.832031 98.332031 43.925781 98.355469 44.035156 98.3125 C 44.148438 98.265625 44.308594 98.152344 44.535156 97.949219 C 45.121094 97.4375 45.550781 97.078125 45.847656 96.898438 C 46.140625 96.695312 46.480469 96.609375 46.863281 96.609375 C 47.222656 96.609375 47.582031 96.746094 47.921875 96.996094 C 48.4375 97.382812 48.703125 97.902344 48.726562 98.578125 C 48.746094 99.230469 48.492188 99.90625 47.972656 100.605469 C 47.042969 101.886719 45.960938 102.261719 44.675781 101.785156 M 39.964844 97.007812 L 42.289062 96.363281 L 42.183594 93.949219 L 41.457031 94.78125 L 41.5 95.777344 L 40.527344 96.0625 Z M 52.886719 95.347656 L 54.445312 94.070312 L 48.757812 90.394531 L 47.152344 91.738281 L 49.742188 97.972656 L 50.984375 96.941406 L 50.472656 95.71875 L 51.804688 94.601562 Z M 49.824219 94.410156 L 49.042969 92.652344 L 50.640625 93.738281 Z M 59.984375 90.914062 L 58.0625 91.96875 L 56.042969 90.269531 L 55.5 90.558594 L 56.6875 92.726562 L 54.945312 93.667969 L 51.859375 88.015625 L 54.796875 86.382812 C 55.453125 86.027344 56.035156 85.914062 56.578125 86.007812 C 57.09375 86.125 57.5 86.417969 57.765625 86.9375 C 57.949219 87.25 58.058594 87.570312 58.058594 87.910156 C 58.058594 88.222656 57.921875 88.585938 57.601562 89.011719 Z M 54.828125 89.339844 L 55.574219 88.9375 C 55.800781 88.820312 55.960938 88.664062 56.027344 88.507812 C 56.113281 88.351562 56.097656 88.171875 56.003906 88.011719 C 55.804688 87.652344 55.492188 87.582031 55.035156 87.828125 L 54.246094 88.277344 Z M 66.464844 89.140625 L 63.453125 85.695312 L 64.4375 83 L 62.71875 83.464844 L 61.671875 86.480469 L 60.984375 83.90625 L 59.175781 84.398438 L 60.820312 90.625 L 62.625 90.160156 L 62.246094 88.714844 L 62.65625 87.636719 L 64.363281 89.691406 Z M 70.566406 88.792969 L 70.121094 87.53125 L 68.386719 87.660156 L 68.085938 88.941406 L 66.484375 89.046875 L 68.046875 82.496094 L 70.144531 82.34375 L 72.574219 88.644531 Z M 68.613281 86.214844 L 69.675781 86.15625 L 69.027344 84.328125 Z M 72.742188 86.820312 L 74.589844 86.738281 C 74.675781 87.257812 75.035156 87.574219 75.667969 87.667969 C 76.164062 87.714844 76.433594 87.625 76.457031 87.355469 C 76.480469 87.222656 76.4375 87.105469 76.347656 87.019531 C 76.234375 86.925781 76.03125 86.832031 75.761719 86.742188 C 74.65625 86.375 73.980469 85.992188 73.691406 85.609375 C 73.425781 85.222656 73.3125 84.796875 73.382812 84.320312 C 73.453125 83.738281 73.746094 83.261719 74.242188 82.902344 C 74.761719 82.570312 75.441406 82.457031 76.296875 82.550781 C 77.605469 82.738281 78.410156 83.371094 78.679688 84.457031 L 77.011719 84.742188 C 76.878906 84.289062 76.5625 84.042969 76.066406 83.972656 C 75.613281 83.921875 75.390625 84.035156 75.367188 84.285156 C 75.339844 84.417969 75.386719 84.507812 75.476562 84.578125 C 75.566406 84.667969 75.746094 84.757812 76.015625 84.851562 C 76.761719 85.101562 77.277344 85.332031 77.59375 85.488281 C 77.882812 85.648438 78.128906 85.898438 78.308594 86.234375 C 78.488281 86.554688 78.554688 86.933594 78.511719 87.339844 C 78.417969 87.972656 78.097656 88.464844 77.511719 88.800781 C 76.945312 89.140625 76.226562 89.246094 75.367188 89.15625 C 73.8125 88.941406 72.9375 88.175781 72.742188 86.820312 M 74.617188 80.378906 L 75.71875 80.429688 L 76.4375 81.132812 L 77.320312 80.617188 L 78.402344 80.847656 L 76.320312 82.101562 Z M 84.441406 91.582031 L 82.375 90.917969 L 82.089844 88.234375 L 81.140625 88.929688 L 80.683594 90.347656 L 78.902344 89.777344 L 80.9375 83.632812 L 82.691406 84.222656 L 81.871094 86.742188 L 84.402344 84.773438 L 86.089844 85.34375 L 83.785156 87.070312 Z M 89.6875 87.457031 L 87.980469 86.480469 L 84.820312 92.125 L 86.558594 93.078125 Z M 93.722656 99.039062 L 92.128906 97.542969 L 92.996094 95.023438 L 91.867188 95.246094 L 90.851562 96.34375 L 89.480469 95.054688 L 93.890625 90.359375 L 95.261719 91.628906 L 93.433594 93.578125 L 96.546875 92.847656 L 97.847656 94.074219 L 95.046875 94.667969 Z M 97.902344 102.347656 L 96.421875 100.289062 L 100.382812 97.445312 L 99.214844 95.835938 L 93.988281 99.601562 L 96.636719 103.265625 Z M 104.964844 105.871094 L 101.082031 107.660156 C 100.335938 107.992188 99.703125 108.039062 99.1875 107.742188 C 98.671875 107.445312 98.242188 106.972656 97.929688 106.25 C 97.570312 105.527344 97.464844 104.847656 97.554688 104.261719 C 97.671875 103.679688 98.078125 103.226562 98.753906 102.894531 L 102.730469 101.0625 L 103.582031 102.890625 L 99.808594 104.632812 C 99.535156 104.765625 99.355469 104.902344 99.289062 105.082031 C 99.21875 105.257812 99.242188 105.484375 99.355469 105.757812 C 99.464844 105.960938 99.578125 106.121094 99.734375 106.210938 C 99.894531 106.324219 100.050781 106.34375 100.164062 106.324219 C 100.300781 106.300781 100.550781 106.214844 100.886719 106.058594 L 104.316406 104.46875 Z M 99.289062 109.589844 L 100.023438 112.566406 C 100.265625 113.492188 100.582031 114.082031 101.027344 114.261719 C 101.460938 114.46875 101.90625 114.515625 102.382812 114.382812 C 103.152344 114.207031 103.539062 113.667969 103.539062 112.8125 C 103.71875 113.148438 103.964844 113.378906 104.257812 113.464844 C 104.550781 113.601562 104.84375 113.605469 105.15625 113.539062 C 105.585938 113.425781 105.949219 113.179688 106.195312 112.796875 C 106.449219 112.414062 106.5 111.898438 106.339844 111.21875 L 105.5625 108.0625 Z M 103.59375 110.421875 L 104.652344 110.152344 L 104.851562 111.011719 C 104.964844 111.441406 104.851562 111.6875 104.488281 111.777344 C 104.375 111.820312 104.242188 111.796875 104.109375 111.730469 C 103.972656 111.664062 103.859375 111.527344 103.816406 111.296875 Z M 101.132812 111.019531 L 102.261719 110.730469 L 102.484375 111.613281 C 102.554688 111.882812 102.527344 112.109375 102.4375 112.242188 C 102.347656 112.378906 102.230469 112.445312 102.074219 112.488281 C 101.941406 112.535156 101.804688 112.511719 101.644531 112.417969 C 101.511719 112.351562 101.421875 112.191406 101.355469 111.945312 Z M 101.132812 111.019531 "/>
<path style=" stroke:none;fill-rule:nonzero;fill:rgb(100%,100%,100%);fill-opacity:1;" d="M 36.542969 126.574219 L 42.707031 124.613281 L 43.710938 127.730469 C 43.910156 128.359375 43.882812 128.902344 43.65625 129.308594 C 43.429688 129.691406 43.113281 129.960938 42.6875 130.09375 C 42.367188 130.203125 42.074219 130.203125 41.761719 130.113281 C 41.46875 130.019531 41.21875 129.816406 41.019531 129.5 C 41.082031 130.355469 40.71875 130.894531 39.976562 131.140625 C 39.503906 131.296875 39.050781 131.296875 38.597656 131.109375 C 38.148438 130.949219 37.792969 130.410156 37.503906 129.507812 Z M 40.898438 127.089844 L 41.183594 127.96875 C 41.25 128.191406 41.363281 128.328125 41.496094 128.375 C 41.632812 128.445312 41.765625 128.445312 41.902344 128.398438 C 42.242188 128.285156 42.332031 128.015625 42.199219 127.613281 L 41.933594 126.753906 Z M 38.476562 127.863281 L 38.765625 128.789062 C 38.855469 129.019531 38.945312 129.175781 39.101562 129.242188 C 39.257812 129.3125 39.394531 129.3125 39.535156 129.269531 C 39.667969 129.222656 39.777344 129.132812 39.871094 128.996094 C 39.964844 128.839844 39.964844 128.636719 39.871094 128.367188 L 39.605469 127.511719 Z M 40.628906 136.398438 L 41.535156 135.457031 L 40.683594 133.941406 L 39.398438 134.25 L 38.59375 132.847656 L 45.183594 131.390625 L 46.210938 133.195312 L 41.613281 138.160156 Z M 42.082031 133.539062 L 42.601562 134.445312 L 43.957031 133.074219 Z M 43.640625 137.671875 C 42.875 138.777344 42.980469 139.945312 43.992188 141.144531 C 44.53125 141.824219 45.136719 142.234375 45.789062 142.371094 C 46.4375 142.507812 47.003906 142.375 47.527344 141.96875 C 47.84375 141.703125 48.050781 141.386719 48.140625 141.027344 C 48.230469 140.667969 48.234375 140.328125 48.121094 139.992188 C 48.007812 139.652344 47.765625 139.152344 47.382812 138.453125 C 47.25 138.183594 47.183594 138.003906 47.183594 137.890625 C 47.164062 137.777344 47.207031 137.664062 47.296875 137.597656 C 47.5 137.417969 47.75 137.507812 48.015625 137.847656 C 48.355469 138.234375 48.398438 138.640625 48.191406 139.042969 L 49.609375 139.996094 C 50.152344 138.984375 50 137.992188 49.171875 136.976562 C 48.609375 136.320312 48.023438 135.933594 47.421875 135.839844 C 46.832031 135.746094 46.289062 135.875 45.816406 136.285156 C 45.453125 136.574219 45.25 136.957031 45.179688 137.429688 C 45.109375 137.90625 45.351562 138.648438 45.914062 139.644531 C 46.070312 139.914062 46.136719 140.113281 46.15625 140.253906 C 46.160156 140.386719 46.113281 140.5 46.023438 140.589844 C 45.820312 140.769531 45.546875 140.65625 45.234375 140.269531 C 44.832031 139.773438 44.765625 139.324219 45.058594 138.871094 Z M 51.761719 148.03125 L 50.054688 146.695312 L 50.675781 144.082031 L 49.566406 144.414062 L 48.660156 145.585938 L 47.175781 144.429688 L 51.1875 139.371094 L 52.652344 140.527344 L 50.996094 142.621094 L 54.046875 141.617188 L 55.4375 142.726562 L 52.707031 143.574219 Z M 57.976562 149.660156 L 55.390625 148.339844 L 55.867188 147.394531 L 57.960938 148.488281 L 58.621094 147.203125 L 56.527344 146.136719 L 56.957031 145.300781 L 59.546875 146.625 L 60.226562 145.292969 L 55.910156 143.089844 L 52.953125 148.828125 L 57.273438 151.03125 Z M 63.101562 147.808594 L 61.484375 152.449219 L 59.707031 151.832031 L 61.324219 147.191406 L 60.0625 146.761719 L 60.566406 145.292969 L 64.867188 146.800781 L 64.363281 148.265625 Z M 64.183594 153.132812 L 67.25 153.507812 C 68.199219 153.648438 68.847656 153.535156 69.191406 153.203125 C 69.53125 152.863281 69.734375 152.457031 69.78125 151.984375 C 69.875 151.175781 69.539062 150.632812 68.726562 150.332031 C 69.113281 150.273438 69.382812 150.136719 69.609375 149.910156 C 69.8125 149.660156 69.949219 149.394531 69.976562 149.078125 C 70.042969 148.628906 69.933594 148.21875 69.664062 147.839844 C 69.398438 147.453125 68.921875 147.226562 68.246094 147.15625 L 65 146.734375 Z M 66.5 149.425781 L 66.640625 148.34375 L 67.519531 148.4375 C 67.949219 148.507812 68.148438 148.710938 68.101562 149.070312 C 68.082031 149.203125 68.035156 149.316406 67.921875 149.40625 C 67.808594 149.519531 67.648438 149.5625 67.421875 149.519531 Z M 66.171875 151.925781 L 66.335938 150.777344 L 67.21875 150.894531 C 67.511719 150.917969 67.6875 151.007812 67.800781 151.144531 C 67.886719 151.28125 67.914062 151.433594 67.914062 151.570312 C 67.886719 151.730469 67.820312 151.839844 67.683594 151.953125 C 67.546875 152.042969 67.367188 152.089844 67.144531 152.0625 Z M 74.871094 153.519531 L 74.402344 152.277344 L 72.6875 152.425781 L 72.410156 153.734375 L 70.808594 153.863281 L 72.28125 147.261719 L 74.332031 147.089844 L 76.878906 153.34375 Z M 72.894531 151.007812 L 73.933594 150.921875 L 73.265625 149.09375 Z M 82.34375 150.414062 L 79.886719 151.105469 L 78.574219 146.410156 L 76.65625 146.941406 L 78.410156 153.171875 L 82.765625 151.929688 Z M 87.789062 148.027344 L 88.460938 149.472656 L 84.34375 151.375 L 81.644531 145.5 L 83.449219 144.667969 L 85.484375 149.097656 Z M 93.132812 143.160156 L 94.597656 142.125 C 95.027344 142.78125 95.179688 143.433594 95.066406 144.089844 C 94.929688 144.722656 94.585938 145.28125 94.019531 145.730469 C 93.34375 146.289062 92.597656 146.488281 91.832031 146.375 C 91.042969 146.261719 90.324219 145.804688 89.691406 145.011719 C 89.046875 144.222656 88.730469 143.433594 88.757812 142.617188 C 88.761719 141.828125 89.125 141.132812 89.828125 140.570312 C 90.503906 140.03125 91.160156 139.8125 91.816406 139.882812 C 92.46875 139.972656 93.050781 140.292969 93.59375 140.859375 L 92.210938 142.09375 C 91.941406 141.757812 91.691406 141.570312 91.445312 141.523438 C 91.199219 141.480469 90.972656 141.523438 90.816406 141.660156 C 90.316406 142.0625 90.472656 142.738281 91.257812 143.714844 C 91.683594 144.257812 92.0625 144.59375 92.335938 144.6875 C 92.628906 144.777344 92.878906 144.734375 93.101562 144.550781 C 93.507812 144.21875 93.511719 143.769531 93.132812 143.160156 M 98.921875 138.332031 L 97.289062 140.265625 L 93.5625 137.117188 L 92.292969 138.621094 L 97.214844 142.789062 L 100.136719 139.355469 Z M 98.101562 130.238281 L 101.789062 132.394531 C 102.484375 132.804688 102.867188 133.300781 102.933594 133.90625 C 102.996094 134.496094 102.839844 135.125 102.453125 135.800781 C 102.039062 136.5 101.566406 136.972656 101.023438 137.238281 C 100.476562 137.480469 99.875 137.414062 99.199219 137.027344 L 95.421875 134.824219 L 96.441406 133.09375 L 100.015625 135.183594 C 100.289062 135.320312 100.515625 135.386719 100.691406 135.339844 C 100.894531 135.300781 101.054688 135.164062 101.214844 134.917969 C 101.324219 134.714844 101.371094 134.511719 101.371094 134.328125 C 101.351562 134.152344 101.308594 133.992188 101.195312 133.925781 C 101.105469 133.8125 100.90625 133.675781 100.566406 133.492188 L 97.304688 131.585938 Z M 104.40625 131.683594 L 105.433594 128.800781 C 105.753906 127.878906 105.777344 127.226562 105.507812 126.820312 C 105.261719 126.433594 104.90625 126.136719 104.453125 125.984375 C 103.6875 125.730469 103.078125 125.953125 102.625 126.671875 C 102.648438 126.3125 102.558594 125.996094 102.378906 125.722656 C 102.203125 125.472656 101.953125 125.292969 101.636719 125.179688 C 101.230469 125.042969 100.804688 125.0625 100.375 125.242188 C 99.949219 125.417969 99.628906 125.824219 99.402344 126.476562 L 98.332031 129.5625 Z M 101.261719 128.648438 L 100.230469 128.304688 L 100.523438 127.472656 C 100.664062 127.042969 100.910156 126.910156 101.25 127.027344 C 101.378906 127.074219 101.472656 127.160156 101.558594 127.277344 C 101.628906 127.410156 101.628906 127.566406 101.558594 127.792969 Z M 103.648438 129.492188 L 102.546875 129.105469 L 102.839844 128.269531 C 102.933594 127.980469 103.070312 127.820312 103.230469 127.757812 C 103.386719 127.710938 103.523438 127.691406 103.652344 127.734375 C 103.792969 127.785156 103.902344 127.894531 103.992188 128.027344 C 104.058594 128.1875 104.0625 128.367188 103.96875 128.59375 Z M 103.648438 129.492188 "/>
</g>
</svg>