<svg width="209" height="214" viewBox="0 0 209 214" fill="none" xmlns="http://www.w3.org/2000/svg">
<path d="M104.778 7.00398C159.051 7.00398 203.091 52.0216 203.091 107.607C203.091 163.193 159.098 208.21 104.778 208.21C50.4579 208.21 6.46498 163.192 6.46498 107.606C6.46498 52.021 50.5047 7.00398 104.778 7.00398ZM104.778 1.26985C90.7468 1.26985 77.1318 4.06563 64.351 9.60986C51.9864 14.9648 40.8728 22.6411 31.3329 32.4032C21.7929 42.1654 14.2914 53.5378 9.05837 66.1904C3.64034 79.3168 0.908203 93.201 0.908203 107.559C0.908203 121.917 3.64034 135.849 9.05837 148.928C14.2914 161.581 21.7929 172.953 31.3329 182.715C40.8728 192.477 51.9864 200.154 64.351 205.508C77.1786 211.053 90.7468 213.848 104.778 213.848C118.809 213.848 132.424 211.053 145.205 205.508C157.57 200.154 168.683 192.477 178.223 182.715C187.763 172.953 195.265 161.581 200.498 148.928C205.916 135.801 208.648 121.917 208.648 107.559C208.648 93.201 205.916 79.2689 200.498 66.1904C195.265 53.5378 187.763 42.1654 178.223 32.4032C168.683 22.6411 157.57 14.9648 145.205 9.60986C132.424 4.06563 118.809 1.26985 104.778 1.26985Z" fill="#FF0000"/>
<path d="M104.778 12.6902C117.282 12.6902 129.461 15.2014 140.853 20.1299C151.874 24.9157 161.831 31.7395 170.351 40.4587C178.823 49.1077 185.57 59.3598 190.217 70.6444C195.034 82.3492 197.488 94.7646 197.488 107.559C197.488 120.354 195.034 132.816 190.217 144.474C185.541 155.752 178.872 165.94 170.351 174.66C161.899 183.329 151.88 190.233 140.853 194.989C129.414 199.917 117.282 202.428 104.778 202.428C92.2749 202.428 80.0959 199.917 68.7037 194.989C57.682 190.203 47.7258 183.379 39.2051 174.66C30.7335 166.011 23.9862 155.759 19.339 144.474C14.5228 132.769 12.0687 120.354 12.0687 107.559C12.0687 94.7646 14.5228 82.3019 19.339 70.6444C24.0159 59.366 30.6844 49.1779 39.2051 40.4587C47.6572 31.7897 57.676 24.8853 68.7037 20.1299C80.1421 15.2014 92.2749 12.6902 104.778 12.6902ZM104.778 7.00401C50.5048 7.00401 6.46509 52.0216 6.46509 107.607C6.46509 163.193 50.458 208.21 104.778 208.21C159.098 208.21 203.091 163.193 203.091 107.607C203.091 52.0216 159.098 7.00401 104.778 7.00401Z" fill="#004CFF"/>
<path d="M104.778 196.742C152.911 196.742 191.931 156.813 191.931 107.559C191.931 58.3049 152.911 18.3764 104.778 18.3764C56.6449 18.3764 17.6252 58.3049 17.6252 107.559C17.6252 156.813 56.6449 196.742 104.778 196.742Z" fill="black"/>
<path d="M162.757 52.7321C160.534 52.5428 141.918 50.742 126.451 41.1698C114.781 33.9668 107.835 23.2575 105.844 18.3764H103.713C101.722 23.2575 94.822 33.9668 83.106 41.1698C67.5925 50.742 49.0231 52.5428 46.8002 52.7321C46.6615 52.7321 46.6152 52.8267 46.6152 52.9693C46.6152 53.1119 46.7077 53.2065 46.8002 53.2065C49.3474 53.4438 70.3252 55.7657 83.9859 66.4276C95.1 75.0995 98.1102 89.4576 98.2952 97.3238C98.2952 97.561 98.6196 97.6557 98.7121 97.4184L102.417 88.5572C102.417 88.5099 102.602 87.6095 102.602 87.5622L106.26 87.6569L111.215 98.3661C111.169 90.7839 113.901 75.4781 125.524 66.427C139.185 55.7651 160.163 53.4432 162.71 53.2059C162.802 53.2059 162.895 53.1113 162.895 52.9687C162.987 52.8741 162.895 52.7794 162.756 52.7315L162.757 52.7321Z" fill="#0050FF"/>
<path d="M147.799 52.7321C129.044 52.0689 110.705 40.364 105.843 20.0352H104.361H103.806C98.9432 40.364 80.5588 52.0689 61.8038 52.7321C61.7424 52.7321 61.6835 52.757 61.6401 52.8014C61.5967 52.8459 61.5723 52.9061 61.5723 52.969C61.5723 53.0318 61.5967 53.0921 61.6401 53.1365C61.6835 53.1809 61.7424 53.2059 61.8038 53.2059C65.7864 53.4905 82.6891 55.1013 90.2837 63.6312C98.3414 72.7296 99.6844 87.5616 98.897 95.0018L100.842 80.3118L104.546 61.9257L108.807 80.3118L110.752 95.0018C109.964 87.5622 111.307 72.7296 119.365 63.6312C126.913 55.1486 143.723 53.4905 147.799 53.2059C147.937 53.2059 148.03 53.0639 148.03 52.9687C148.033 52.9369 148.028 52.9051 148.017 52.8752C148.007 52.8454 147.99 52.8183 147.968 52.7958C147.946 52.7733 147.919 52.7559 147.89 52.7448C147.861 52.7337 147.83 52.7297 147.799 52.7321Z" fill="#FF0000"/>
<path d="M190.263 70.6443C185.587 59.366 178.918 49.1779 170.397 40.4587C161.945 31.7897 151.926 24.8853 140.899 20.1298C129.46 15.2014 117.328 12.6902 104.824 12.6902C92.3209 12.6902 80.1419 15.2014 68.7497 20.1298C57.7281 24.9156 47.7719 31.7395 39.2511 40.4587C30.7795 49.1076 24.0322 59.3598 19.385 70.6443C14.5688 82.3492 12.1147 94.7646 12.1147 107.559C12.1147 120.354 14.5688 132.816 19.385 144.474C24.0619 155.752 30.7304 165.94 39.2511 174.66C47.7032 183.329 57.722 190.233 68.7497 194.988C80.1882 199.917 92.3209 202.428 104.824 202.428C117.328 202.428 129.507 199.917 140.899 194.988C151.92 190.203 161.877 183.379 170.397 174.66C178.869 166.011 185.616 155.759 190.263 144.474C195.08 132.769 197.534 120.354 197.534 107.559C197.534 94.7646 195.08 82.3492 190.263 70.6443ZM172.573 51.5471C162.988 79.4582 139.972 99.9769 112.465 103.199C111.354 98.4607 110.567 93.3904 110.057 88.0354C110.011 87.5616 109.965 87.0877 109.872 86.6139C109.085 77.3735 109.965 71.4501 110.706 68.4644C110.845 67.9432 110.938 67.4693 111.123 66.9955L111.261 66.569C113.855 58.9868 120.801 53.4899 129.044 53.2059C129.106 53.2059 129.164 53.1809 129.208 53.1365C129.251 53.0921 129.276 53.0318 129.276 52.969C129.276 52.9061 129.251 52.8459 129.208 52.8015C129.164 52.757 129.106 52.7321 129.044 52.7321C120.755 51.6897 113.716 46.4294 110.058 39.1791C107.233 33.8242 106.261 26.0053 105.937 21.5508L105.844 18.5178C132.795 18.755 156.784 31.5969 172.575 51.5465L172.573 51.5471ZM104.777 89.4096C106.398 105.853 110.844 119.643 118.207 131.063C113.946 131.252 109.501 131.395 104.777 131.395C100.054 131.348 95.6086 131.253 91.348 131.063C98.7576 119.643 103.203 105.853 104.777 89.4096ZM103.759 18.4237C103.713 19.3714 103.713 20.4138 103.666 21.4567C103.342 25.9113 102.37 33.7301 99.545 39.0844C95.8867 46.3821 88.8477 51.5944 80.5587 52.6374C80.42 52.6374 80.3269 52.7794 80.3269 52.8746C80.3246 52.9064 80.3291 52.9383 80.3399 52.9681C80.3508 52.9979 80.3678 53.025 80.3898 53.0475C80.4118 53.07 80.4382 53.0874 80.4674 53.0985C80.4966 53.1096 80.5277 53.1142 80.5587 53.1119C88.8014 53.3964 95.7017 58.8933 98.2951 66.4749C98.3414 66.6169 98.3876 66.7121 98.4339 66.9014L98.8507 68.3703C99.5918 71.4033 100.472 77.2788 99.6843 86.5198C99.638 86.9937 99.5918 87.5148 99.4993 87.9414C98.99 93.2963 98.2026 98.3194 97.0915 103.105C69.5377 99.8829 46.5689 79.3641 36.9832 51.4531C52.7743 31.5981 76.8086 18.7562 103.76 18.4243L103.759 18.4237ZM17.6715 107.559C17.6715 88.6518 23.4139 71.1182 33.2313 56.7128C44.0674 84.5292 67.6386 104.905 95.748 108.507C93.2471 116.847 89.7281 124.239 85.0969 130.684C60.8314 129.12 44.5304 125.14 34.528 121.727C25.7754 118.742 20.4967 115.757 17.9033 114.003C17.7184 111.871 17.6715 109.739 17.6715 107.559ZM104.778 196.742C88.08 196.76 71.73 191.858 57.6824 182.62C69.2134 169.02 85.3287 159.117 104.778 159.117C124.227 159.117 140.343 169.021 151.874 182.62C138.305 191.577 122.144 196.742 104.778 196.742ZM174.194 161.533C157.199 157.079 147.799 151.772 140.806 146.843C137.935 144.806 135.11 142.436 132.609 140.067L125.57 140.635C129.136 144.521 133.257 148.17 137.749 151.344C147.52 158.263 158.82 162.907 170.443 166.224C166.229 171.152 161.505 175.606 156.319 179.492C142.334 162.812 124.042 153.666 104.777 153.666C85.5131 153.666 67.2212 162.812 53.2362 179.492C48.0494 175.607 43.3262 171.152 39.1118 166.224C50.7353 162.954 62.0344 158.263 71.8056 151.344C76.2975 148.17 80.4188 144.521 83.9846 140.635C81.6497 140.5 79.3182 140.311 76.9918 140.067C74.4909 142.436 71.6663 144.805 68.7954 146.843C61.8026 151.772 52.4019 157.079 35.4067 161.533C26.7472 149.876 20.8193 135.991 18.5965 120.828C29.2475 126.704 54.5317 136.513 104.777 136.892C155.068 136.513 180.352 126.704 190.957 120.828C188.781 135.944 182.853 149.876 174.194 161.533H174.194ZM175.074 121.728C165.072 125.14 148.817 129.12 124.552 130.684C119.921 124.192 116.401 116.847 113.901 108.507C142.01 104.859 165.581 84.5298 176.417 56.7134C186.235 71.1188 191.977 88.6524 191.977 107.56C191.977 109.74 191.885 111.872 191.745 114.004C189.059 115.758 183.826 118.743 175.074 121.729V121.728Z" fill="white"/>
</svg>
