<svg width="188" height="188" viewBox="0 0 188 188" fill="none" xmlns="http://www.w3.org/2000/svg">
<g clip-path="url(#clip0_9_114)">
<path d="M0.487793 93.9839C0.487901 75.4925 5.97132 57.4164 16.2446 42.0415C26.518 26.6665 41.1198 14.6832 58.2036 7.6069C75.2874 0.530615 94.0859 -1.32084 112.222 2.28668C130.358 5.89419 147.017 14.7986 160.092 27.874C173.168 40.9494 182.072 57.6084 185.68 75.7445C189.287 93.8805 187.436 112.679 180.36 129.763C173.283 146.847 161.3 161.449 145.925 171.722C130.55 181.995 112.474 187.479 93.9826 187.479C81.7046 187.479 69.5468 185.061 58.2034 180.362C46.86 175.664 36.5532 168.777 27.8713 160.095C19.1895 151.413 12.3027 141.106 7.60424 129.763C2.90576 118.42 0.487586 106.262 0.487793 93.9839Z" fill="white"/>
<path d="M93.9823 187.478C145.618 187.478 187.477 145.619 187.477 93.9839C187.477 42.3483 145.618 0.48938 93.9823 0.48938C42.3467 0.48938 0.487793 42.3483 0.487793 93.9839C0.487793 145.619 42.3467 187.478 93.9823 187.478Z" stroke="#1A1A18" stroke-width="0.412225" stroke-miterlimit="3.864"/>
<path d="M32.8315 93.9839C32.8315 81.8895 36.4179 70.0667 43.1372 60.0106C49.8565 49.9545 59.4069 42.1167 70.5806 37.4884C81.7544 32.8601 94.0496 31.6491 105.912 34.0086C117.774 36.3681 128.67 42.1921 137.222 50.7441C145.774 59.2961 151.598 70.1921 153.957 82.054C156.317 93.916 155.106 106.211 150.477 117.385C145.849 128.559 138.011 138.109 127.955 144.828C117.899 151.548 106.076 155.134 93.9818 155.134C77.7637 155.134 62.2099 148.692 50.742 137.224C39.2741 125.756 32.8315 110.202 32.8315 93.9839Z" fill="#E3001E"/>
<path d="M93.9818 155.134C127.754 155.134 155.132 127.756 155.132 93.9836C155.132 60.2111 127.754 32.833 93.9818 32.833C60.2093 32.833 32.8313 60.2111 32.8313 93.9836C32.8313 127.756 60.2093 155.134 93.9818 155.134Z" stroke="#1A1A18" stroke-width="0.412225" stroke-miterlimit="3.864"/>
<path d="M101.563 155.135C146.035 118.643 147.683 68.859 147.683 68.859C121.145 68.859 93.9821 32.833 93.9821 32.833C93.9821 32.833 66.957 69.2202 40.4573 69.2202C40.4573 69.2202 41.9281 118.39 86.4006 155.135H101.563Z" fill="white"/>
<mask id="mask0_9_114" style="mask-type:luminance" maskUnits="userSpaceOnUse" x="40" y="32" width="108" height="124">
<path d="M40.4575 69.2203C40.4575 69.2203 41.9284 118.39 86.4009 155.135H101.562C146.035 118.643 147.682 68.859 147.682 68.859C121.146 68.859 93.9813 32.8331 93.9813 32.8331C93.9813 32.8331 66.9573 69.2203 40.4575 69.2203Z" fill="white"/>
</mask>
<g mask="url(#mask0_9_114)">
<mask id="mask1_9_114" style="mask-type:luminance" maskUnits="userSpaceOnUse" x="-199" y="-200" width="1016" height="623">
<path d="M816.411 -199.62H-198.4V422.549H816.411V-199.62Z" fill="white"/>
</mask>
<g mask="url(#mask1_9_114)">
<path d="M182.897 32.8652H14.3943V160.599H182.897V32.8652Z" fill="#00417F"/>
<path d="M192.693 68.9126H11.1384V101.125H192.693V68.9126Z" fill="#FFED00"/>
<path d="M192.693 68.9126H11.1384V101.125H192.693V68.9126Z" stroke="#1A1A18" stroke-width="0.142804" stroke-miterlimit="3.864"/>
<path fill-rule="evenodd" clip-rule="evenodd" d="M93.8463 154.629V140.113C93.8463 140.113 90.8586 134.748 88.0059 136.012C85.1532 137.275 80.7857 139.042 78.6909 137.526C76.5961 136.012 76.0912 134.927 73.9954 134.927C71.9017 134.927 69.049 134.169 68.291 131.569C67.5331 128.969 70.3118 128.138 66.1963 126.369C62.0807 124.601 60.0599 122.432 60.5648 120.664C61.0698 118.895 62.0067 116.475 60.4909 115.211C58.975 113.948 58.797 110.338 60.8168 110.59C62.8386 110.843 64.3534 113.696 65.6903 114.201C67.0282 114.706 69.5539 114.201 71.1437 114.706C71.8073 114.878 72.4066 115.239 72.8682 115.745C73.3299 116.252 73.634 116.882 73.7434 117.559C74.2484 119.148 74.2484 119.148 76.0912 119.148C77.933 119.148 80.0277 119.475 80.5327 121.496C81.0376 123.516 82.3744 124.854 83.6384 124.854C84.9012 124.854 85.4801 125.611 86.49 127.958C87.5009 130.306 89.9098 135.671 93.8463 135.671V124.008C93.8463 124.008 91.6165 118.57 77.353 111.601C75.9578 111.076 74.4761 110.819 72.9855 110.843C71.3957 111.095 67.1021 109.832 66.5222 107.486C65.9433 105.138 68.796 104.811 65.9433 103.296C63.0906 101.78 63.8485 98.3487 66.1963 98.0957C68.543 97.8438 70.8907 98.8537 71.3957 100.695C71.9017 102.538 71.6487 103.222 73.7434 103.801C75.8382 104.38 76.0162 105.212 77.353 107.233C78.6909 109.254 90.5316 116.475 91.3635 118.064C92.1954 119.653 93.2063 119.326 93.4583 117.559C93.5157 116.32 93.3142 115.083 92.8666 113.927C92.419 112.771 91.735 111.72 90.8586 110.843C89.0168 109.254 86.669 105.569 88.0059 103.801C89.3427 102.033 90.0267 101.78 88.7638 99.9386C87.5009 98.0957 85.4062 93.9802 88.0059 91.3805C88.3633 91.0619 88.624 90.6491 88.758 90.1894C88.892 89.7297 88.894 89.2416 88.7638 88.7808C88.2773 87.4503 88.2438 85.9964 88.6683 84.6449C89.0928 83.2934 89.9517 82.1198 91.1116 81.3065C91.1116 81.3065 91.9435 79.7177 92.9533 77.37C93.9643 75.0222 96.6379 74.0123 97.9008 76.865C98.6495 78.3084 98.9151 79.9539 98.6587 81.5595C98.6587 81.5595 104.289 84.9911 100.427 89.6127C100.427 89.6127 105.879 95.243 99.1637 102.538C99.1637 102.538 103.026 107.812 97.5738 112.685C96.9983 113.443 96.5884 114.314 96.3709 115.24C96.1533 116.167 96.1329 117.129 96.311 118.064C97.0236 118.289 97.7844 118.313 98.5102 118.135C99.236 117.957 99.8989 117.583 100.427 117.054C102.195 115.211 111.836 109.507 111.836 109.507C111.836 109.507 112.921 103.296 116.027 103.548C119.131 103.801 119.384 102.106 119.889 101.275C120.394 100.443 121.805 96.7589 123.826 98.0957C125.847 99.4326 125.921 99.9386 124.332 103.043C123.733 104.162 123.364 105.39 123.247 106.654C123.247 108.244 121.657 110.843 117.542 111.095C114.551 111.465 111.665 112.436 109.059 113.948C109.059 113.948 97.1429 120.485 96.311 124.348V134.927C97.0322 135.058 97.7758 134.986 98.4583 134.718C99.1408 134.45 99.7351 133.998 100.175 133.411C102.016 131.316 102.521 126.622 104.616 125.864C106.711 125.106 105.879 126.696 107.974 124.601C110.068 122.506 109.059 120.158 112.163 120.158C115.269 120.158 114.69 118.57 116.784 117.306C118.88 116.043 118.122 115.538 121.226 115.791C124.332 116.043 124.005 115.464 125.847 114.454C127.69 113.443 131.805 110.085 128.952 116.043C126.1 122.001 127.69 122.179 127.184 123.516C126.679 124.854 125.847 125.538 122.489 126.622C119.131 127.705 121.152 129.979 120.647 131.316C120.364 132.194 119.816 132.963 119.08 133.519C118.343 134.074 117.454 134.39 116.532 134.422C113.932 134.674 113.753 133.99 112.416 136.012C111.079 138.032 112.342 138.789 108.732 137.779C105.121 136.768 98.6587 132.906 96.311 140.379V155.473L93.8463 156.723V154.629Z" fill="#2EAA47"/>
<path d="M93.8463 154.629V140.113C93.8463 140.113 90.8586 134.748 88.0059 136.012C85.1532 137.275 80.7857 139.042 78.6909 137.526C76.5961 136.012 76.0912 134.927 73.9954 134.927C71.9017 134.927 69.049 134.169 68.291 131.569C67.5331 128.969 70.3118 128.138 66.1963 126.369C62.0807 124.601 60.0599 122.432 60.5648 120.664C61.0698 118.895 62.0067 116.475 60.4909 115.211C58.975 113.948 58.797 110.338 60.8168 110.59C62.8386 110.843 64.3534 113.696 65.6903 114.201C67.0282 114.706 69.5539 114.201 71.1437 114.706C71.8073 114.878 72.4066 115.239 72.8682 115.745C73.3299 116.252 73.634 116.882 73.7434 117.559C74.2484 119.148 74.2484 119.148 76.0912 119.148C77.933 119.148 80.0277 119.475 80.5327 121.496C81.0376 123.516 82.3744 124.854 83.6384 124.854C84.9012 124.854 85.4801 125.611 86.49 127.958C87.5009 130.306 89.9098 135.671 93.8463 135.671V124.008C93.8463 124.008 91.6165 118.57 77.353 111.601C75.9578 111.076 74.4761 110.819 72.9855 110.843C71.3957 111.095 67.1021 109.832 66.5222 107.486C65.9433 105.138 68.796 104.811 65.9433 103.296C63.0906 101.78 63.8485 98.3487 66.1963 98.0957C68.543 97.8438 70.8907 98.8537 71.3957 100.695C71.9017 102.538 71.6487 103.222 73.7434 103.801C75.8382 104.38 76.0162 105.212 77.353 107.233C78.6909 109.254 90.5316 116.475 91.3635 118.064C92.1954 119.653 93.2063 119.326 93.4583 117.559C93.5157 116.32 93.3142 115.083 92.8666 113.927C92.419 112.771 91.7351 111.72 90.8586 110.843C89.0168 109.254 86.669 105.569 88.0059 103.801C89.3427 102.033 90.0267 101.78 88.7638 99.9386C87.5009 98.0957 85.4062 93.9802 88.0059 91.3805C88.3633 91.0619 88.624 90.6491 88.758 90.1894C88.892 89.7297 88.894 89.2416 88.7638 88.7808C88.2773 87.4503 88.2438 85.9964 88.6683 84.6449C89.0928 83.2934 89.9517 82.1198 91.1116 81.3065C91.1116 81.3065 91.9435 79.7177 92.9533 77.37C93.9643 75.0222 96.6379 74.0123 97.9008 76.865C98.6495 78.3084 98.9151 79.9539 98.6587 81.5595C98.6587 81.5595 104.289 84.9911 100.427 89.6127C100.427 89.6127 105.879 95.243 99.1637 102.538C99.1637 102.538 103.026 107.812 97.5738 112.685C96.9983 113.443 96.5884 114.314 96.3709 115.24C96.1533 116.167 96.1329 117.129 96.311 118.064C97.0236 118.289 97.7844 118.313 98.5102 118.135C99.236 117.957 99.8989 117.583 100.427 117.054C102.195 115.211 111.836 109.507 111.836 109.507C111.836 109.507 112.921 103.296 116.027 103.548C119.131 103.801 119.384 102.106 119.889 101.275C120.394 100.443 121.805 96.7589 123.826 98.0957C125.847 99.4326 125.921 99.9386 124.332 103.043C123.733 104.162 123.364 105.39 123.247 106.654C123.247 108.244 121.657 110.843 117.542 111.095C114.551 111.465 111.665 112.436 109.059 113.948C109.059 113.948 97.1429 120.485 96.311 124.348V134.927C97.0322 135.058 97.7758 134.986 98.4583 134.718C99.1408 134.45 99.7351 133.998 100.175 133.411C102.016 131.316 102.521 126.622 104.616 125.864C106.711 125.106 105.879 126.696 107.974 124.601C110.068 122.506 109.059 120.158 112.163 120.158C115.269 120.158 114.69 118.57 116.784 117.306C118.88 116.043 118.122 115.538 121.226 115.791C124.332 116.043 124.005 115.464 125.847 114.454C127.69 113.443 131.805 110.085 128.952 116.043C126.1 122.001 127.69 122.179 127.184 123.516C126.679 124.854 125.847 125.538 122.489 126.622C119.131 127.705 121.152 129.979 120.647 131.316C120.364 132.194 119.816 132.963 119.08 133.519C118.343 134.074 117.454 134.39 116.532 134.422C113.932 134.674 113.753 133.99 112.416 136.012C111.079 138.032 112.342 138.789 108.732 137.779C105.121 136.768 98.6587 132.906 96.311 140.379V155.473L93.8463 156.723V154.629Z" stroke="#1A1A18" stroke-width="0.0710102" stroke-miterlimit="3.864"/>
<path d="M67.533 119.401C67.533 119.401 70.6376 123.189 72.9854 123.769C75.3331 124.348 80.7855 128.538 81.5435 129.801" stroke="#1A1A18" stroke-width="0.0710102" stroke-miterlimit="3.864"/>
<path d="M95.8059 83.3279C95.8059 83.3279 93.1322 85.3487 94.469 92.1379C95.8059 98.9282 96.2368 104.307 94.469 106.148" stroke="#1A1A18" stroke-width="0.0710102" stroke-miterlimit="3.864"/>
<path d="M92.4482 97.5906C92.4482 97.5906 94.0381 102.464 97.9006 97.5906" stroke="#1A1A18" stroke-width="0.0710102" stroke-miterlimit="3.864"/>
<path d="M92.4558 85.7392L94.1443 88.0109" stroke="#1A1A18" stroke-width="0.0710102" stroke-miterlimit="3.864"/>
<path d="M121.984 120.259C121.984 120.259 117.692 124.525 113.629 125.762C111.082 126.648 108.97 128.472 107.722 130.862" stroke="#1A1A18" stroke-width="0.0710102" stroke-miterlimit="3.864"/>
</g>
</g>
<path d="M101.563 155.135C146.035 118.643 147.683 68.859 147.683 68.859C121.145 68.859 93.9821 32.833 93.9821 32.833C93.9821 32.833 66.957 69.2202 40.4573 69.2202C40.4573 69.2202 41.9281 118.39 86.4006 155.135H101.563Z" stroke="#1A1A18" stroke-width="0.142804" stroke-miterlimit="3.864"/>
<path d="M93.9818 155.134C127.754 155.134 155.132 127.756 155.132 93.9836C155.132 60.2111 127.754 32.833 93.9818 32.833C60.2093 32.833 32.8313 60.2111 32.8313 93.9836C32.8313 127.756 60.2093 155.134 93.9818 155.134Z" stroke="#1A1A18" stroke-width="0.412225" stroke-miterlimit="3.864"/>
<path fill-rule="evenodd" clip-rule="evenodd" d="M23.6551 144.992L37.7352 136.194L36.5324 134.27L30.1313 138.27L25.8109 131.357L24.1225 132.413L28.4417 139.326L24.1804 141.989L19.2726 134.133L17.5444 135.213L23.6551 144.992Z" fill="#1A1A18"/>
<path fill-rule="evenodd" clip-rule="evenodd" d="M15.5418 131.286L31.0413 125.337L26.6352 113.857L24.7978 114.563L28.4159 123.988L23.1415 126.013L19.8546 117.452L18.0611 118.141L21.3469 126.701L16.6556 128.502L13.1039 119.25L11.2021 119.981L15.5418 131.286Z" fill="#1A1A18"/>
<path fill-rule="evenodd" clip-rule="evenodd" d="M9.82574 114.877L26.2237 112.279L25.887 110.152L12.5991 112.257L24.5545 101.736L24.1589 99.2431L7.76099 101.841L8.09761 103.968L21.3855 101.863L9.40871 112.247L9.82574 114.877Z" fill="#1A1A18"/>
<path fill-rule="evenodd" clip-rule="evenodd" d="M7.49829 96.3325L24.0913 96.9114L24.5201 84.6237L22.553 84.5551L22.2003 94.6441L16.5538 94.4479L16.8744 85.283L14.9533 85.2165L14.6338 94.3803L9.61128 94.2056L9.95755 84.2999L7.92067 84.2292L7.49829 96.3325Z" fill="#1A1A18"/>
<path fill-rule="evenodd" clip-rule="evenodd" d="M8.90015 78.3501L24.9368 82.6469L25.5178 80.4771L18.6289 78.6321L19.954 73.6889C20.0983 73.0085 20.3847 72.3663 20.7944 71.8043C21.0959 71.4818 21.4844 71.2536 21.9128 71.1472C22.3413 71.0408 22.7914 71.0609 23.2087 71.205L25.9059 71.7839C26.3346 71.8924 26.7706 71.9691 27.2106 72.0133C27.4036 72.022 27.597 72.0177 27.7895 72.0004L28.5088 69.3161L28.1508 69.2206C28.003 69.3817 27.8199 69.5064 27.6158 69.5848C27.4118 69.6633 27.1924 69.6935 26.9747 69.673C26.4999 69.6575 26.0292 69.5797 25.5747 69.4415L23.4038 68.9559C22.6929 68.746 21.9369 68.7431 21.2243 68.9473C20.6688 69.1956 20.1907 69.5894 19.8403 70.0869C19.6989 69.3247 19.349 68.6166 18.8294 68.0414C18.2291 67.4227 17.4618 66.9921 16.621 66.8021C15.8522 66.518 15.013 66.4857 14.2247 66.7098C13.4363 66.9339 12.7396 67.4029 12.2353 68.0489C11.5884 68.9013 11.1298 69.8813 10.8899 70.9241L8.90015 78.3501Z" fill="#1A1A18"/>
<path fill-rule="evenodd" clip-rule="evenodd" d="M18.1662 73.1138L16.8176 78.1459L11.3384 76.6783L12.7578 71.3771C12.8951 70.7554 13.1743 70.1738 13.5736 69.6779C13.9061 69.323 14.3358 69.074 14.8091 68.962C15.2824 68.8501 15.7781 68.8802 16.2344 69.0486C16.6593 69.119 17.0608 69.2911 17.4049 69.5501C17.7489 69.8092 18.0252 70.1477 18.2102 70.5366C18.4617 71.3796 18.4463 72.2798 18.1662 73.1138Z" fill="white"/>
<path fill-rule="evenodd" clip-rule="evenodd" d="M14.2195 60.9712L29.1423 68.2493L32.218 61.9436C32.6834 61.1771 32.9574 60.3099 33.0169 59.4151C33.0764 58.5204 32.9197 57.6245 32.5599 56.8031C32.1161 55.8475 31.3545 55.0754 30.4051 54.6183C29.9242 54.3467 29.3921 54.178 28.8425 54.1228C28.293 54.0676 27.7379 54.1272 27.2126 54.2978C26.5248 54.5826 25.9046 55.0088 25.3923 55.5489C25.3969 54.9915 25.3003 54.4379 25.1071 53.9151C24.7214 53.0526 24.0275 52.3652 23.1614 51.9875C22.4123 51.5974 21.557 51.4605 20.7236 51.5973C19.9592 51.7732 19.2504 52.1362 18.6608 52.6535C18.0712 53.1708 17.6193 53.8264 17.3456 54.5615L14.2195 60.9712Z" fill="#1A1A18"/>
<path fill-rule="evenodd" clip-rule="evenodd" d="M23.2866 58.386L21.4899 62.0695L16.8694 59.8161L18.6254 56.2162C18.9296 55.5269 19.3507 54.8955 19.87 54.3497C20.2179 54.047 20.6529 53.8625 21.1123 53.8226C21.5717 53.7827 22.032 53.8896 22.4268 54.1278C22.8555 54.2908 23.2251 54.5792 23.4875 54.9553C23.7498 55.3315 23.8928 55.7779 23.8977 56.2365C23.8659 56.9911 23.6565 57.7275 23.2866 58.386Z" fill="white"/>
<path fill-rule="evenodd" clip-rule="evenodd" d="M30.5003 61.08L28.3787 65.4293L23.1343 62.8714L25.0929 58.8545C25.4046 58.1482 25.8482 57.5079 26.3997 56.9677C26.7764 56.5922 27.2663 56.3515 27.7937 56.2826C28.321 56.2138 28.8564 56.3209 29.3167 56.5871C29.902 56.8727 30.3893 57.3257 30.7168 57.8886C30.9433 58.398 31.042 58.955 31.0043 59.5112C30.9665 60.0674 30.7935 60.6059 30.5003 61.08Z" fill="white"/>
<path fill-rule="evenodd" clip-rule="evenodd" d="M25.9204 41.4183L34.8891 56.726L36.331 54.9442L33.5994 50.4073L37.7375 45.2969L42.656 47.1344L44.2148 45.209L27.5231 39.4393L25.9204 41.4183Z" fill="#1A1A18"/>
<path fill-rule="evenodd" clip-rule="evenodd" d="M35.8495 44.7213L32.5851 48.7522L28.5564 42.0638L35.8495 44.7213Z" fill="white"/>
<path fill-rule="evenodd" clip-rule="evenodd" d="M34.3132 31.71L44.7624 44.613L46.5259 43.184L41.6438 37.1559L48.3559 31.7207L53.238 37.7488L55.0015 36.3208L44.5523 23.4188L42.7888 24.8467L47.1027 30.1726L40.3906 35.609L36.0767 30.282L34.3132 31.71Z" fill="#1A1A18"/>
<path fill-rule="evenodd" clip-rule="evenodd" d="M60.8342 16.0188C59.1007 15.5508 57.2527 15.7858 55.6916 16.6727C54.6843 17.1119 53.7923 17.7779 53.085 18.6189C52.3778 19.4598 51.8745 20.4529 51.6146 21.5205C51.156 23.6479 51.4719 25.8692 52.5055 27.7844C53.9174 30.6768 55.7838 32.4971 58.0962 33.224C59.5077 33.6054 61.0073 33.4923 62.3457 32.9034L61.9952 34.8267L62.5526 35.07C62.6621 34.9515 62.7807 34.8418 62.9075 34.742C63.0196 34.6449 63.1462 34.566 63.2827 34.5083C63.5396 34.3696 63.8368 34.3249 64.1232 34.3818C64.2722 34.4207 64.4082 34.4988 64.517 34.6079C64.6258 34.717 64.7035 34.8531 64.7421 35.0023C64.7806 35.1515 64.7787 35.3082 64.7364 35.4564C64.6942 35.6046 64.6131 35.7387 64.5016 35.8451C64.3407 36.0318 64.1414 36.1818 63.9173 36.2846C63.657 36.3939 63.3856 36.4748 63.108 36.5258C62.9418 36.5548 62.7027 36.5944 62.4122 36.633L62.4551 37.6172C62.9 37.5797 63.2323 37.5207 63.4703 37.4821C63.8845 37.4 64.2863 37.2645 64.6656 37.079C65.3633 36.8027 65.9333 36.2769 66.2651 35.6039C66.3734 35.3451 66.4253 35.0662 66.4173 34.7858C66.4094 34.5054 66.3418 34.2298 66.219 33.9776C66.1212 33.7588 65.9796 33.5623 65.8029 33.4002C65.6263 33.2382 65.4184 33.114 65.192 33.0353C64.7251 32.909 64.2276 32.9674 63.8026 33.1982C63.5465 33.3165 63.3109 33.4751 63.1047 33.6678L63.3245 32.4264C64.1972 32.0381 64.9746 31.4639 65.6023 30.744C66.23 30.024 66.6929 29.1757 66.9587 28.2583C67.441 26.6812 67.3771 24.9875 66.7775 23.4512L64.8007 24.415C65.0712 25.3357 65.1568 26.3009 65.0526 27.2548C64.9502 27.9918 64.6588 28.6897 64.2066 29.2805C63.7544 29.8714 63.1569 30.3351 62.4722 30.6264C61.8019 31.0123 61.0473 31.228 60.2743 31.2548C59.5014 31.2815 58.7336 31.1184 58.0383 30.7797C56.5666 29.9484 55.4051 28.6613 54.7289 27.1123C53.7828 25.4796 53.4423 23.5658 53.7673 21.707C53.9664 20.9885 54.3211 20.3225 54.8064 19.7564C55.2916 19.1902 55.8954 18.7377 56.5749 18.4309C57.5475 17.8707 58.6893 17.6801 59.7911 17.8938C60.7669 18.1594 61.6321 18.7304 62.26 19.5233L64.2164 18.5692C63.4427 17.3304 62.2379 16.4219 60.8342 16.0188Z" fill="#1A1A18"/>
<path fill-rule="evenodd" clip-rule="evenodd" d="M66.6353 12.4679L70.932 28.5045L82.8091 25.3227L82.2999 23.4209L72.5476 26.0346L71.0853 20.5768L79.9425 18.2033L79.4451 16.3476L70.5879 18.72L69.2875 13.8669L78.8608 11.3015L78.3334 9.33325L66.6353 12.4679Z" fill="#1A1A18"/>
<path fill-rule="evenodd" clip-rule="evenodd" d="M96.3015 19.3162L94.1789 19.1307C94.0648 19.9183 94.1276 20.7214 94.3627 21.4817C94.5979 22.242 94.9994 22.9404 95.5382 23.5261C96.788 24.7634 98.4638 25.4756 100.222 25.5168C101.843 25.6981 103.482 25.4315 104.961 24.746C105.662 24.3942 106.252 23.8564 106.666 23.1915C107.081 22.5266 107.305 21.7604 107.313 20.9767C107.404 20.3329 107.335 19.6766 107.113 19.0656C106.891 18.4545 106.522 17.9074 106.039 17.4722C105.291 16.8908 104.436 16.4608 103.524 16.2062L101.263 15.4729C100.248 15.1776 99.2627 14.7882 98.3202 14.3097C98.0187 14.1102 97.78 13.8292 97.632 13.4993C97.484 13.1695 97.4326 12.8044 97.484 12.4465C97.5136 12.0815 97.6201 11.7268 97.7963 11.4057C97.9726 11.0846 98.2146 10.8044 98.5067 10.5833C99.3732 10.0195 100.424 9.81172 101.44 10.0033C102.086 9.99558 102.725 10.1353 103.31 10.4119C103.894 10.6885 104.407 11.0947 104.81 11.5996C105.167 12.2389 105.352 12.96 105.347 13.6922L107.446 13.8756C107.58 13.1122 107.515 12.3272 107.258 11.5962C107 10.8652 106.558 10.2129 105.976 9.7021C104.744 8.73099 103.244 8.16178 101.678 8.07152C100.097 7.83528 98.4851 8.20936 97.1698 9.11784C96.6232 9.53274 96.1734 10.0616 95.8515 10.6676C95.5296 11.2737 95.3433 11.9425 95.3056 12.6277C95.2231 13.238 95.3015 13.8592 95.533 14.4299C95.7644 15.0006 96.141 15.5009 96.6253 15.8813C97.543 16.4939 98.5553 16.9514 99.6216 17.2353L101.838 17.9407C102.762 18.1962 103.637 18.6027 104.429 19.1436C104.698 19.3972 104.899 19.714 105.014 20.0652C105.13 20.4164 105.156 20.7909 105.09 21.1547C105.04 21.7371 104.792 22.2849 104.387 22.7063C103.982 23.1278 103.445 23.3975 102.865 23.4703C102.109 23.6624 101.325 23.7197 100.549 23.6397C98.6589 23.451 97.4143 22.8067 96.7475 21.6564C96.393 20.93 96.239 20.122 96.3015 19.3162Z" fill="#1A1A18"/>
<path fill-rule="evenodd" clip-rule="evenodd" d="M113.468 10.211L108.614 26.0879L110.783 26.7515L112.835 20.0416L117.817 21.5649C118.461 21.814 119.152 21.9178 119.841 21.8691C120.53 21.8203 121.199 21.6202 121.802 21.283C122.845 20.6063 123.607 19.5751 123.949 18.3799C124.176 17.7746 124.27 17.1276 124.225 16.4827C124.179 15.8379 123.996 15.2104 123.686 14.6428C122.989 13.5298 121.892 12.7264 120.62 12.3979L113.468 10.211Z" fill="#1A1A18"/>
<path fill-rule="evenodd" clip-rule="evenodd" d="M121.197 14.9471C121.563 15.3003 121.814 15.7558 121.916 16.2539C122.019 16.752 121.969 17.2695 121.773 17.7386C121.69 18.1603 121.503 18.5544 121.228 18.885C120.953 19.2156 120.6 19.472 120.201 19.6308C119.364 19.8485 118.481 19.8146 117.664 19.5332L113.39 18.2264L115.076 12.7129L119.35 14.0187C120.017 14.2128 120.643 14.5274 121.197 14.9471Z" fill="white"/>
<path fill-rule="evenodd" clip-rule="evenodd" d="M140.811 24.3647C140.485 22.0394 139.041 20.1537 136.49 18.7397C135.441 18.0843 134.244 17.7045 133.009 17.6355C131.774 17.5665 130.542 17.8106 129.427 18.3452C127.603 19.2795 126.117 20.7599 125.174 22.5797C124.03 24.4907 123.579 26.7378 123.899 28.9423C124.206 30.0609 124.742 31.1035 125.473 32.0045C126.204 32.9055 127.114 33.6452 128.145 34.1769C129.176 34.7087 130.306 35.021 131.464 35.094C132.622 35.1671 133.782 34.9995 134.872 34.6016C136.877 33.6622 138.51 32.0786 139.51 30.1033C140.554 28.3822 141.011 26.3681 140.811 24.3647Z" fill="#1A1A18"/>
<path fill-rule="evenodd" clip-rule="evenodd" d="M133.94 32.6546C133.198 33.0547 132.362 33.2462 131.52 33.2087C130.679 33.1711 129.863 32.9059 129.16 32.4412C128.377 32.0978 127.688 31.5685 127.155 30.8993C126.622 30.23 126.259 29.4408 126.1 28.6001C125.934 26.9404 126.302 25.2711 127.152 23.836C127.941 22.1245 129.351 20.7765 131.095 20.0645C131.843 19.8146 132.637 19.7302 133.421 19.8172C134.205 19.9042 134.96 20.1605 135.635 20.5684C136.341 20.9141 136.958 21.4164 137.44 22.0369C137.922 22.6574 138.256 23.3798 138.416 24.149C138.721 25.8282 138.393 27.5607 137.494 29.0118C136.67 30.5319 135.439 31.793 133.94 32.6546Z" fill="white"/>
<path fill-rule="evenodd" clip-rule="evenodd" d="M148.016 26.7792L136.693 38.9211L138.336 40.453L143.2 35.2376L146.942 38.7281C147.475 39.1748 147.907 39.729 148.211 40.3544C148.355 40.7719 148.374 41.2221 148.267 41.6504C148.16 42.0787 147.931 42.4668 147.608 42.7676L145.83 44.8774C145.533 45.2049 145.26 45.5539 145.015 45.9215C144.916 46.088 144.829 46.261 144.754 46.4393L146.787 48.3336L147.039 48.0635C146.966 47.8572 146.942 47.637 146.969 47.42C146.995 47.203 147.072 46.995 147.192 46.8124C147.428 46.4003 147.718 46.0211 148.054 45.6846L149.502 43.9961C150.021 43.4671 150.378 42.8011 150.532 42.0761C150.574 41.4691 150.451 40.862 150.176 40.319C150.915 40.5511 151.704 40.5745 152.456 40.3866C153.284 40.147 154.024 39.6713 154.587 39.0176C155.199 38.4726 155.621 37.747 155.794 36.9459C155.966 36.1447 155.879 35.3095 155.545 34.5611C155.097 33.5892 154.447 32.7238 153.638 32.0225L148.016 26.7792Z" fill="#1A1A18"/>
<path fill-rule="evenodd" clip-rule="evenodd" d="M148.29 37.4189L144.479 33.8662L148.348 29.7163L152.362 33.4599C152.847 33.8721 153.23 34.3914 153.479 34.9768C153.636 35.4372 153.654 35.9337 153.531 36.4042C153.408 36.8747 153.148 37.2985 152.786 37.6226C152.524 37.9645 152.184 38.238 151.794 38.42C151.403 38.602 150.975 38.687 150.545 38.6679C149.682 38.4941 148.895 38.0579 148.29 37.4189Z" fill="white"/>
<path fill-rule="evenodd" clip-rule="evenodd" d="M168.015 49.598L153.356 57.3928L154.388 59.3343L159.5 56.6166L162.999 57.7723L158.366 66.8182L159.737 69.3943L165.15 58.4648L174.309 61.4365L172.852 58.6964L161.912 55.3345L169.047 51.5405L168.015 49.598Z" fill="#1A1A18"/>
<path fill-rule="evenodd" clip-rule="evenodd" d="M176.397 68.1628L175.804 65.9479L166.79 68.3632C165.214 68.7 163.735 69.3915 162.465 70.3851C160.777 71.8688 160.306 73.9604 161.031 76.6662C161.763 79.3956 163.216 80.9715 165.42 81.4121C167.016 81.6339 168.641 81.4931 170.176 81.0004L179.189 78.5862L178.596 76.3714L168.688 79.0268C167.745 79.3238 166.746 79.3944 165.771 79.2327C165.027 79.0254 164.36 78.6081 163.848 78.0308C163.336 77.4534 163.001 76.7406 162.885 75.9779C162.659 75.3374 162.621 74.6459 162.776 73.9846C162.93 73.3233 163.27 72.7198 163.755 72.2451C164.526 71.5379 165.468 71.0455 166.489 70.8171L176.397 68.1628Z" fill="#1A1A18"/>
<path fill-rule="evenodd" clip-rule="evenodd" d="M179.937 83.8079L163.375 84.9657L164.119 95.6154L166.083 95.4781L165.496 87.0691L180.094 86.0485L179.937 83.8079Z" fill="#1A1A18"/>
<path d="M181.219 106.085L180.961 108.176L183.305 108.465L183.563 106.373L181.219 106.085Z" fill="#1A1A18"/>
<path d="M181.673 102.384L181.416 104.476L183.76 104.764L184.017 102.673L181.673 102.384Z" fill="#1A1A18"/>
<path fill-rule="evenodd" clip-rule="evenodd" d="M180.248 100.88L180.528 98.6052L171.265 97.4678C169.678 97.1889 168.047 97.2758 166.498 97.7218C164.377 98.4648 163.157 100.228 162.815 103.009C162.471 105.813 163.228 107.819 165.106 109.053C166.504 109.856 168.063 110.334 169.67 110.453L178.933 111.591L179.212 109.315L169.03 108.065C168.045 107.988 167.091 107.679 166.248 107.163C165.637 106.693 165.174 106.056 164.916 105.329C164.658 104.602 164.615 103.816 164.792 103.065C164.823 102.387 165.047 101.731 165.437 101.176C165.828 100.62 166.369 100.188 166.996 99.9292C167.976 99.5626 169.035 99.4595 170.067 99.6301L180.248 100.88Z" fill="#1A1A18"/>
<path fill-rule="evenodd" clip-rule="evenodd" d="M177.747 117.051L162.049 111.646L159.765 118.279C159.396 119.097 159.23 119.991 159.28 120.886C159.329 121.781 159.594 122.652 160.051 123.423C160.608 124.317 161.458 124.991 162.456 125.329C162.966 125.54 163.515 125.643 164.067 125.631C164.62 125.619 165.163 125.492 165.664 125.258C166.312 124.892 166.875 124.393 167.318 123.795C167.381 124.349 167.545 124.887 167.801 125.382C168.289 126.191 169.061 126.789 169.966 127.058C170.758 127.354 171.623 127.385 172.434 127.148C173.171 126.88 173.83 126.433 174.352 125.848C174.874 125.263 175.243 124.557 175.425 123.794L177.747 117.051Z" fill="#1A1A18"/>
<path fill-rule="evenodd" clip-rule="evenodd" d="M169.063 120.722L170.397 116.847L175.258 118.52L173.953 122.307C173.735 123.029 173.394 123.707 172.945 124.312C172.636 124.655 172.227 124.891 171.776 124.986C171.325 125.082 170.856 125.032 170.435 124.844C169.99 124.734 169.588 124.493 169.282 124.152C168.975 123.81 168.779 123.385 168.719 122.93C168.658 122.177 168.776 121.421 169.063 120.722Z" fill="white"/>
<path fill-rule="evenodd" clip-rule="evenodd" d="M161.574 118.927L163.15 114.352L168.667 116.251L167.212 120.476C166.99 121.216 166.628 121.906 166.145 122.509C165.817 122.927 165.36 123.226 164.845 123.359C164.33 123.491 163.786 123.451 163.296 123.243C162.68 123.031 162.142 122.64 161.748 122.122C161.461 121.644 161.296 121.103 161.265 120.546C161.235 119.989 161.341 119.434 161.574 118.927Z" fill="white"/>
<path d="M168.884 140.752L167.799 142.558L169.823 143.775L170.909 141.969L168.884 140.752Z" fill="#1A1A18"/>
<path d="M170.804 137.557L169.719 139.363L171.743 140.58L172.829 138.774L170.804 137.557Z" fill="#1A1A18"/>
<path fill-rule="evenodd" clip-rule="evenodd" d="M170.114 135.603L171.295 133.638L163.296 128.832C161.959 127.931 160.434 127.347 158.837 127.125C156.598 126.941 154.767 128.055 153.324 130.457C151.868 132.879 151.744 135.018 152.958 136.909C153.907 138.212 155.137 139.284 156.557 140.045L164.557 144.852L165.737 142.887L156.944 137.603C156.075 137.132 155.33 136.463 154.77 135.649C154.403 134.97 154.239 134.2 154.298 133.431C154.358 132.662 154.638 131.926 155.106 131.312C155.41 130.705 155.881 130.197 156.464 129.849C157.047 129.5 157.717 129.325 158.396 129.344C159.44 129.407 160.449 129.744 161.321 130.32L170.114 135.603Z" fill="#1A1A18"/>
<path fill-rule="evenodd" clip-rule="evenodd" d="M68.8769 162.433L72.3986 163.856L68.104 174.485L70.1227 175.301L76.1604 160.355L74.6788 159.756C74.2205 160.573 73.4728 161.189 72.583 161.482C71.5211 161.514 70.4629 161.342 69.4666 160.973L68.8769 162.433Z" fill="#1A1A18"/>
<path fill-rule="evenodd" clip-rule="evenodd" d="M81.4849 174.668L79.4491 174.345C79.344 174.913 79.3538 175.495 79.4781 176.059C79.6024 176.622 79.8386 177.155 80.1728 177.626C80.5852 178.137 81.0964 178.56 81.6759 178.869C82.2553 179.178 82.8912 179.367 83.5454 179.426C85.8825 179.773 87.7285 178.776 89.1104 176.415C89.986 174.851 90.5599 173.137 90.8021 171.361C91.0889 169.885 91.0739 168.367 90.7581 166.898C90.5488 165.87 90.0152 164.937 89.2357 164.235C88.4562 163.533 87.4721 163.1 86.4281 163C85.7009 162.83 84.944 162.835 84.2189 163.014C83.4939 163.192 82.8213 163.539 82.2557 164.027C81.201 164.971 80.5153 166.258 80.3207 167.66C80.0473 169.012 80.3128 170.417 81.0604 171.576C81.4576 172.136 81.9687 172.605 82.5601 172.953C83.1515 173.302 83.8099 173.521 84.492 173.597C85.2238 173.703 85.9691 173.67 86.6886 173.499C87.4275 173.282 88.0886 172.857 88.5936 172.276C87.9086 174.677 87.171 176.225 86.381 176.92C86.0318 177.246 85.6127 177.488 85.1558 177.627C84.6989 177.766 84.2163 177.798 83.7448 177.722C83.2601 177.651 82.7994 177.465 82.4005 177.181C82.0323 176.886 81.7523 176.496 81.5908 176.052C81.4294 175.609 81.3927 175.13 81.4849 174.668Z" fill="#1A1A18"/>
<path fill-rule="evenodd" clip-rule="evenodd" d="M87.3452 171.422C86.6557 171.835 85.8416 171.989 85.0489 171.856C84.5949 171.828 84.1534 171.697 83.7583 171.471C83.3631 171.246 83.025 170.933 82.7697 170.557C82.3489 169.763 82.2203 168.846 82.4063 167.967C82.5105 166.998 82.9694 166.102 83.6949 165.451C84.037 165.168 84.4384 164.966 84.8694 164.859C85.3004 164.753 85.7498 164.745 86.1842 164.836C86.603 164.888 87.0072 165.023 87.3726 165.234C87.738 165.445 88.0572 165.728 88.3111 166.065C88.5761 166.47 88.755 166.925 88.8367 167.401C88.9184 167.878 88.9011 168.366 88.786 168.836C88.7543 169.347 88.6084 169.845 88.359 170.293C88.1097 170.74 87.7633 171.126 87.3452 171.422Z" fill="white"/>
<path fill-rule="evenodd" clip-rule="evenodd" d="M103.657 165.728C103.164 164.942 102.452 164.317 101.609 163.929C100.766 163.54 99.8277 163.405 98.9094 163.54C96.5562 163.746 95.0704 165.108 94.4079 167.63C94.0409 169.2 93.939 170.819 94.1066 172.422C94.181 174.387 94.7651 176.299 95.8015 177.97C96.2729 178.723 96.9508 179.325 97.7546 179.704C98.5583 180.083 99.4541 180.223 100.335 180.108C101.336 180.051 102.295 179.684 103.078 179.057C103.86 178.43 104.428 177.575 104.703 176.611C105.272 174.825 105.448 172.938 105.218 171.078C105.143 169.194 104.607 167.357 103.657 165.728Z" fill="#1A1A18"/>
<path fill-rule="evenodd" clip-rule="evenodd" d="M102.543 176.636C102.327 177.092 101.994 177.483 101.578 177.768C101.162 178.054 100.678 178.224 100.175 178.262C99.52 178.303 98.8702 178.125 98.3282 177.755C97.7863 177.386 97.3831 176.846 97.1825 176.222C96.6808 174.97 96.3843 173.646 96.3045 172.3C96.0877 170.613 96.2228 168.899 96.7012 167.267C96.8739 166.735 97.2034 166.267 97.6464 165.925C98.0895 165.584 98.6254 165.384 99.184 165.352C99.7544 165.263 100.338 165.367 100.843 165.648C101.347 165.928 101.744 166.368 101.97 166.899C102.58 168.314 102.94 169.824 103.035 171.362C103.233 173.903 103.085 175.659 102.543 176.636Z" fill="white"/>
<path fill-rule="evenodd" clip-rule="evenodd" d="M116.261 159.11L105.684 162.96L106.39 164.897L114.79 161.84C114.126 163.615 113.638 165.451 113.335 167.322C112.729 170.568 112.713 173.897 113.288 177.148L115.4 176.381C115.177 174.687 115.027 173.459 114.969 172.692C114.823 169.762 115.108 166.826 115.815 163.979C116.068 162.885 116.421 161.815 116.871 160.786L116.261 159.11Z" fill="#1A1A18"/>
<path d="M50.7338 165.179L48.8556 159.035L42.4319 158.924L47.6945 155.238L45.8163 149.094L50.9471 152.961L56.2097 149.275L54.1182 155.351L59.249 159.216L52.8253 159.105L50.7338 165.179Z" fill="#1A1A18"/>
<path d="M137.498 165.179L135.62 159.035L129.197 158.924L134.459 155.238L132.581 149.094L137.712 152.961L142.974 149.275L140.883 155.351L146.014 159.216L139.59 159.105L137.498 165.179Z" fill="#1A1A18"/>
</g>
<defs>
<clipPath id="clip0_9_114">
<rect width="188" height="188" fill="white"/>
</clipPath>
</defs>
</svg>
