<?xml version="1.0" encoding="UTF-8" standalone="no"?>
<svg xmlns:rdf="http://www.w3.org/1999/02/22-rdf-syntax-ns#" xmlns="http://www.w3.org/2000/svg" height="200.835" width="200.83058" version="1.1" xmlns:cc="http://creativecommons.org/ns#" xmlns:dc="http://purl.org/dc/elements/1.1/" viewBox="0 0 200.83058 200.835"><circle cx="100.68767" cy="99.70001" r="97.43682" fill="#fff"/><polygon points="100.143 62.993 80.788 76.461 87.622 53.891 68.826 39.643 92.401 39.165 100.143 16.888 107.885 39.165 131.46 39.643 112.672 53.891 119.506 76.461 100.143 62.993"/><polygon points="100.143 60.553 115.914 71.527 110.352 53.134 125.663 41.53 106.45 41.14 100.143 22.991 93.836 41.14 74.628 41.53 89.939 53.134 84.376 71.527 100.143 60.553" fill="#ffe700"/><path d="M200.83058,100.4175A100.41529,100.41529,0,1,0,100.4175,200.835,100.41913,100.41913,0,0,0,200.83058,100.4175m-93.20274,89.37171,68.95427-136.261c1.74056-1.92659,3.676.23031,6.38654,6.21381,11.88286,26.21051,12.50734,56.33177-.70865,82.312a91.921,91.921,0,0,1-68.87454,49.30746q-7.28118,1.28884-5.75762-1.57226m-7.14833-47.84147L44.08574,32.23387c-.96107-1.869-.86807-3.831,1.45269-5.5849a91.2394,91.2394,0,0,1,108.68635-.98323c3.04269,2.21891,2.88768,6.33783,1.60328,8.84018ZM94.5713,189.78921q1.54793,2.85-5.74435,1.621a91.938,91.938,0,0,1-69.3263-48.66969C6.04108,116.8799,6.3954,86.75864,18.03467,60.43741c2.6618-6.01008,4.5751-8.18026,6.33339-6.27139Z"/></svg>