<svg height="333.658695" viewBox="0 0 270.76767 301.69537" width="299.70746" xmlns="http://www.w3.org/2000/svg"><path d="m270.76767 26.20429v10.6502c0 25.12122-.1805 44.28556-.99281 62.27656-.1805 3.79075-.361 7.22047-.6017 10.46968a340.84879 340.84879 0 0 1 -4.66322 39.71259c-.66188 3.48989-1.35384 6.9798-2.16615 10.34935-8.1832 35.1998-23.85764 62.36682-50.784 87.9995-1.47418 1.38391-2.97845 2.79793-4.54287 4.18186-1.62461 1.50426-3.45981 3.09878-5.71621 5.02425-.66188.6017-1.35383 1.17333-2.04579 1.71486l-.15043.15043c-15.70449 13.11718-34.89892 26.20429-58.66631 40.01343l-5.05432 2.94835-5.05433-2.94835c-23.76739-13.80916-42.93172-26.92635-58.60616-39.98337-.692-.57163-1.47417-1.23349-2.25639-1.89537-2.0458-1.775-3.94118-3.39964-5.68612-4.99415-1.47418-1.32376-3.03862-2.73776-4.603-4.242-26.89629-25.6327-42.54064-52.76964-50.75393-87.96944-.78221-3.36955-1.53435-6.85944-2.16614-10.34935a340.77 340.77 0 0 1 -4.6933-39.77276c-.2106-3.21913-.39111-6.61877-.57163-10.43961-.81235-17.9609-.99286-37.15532-.99286-62.27655v-36.8244h270.76767z" fill="#00803F"/><path d="m260.6891 10.07857h-250.61053v26.77592c0 22.80466.12035 43.23257.99282 61.82528.15043 3.4899.33094 6.88953.57162 10.229a329.98764 329.98764 0 0 0 4.54288 38.59943c.63179 3.33947 1.32375 6.64885 2.07589 9.868 7.37089 31.64973 21.36056 57.70359 47.92587 83.00532 1.414 1.35384 2.85811 2.70768 4.36237 4.03144 1.775 1.62461 3.61024 3.21913 5.50561 4.84373.692.6017 1.414 1.20341 2.13606 1.80511 15.3435 12.81633 34.14681 25.60258 57.19215 39.02064 23.07542-13.418 41.90881-26.23439 57.25231-39.05072.692-.6017 1.38392-1.17333 2.0759-1.775 1.89537-1.62462 3.76066-3.21914 5.5357-4.87383 1.47419-1.32376 2.94835-2.6776 4.33229-4.00134 26.56531-25.30173 40.555-51.38568 47.92587-83.03542.75214-3.24921 1.44409-6.52851 2.0759-9.868a328.6777 328.6777 0 0 0 4.54287-38.56936c.24068-3.33947.4212-6.76919.57163-10.229.87248-18.59271.99281-39.02063.99281-61.82528v-10.62011q-.00003-7.89738-.00002-16.15581zm-239.08786 96.15261a442.81706 442.81706 0 0 1 65.37536-11.37224 110.45014 110.45014 0 0 1 8.9955 18.59271 113.66608 113.66608 0 0 1 5.53569 20.51817 464.36108 464.36108 0 0 0 -75.484 11.10147 318.33458 318.33458 0 0 1 -4.42255-38.84011zm54.6349 129.84815c-19.94655-18.26178-32.91331-36.91467-41.24694-58.215a162.28546 162.28546 0 0 1 -6.9497-22.89491 455.85483 455.85483 0 0 1 74.70179-10.98113c2.34665 29.69412-6.64885 61.40403-26.50515 92.09104zm54.09337-.4212q-22.02243.18051-43.383 2.28647c19.46519-31.40906 28.22-63.841 25.81318-94.528q8.70969-.40614 17.56981-.48136v92.7229zm0-102.80146c-6.28782.03009-12.51548.2106-18.74314.51145a123.54248 123.54248 0 0 0 -6.19757-23.49661 126.29172 126.29172 0 0 0 -7.3408-16.00539c10.62011-.8123 21.39065-1.29366 32.28152-1.38392zm10.07858-40.34438c10.89088.09025 21.69149.57161 32.34169 1.38392a122.22253 122.22253 0 0 0 -7.34082 16.00538 120.77576 120.77576 0 0 0 -6.19756 23.49662q-9.34149-.45128-18.80331-.51145zm0 143.14584v-92.72288c5.9268.03008 11.82351.2106 17.63.48136-2.40682 30.687 6.348 63.119 25.81318 94.528q-21.34554-2.0759-43.44318-2.28648zm95.34029-57.79385c-8.30353 21.30038-21.27031 39.92319-41.18678 58.185-19.82622-30.65693-28.85181-62.36682-26.47506-92.061a458.36846 458.36846 0 0 1 74.64162 10.98113 158.46666 158.46666 0 0 1 -6.97978 22.89487zm9.02559-32.82306a470.78479 470.78479 0 0 0 -75.42384-11.10148 111.321 111.321 0 0 1 14.50111-39.11088 442.689 442.689 0 0 1 65.31518 11.37224 330.16549 330.16549 0 0 1 -4.39242 38.84012z"/><path d="m249.16643 106.23118a330.90922 330.90922 0 0 1 -4.39243 38.84012 470.78442 470.78442 0 0 0 -75.42385-11.10147 111.32132 111.32132 0 0 1 14.50112-39.11088 438.09656 438.09656 0 0 1 65.31516 11.37223z" fill="#fff"/><path d="m242.72817 154.93928a166.80617 166.80617 0 0 1 -6.97979 22.925c-8.30353 21.30038-21.27031 39.92319-41.18678 58.185-19.82622-30.65693-28.85181-62.36682-26.47506-92.061a455.14732 455.14732 0 0 1 74.64163 10.951z" fill="#00803f"/><path d="m183.85124 237.94462c-14.23034-1.38392-28.76153-2.136-43.44316-2.28648v-92.72289c5.9268.03008 11.82352.2106 17.63.48136-2.40684 30.687 6.37807 63.11895 25.81316 94.52801z" fill="#fc8231"/><path d="m172.74978 93.89621a122.22253 122.22253 0 0 0 -7.34082 16.00538 120.77576 120.77576 0 0 0 -6.19756 23.49662q-9.34149-.45128-18.80331-.51145v-40.37447c10.92091.09026 21.72158.57162 32.34169 1.38392z" fill="#fc8231"/><path d="m130.32951 92.51229v40.37447c-6.28782.03008-12.51548.2106-18.74314.51145a123.54257 123.54257 0 0 0 -6.19757-23.49662 126.29223 126.29223 0 0 0 -7.3408-16.00538c10.6201-.8123 21.42072-1.29366 32.28151-1.38392z" fill="#fc8231"/><path d="m130.32951 142.93525v92.72288q-22.02243.18051-43.383 2.28647c19.46519-31.40906 28.22-63.841 25.81318-94.528 5.83656-.27075 11.6731-.42118 17.56982-.48135z" fill="#fc8231"/><path d="m76.23614 236.07933c-19.94655-18.26178-32.91331-36.91467-41.24694-58.215a162.28546 162.28546 0 0 1 -6.9497-22.89491 455.85483 455.85483 0 0 1 74.70179-10.98113c2.34665 29.69412-6.64885 61.40403-26.50515 92.09104z" fill="#fff"/><path d="m101.4777 133.96983a464.36124 464.36124 0 0 0 -75.484 11.10147 324.61546 324.61546 0 0 1 -4.39245-38.84012 442.81683 442.81683 0 0 1 65.37535-11.37224 110.45014 110.45014 0 0 1 8.9955 18.59271 109.89752 109.89752 0 0 1 5.5056 20.51818z" fill="#00803f"/><g fill="#fff"><path d="m46.42161 20.12706h-7.28061c-2.37673 3.24922-3.55006 4.934-5.9268 8.30354-2.31657-3.24921-3.45981-4.934-5.77638-8.30354h-7.28067v10.59c6.58868-.2106 9.89807-.33094 16.54692-.51145-5.95689 18.47239-11.13156 37.21554-16.00538 55.98876.12034 4.00134.18051 5.95689.361 9.8379 9.68747-2.40683 14.65154-3.52 24.7602-5.41535-.09025-3.55007-.12034-5.38527-.15042-9.08577-6.37809 1.0229-9.56713 1.59452-15.79478 2.79793 5.14458-18.23169 10.43959-36.4333 16.42657-54.39422.0301-3.97125.06018-5.89671.12035-9.8078z"/><path d="m75.06282 20.12706h-12.63582c-3.97126 23.04534-7.34081 46.2411-10.62011 69.3767 3.70049-.66188 5.56578-.96274 9.32644-1.53436.6318-5.20475.96273-7.85226 1.68478-13.2977 4.54288-.54153 6.79928-.78222 11.40233-1.2335.81231 5.14459 1.2335 7.64166 2.13606 12.45531 3.881-.45128 5.77638-.66188 9.537-1.053-4.12167-21.48088-7.43105-43.08212-10.83068-64.71345zm-11.01122 45.33854c1.74494-12.99684 2.67759-20.66859 4.51279-33.57519 1.65469 12.81634 2.467 20.33766 4.30219 32.76289-3.55006.33094-5.295.48137-8.81498.8123z"/><path d="m101.14677 75.484c-.06017-18.44228.09025-36.88457.2106-55.35694h-9.38661c-.12034 21.39065-.27077 42.78129-.03009 64.14185 8.72474-.78221 12.84643-1.02289 21.57115-1.414v-8.00269c-4.96407.21059-7.46115.33094-12.36505.63178z"/><path d="m136.73768 39.502v-8.3938a2.11391 2.11391 0 0 0 -1.89537-2.28648h-4.84374a2.13479 2.13479 0 0 0 -1.89537 2.28648q-.04513 20.62347-.09025 41.277a1.99852 1.99852 0 0 0 1.89537 2.106c1.95554-.03008 2.94835-.03008 4.9039-.03008a2.0077 2.0077 0 0 0 1.89537-2.13606v-13.388h-3.881v-8.21326c5.3251 0 8.00269 0 13.32778.06017.03009 9.59721.03009 14.14009.06017 22.74449 0 6.10731-2.97844 8.87516-9.02559 8.84508-3.881 0-5.83654 0-9.71754.06017-6.01706.09025-8.9955-2.6475-8.9955-8.78491 0-14.56128.09025-29.15265.18051-43.71394.03009-6.64885 3.03862-9.83789 8.96541-9.83789h9.53705c5.9268 0 8.90525 3.189 8.90525 9.83789.03008 3.79075.03008 5.47553.03008 9.59721-3.67042.00001-5.56579-.03007-9.35653-.03007z"/><path d="m153.91637 20.12706c.12035 20.8792.27078 41.7584.24068 62.63759 3.76066.15043 5.626.24068 9.35652.42119.09025-21.02962-.09025-42.02916-.2106-63.05878z"/><path d="m193.14761 61.07315c4.06151-.692 6.04714-3.881 6.01706-9.92814-.06018-8.27346-.09026-12.63583-.18051-20.57835-.09025-7.04-3.0687-10.4396-9.02559-10.4396h-18.89357c.15043 21.18006.33093 42.3601.15043 63.57024 3.70048.27076 5.5056.42119 9.26626.75213.12035-8.9955.15043-13.749.15043-23.85764 1.23349.06017 1.86529.09025 3.09878.18051 3.12888 10.31926 4.603 15.22316 7.67175 24.7602 4.15177.48137 6.22766.722 10.34935 1.29367-3.33947-9.95824-5.08441-15.07274-8.60439-25.75302zm-3.48989-11.43241c0 1.38393-.84238 2.43691-1.86529 2.40683-2.8581-.15043-4.3022-.2106-7.19039-.33094-.03008-9.05568-.06018-13.83924-.12035-22.62415 2.88818.03009 4.30219.06017 7.19039.09026 1.02291 0 1.86529 1.11315 1.89537 2.43691.06017 6.91961.06017 10.77053.09027 18.02109z"/><path d="m206.686 20.12706c.33093 22.47372.60171 44.97752.30085 67.45124 3.79074.57162 5.656.87247 9.38662 1.47418.361-22.98517.06018-45.97034-.27077-68.9555-3.7607.03008-5.65605.03008-9.4167.03008z"/><path d="m250.49018 65.49569c-.09026 8.03278-.15043 11.94387-.39111 19.46519-.2106 7.52133-3.159 10.34934-8.815 9.05568-3.42973-.78222-5.14458-1.14324-8.60438-1.86529-5.71621-1.17333-8.54424-4.96408-8.48406-11.91378.03008-3.67041.06017-5.5357.06017-9.32644 3.70049.48136 5.56578.75213 9.23619 1.26358-.03008 3.36956-.03008 5.02425-.09025 8.27346a2.68752 2.68752 0 0 0 1.775 2.79793c1.62461.30085 2.4369.45128 4.03144.75213.99281.18051 1.83519-.78222 1.86529-2.19622.12035-6.37809.15043-9.65739.2106-16.39649 0-1.50426-.81231-2.828-1.80512-2.94836-2.73775-.33094-4.12169-.51145-6.88954-.8123-5.5056-.6318-8.33363-4.603-8.3938-12.4854-.06018-7.34081-.09026-11.01122-.2106-17.991-.09021-7.46116 2.79799-11.07138 8.66461-11.07138h9.14594c5.86663 0 8.78491 3.91109 8.815 11.94386v10.74043c-3.73058-.27076-5.59585-.39111-9.32644-.63179-.03008-3.881-.03008-5.47552-.06017-9.05568 0-1.47418-.84239-2.73776-1.89537-2.76784-1.65469-.06017-2.49708-.06017-4.15177-.12034-1.02291-.03009-1.86529 1.14324-1.8352 2.58733.06018 6.22766.09026 9.537.12035 16.12572 0 1.53435.84239 2.8581 1.86529 2.94836 2.73776.24068 4.0916.361 6.82937.63179 5.65598.54154 8.42383 5.02425 8.33356 12.99685z"/><path d="m118.536 250.189v12.847h-2.557v-9.146h-3.249v-2.226h3.249v-1.475z"/><path d="m126.68919 249.88849c-3.09878 0-5.17468 1.62461-5.17468 4.48271 0 2.6776 1.89537 4.27212 4.66322 4.27212a4.53926 4.53926 0 0 0 3.39964-1.32376c-.09025 2.31657-.93265 3.82083-2.40682 3.82083h-1.26355a1.87945 1.87945 0 0 1 -1.80512-1.26358h-2.61742c.3911 2.04579 1.92545 3.48989 4.96407 3.48989 4.603 0 5.68612-3.67041 5.68612-6.9798.03006-4.30219-1.8954-6.49841-5.44546-6.49841zm.6017 6.58866h-1.08307a2.09377 2.09377 0 0 1 -2.13606-2.22631 1.96116 1.96116 0 0 1 1.98564-2.106h1.20341a2.08277 2.08277 0 0 1 2.16614 2.22632 2.008 2.008 0 0 1 -2.13606 2.10599z"/><path d="m143.29627 257.831v-7.61157h-5.38527l-3.91109 7.34082v2.467h6.82937v3.03861h2.49707v-3.03861h1.775v-2.19625h-1.80511zm-2.467 0h-4.27212v-.33093l2.58734-5.05432h1.68478z"/><path d="m156.23294 257.831v-7.61157h-5.38527l-3.91109 7.34082v2.467h6.82942v3.03861h2.497v-3.03861h1.775v-2.19625h-1.80512zm-2.467 0h-4.27212v-.33093l2.58733-5.05432h1.68477v5.38525z"/></g></svg>